<svg width="32" height="33" viewBox="0 0 32 33" fill="none" xmlns="http://www.w3.org/2000/svg">
<path d="M8.77091 6.24545L3.63636 11.4091C-1.20727 16.2236 -1.20727 24.0491 3.63636 28.8636C8.48 33.6782 16.2764 33.7073 21.0909 28.8636L29.8182 20.1364C31.2727 18.7255 31.2727 16.4127 29.8182 14.9873C29.6727 14.8127 29.4836 14.6527 29.28 14.5218L29.8182 13.9545C31.2727 12.5436 31.2727 10.2309 29.8182 8.80546C29.6145 8.57273 29.3382 8.36909 29.0909 8.20909C29.6436 6.87091 29.3964 5.27091 28.3055 4.18C27.04 2.91455 25.0764 2.78364 23.6509 3.77273C23.3549 3.31684 22.9612 2.93258 22.4982 2.64783C22.0352 2.36309 21.5146 2.185 20.9742 2.12651C20.4338 2.06801 19.8872 2.13057 19.374 2.30965C18.8608 2.48873 18.3939 2.77983 18.0073 3.16182L14.3564 6.81273C14.2255 6.60909 14.0655 6.42 13.8909 6.24545C13.2045 5.58075 12.2864 5.20909 11.3309 5.20909C10.3754 5.20909 9.45733 5.58075 8.77091 6.24545ZM10.8218 8.31091C11.1127 8.02 11.5636 8.02 11.8545 8.31091C12.1455 8.60182 12.1455 9.05273 11.8545 9.34364L7.22909 13.9691C8.04626 14.7873 8.50525 15.8964 8.50525 17.0527C8.50525 18.2091 8.04626 19.3182 7.22909 20.1364L9.28 22.1873C10.2797 21.1866 10.9662 19.9163 11.2556 18.5317C11.5449 17.1471 11.4245 15.7082 10.9091 14.3909L20.0727 5.22727C20.3636 4.93636 20.8145 4.93636 21.0909 5.22727C21.3673 5.51818 21.3964 5.96909 21.0909 6.26L14.4145 12.9509L16.4655 15.0018L25.2073 6.26C25.4982 5.96909 25.9491 5.96909 26.24 6.26C26.5309 6.55091 26.5309 7.00182 26.24 7.29273L17.4982 16.0345L19.5491 18.0855L26.7491 10.8855C27.04 10.5945 27.4909 10.5945 27.7818 10.8855C28.0727 11.1764 28.0727 11.6273 27.7818 11.9182L19.5491 20.1364L21.6 22.2018L26.7491 17.0527C27.04 16.7618 27.4909 16.7618 27.7818 17.0527C28.0727 17.3436 28.0727 17.7945 27.7818 18.0855L19.0545 26.8273C15.36 30.5218 9.38182 30.5218 5.68727 26.8273C1.99273 23.1327 1.99273 17.1545 5.68727 13.46L10.8218 8.31091ZM32 23.7727C32 28.5873 28.0873 32.5 23.2727 32.5V30.3182C26.9091 30.3182 29.8182 27.4091 29.8182 23.7727H32ZM0 9.22727C0 4.41273 3.91273 0.5 8.72727 0.5V2.68182C5.09091 2.68182 2.18182 5.59091 2.18182 9.22727H0Z" fill="#242121"/>
</svg>
