<svg width="32" height="30" viewBox="0 0 32 30" fill="none" xmlns="http://www.w3.org/2000/svg">
<path d="M16.0026 2.48374C17.8305 0.823943 20.2157 -0.0626457 22.668 0.00616903C25.1203 0.0749838 27.4535 1.09398 29.1881 2.85374C30.9212 4.61155 31.9259 6.97525 31.9961 9.46032C32.0663 11.9454 31.1967 14.3636 29.5657 16.2192L15.9994 30L2.43644 16.2192C0.803464 14.3626 -0.0669061 11.9423 0.00401752 9.45528C0.0749412 6.96821 1.08178 4.60305 2.81782 2.84535C4.55386 1.08766 6.88738 0.0708073 9.33931 0.0035605C11.7912 -0.0636863 14.1755 0.823774 16.0026 2.48374ZM26.9228 5.14677C25.7671 3.97531 24.2132 3.2969 22.5801 3.25073C20.9469 3.20456 19.3582 3.79413 18.14 4.89848L16.0042 6.8426L13.8669 4.9001C12.648 3.79443 11.0579 3.20422 9.42328 3.25069C7.78869 3.29717 6.23369 3.97681 5.07769 5.15001C3.93265 6.31146 3.26426 7.87006 3.20726 9.51162C3.15026 11.1532 3.70889 12.7556 4.77053 13.9959L16.001 25.4058L27.2316 13.9975C28.2944 12.7567 28.8536 11.1532 28.7963 9.51044C28.739 7.86773 28.0694 6.30824 26.9228 5.14677Z" fill="#242121"/>
</svg>
