<svg width="32" height="30" viewBox="0 0 32 30" fill="none" xmlns="http://www.w3.org/2000/svg">
<path d="M5.10798 22.8241L5.10577 22.8218C2.84321 20.5411 1.5 17.5738 1.5 14.3478C1.5 7.40236 7.83491 1.5 16 1.5C24.1651 1.5 30.5 7.40236 30.5 14.3478C30.5 21.2933 24.1651 27.1956 16 27.1956C14.5522 27.1956 13.1564 27.0088 11.843 26.6599C11.4199 26.5475 10.9689 26.6254 10.6082 26.8734C9.30387 27.7698 7.74845 28.3436 6.06016 28.4724C6.25282 28.0333 6.41133 27.5788 6.53359 27.1127L6.53372 27.1122C7.0072 25.3046 6.02097 23.7482 5.10798 22.8241Z" stroke="#242121" stroke-width="3" stroke-linecap="round" stroke-linejoin="round"/>
</svg>
