<svg width="416" height="44" viewBox="0 0 416 44" fill="none" xmlns="http://www.w3.org/2000/svg">
<path fill-rule="evenodd" clip-rule="evenodd" d="M167.886 42.3209C167.828 42.1091 167.146 40.6152 165.834 37.8449L162.842 31.3442C159.708 24.594 157.682 20.4197 156.774 18.8213L156.26 17.9163C156.202 17.9888 156.104 18.0961 155.961 18.2353C155.819 18.3775 155.578 18.6096 155.236 18.9286C154.551 19.7119 153.982 20.3152 153.527 20.7417L152.331 21.9658V40.9372C152.331 41.5406 152.247 41.9583 152.076 42.1904C151.904 42.4195 151.533 42.5356 150.964 42.5356C150.395 42.5356 150.009 42.4108 149.809 42.1614C149.609 41.9119 149.51 41.4681 149.51 40.8299V24.7361C149.51 22.6417 149.594 19.2303 149.766 14.5049L149.937 4.27367C149.937 3.60068 149.992 2.977 150.108 2.40844C150.279 1.98202 150.593 1.76736 151.048 1.76736C151.904 1.76736 152.415 1.89209 152.586 2.14157C152.813 2.39104 152.929 3.02922 152.929 4.05901L152.758 12.9036L152.586 19.3522H152.671C153.753 17.8611 155.291 15.6217 157.288 12.6368L160.451 7.67924C163.643 2.74204 165.666 0.273438 166.519 0.273438C166.916 0.273438 167.259 0.345957 167.546 0.485197C167.83 0.627337 167.973 0.824594 167.973 1.07116C167.801 1.74706 167.346 2.45776 166.606 3.20327L165.75 4.16344C164.78 5.58485 163.356 7.71695 161.475 10.5569C159.194 14.003 157.97 15.8161 157.798 15.993C157.74 16.2425 157.769 16.4542 157.882 16.6341C159.023 18.4471 160.303 20.6836 161.728 23.3495C163.152 26.0125 164.319 28.3244 165.233 30.2767C165.924 31.7972 166.622 33.3354 167.327 34.8913L167.338 34.9154L168.182 36.7774C169.177 38.9791 169.876 40.5601 170.277 41.5203C170.39 41.7349 170.448 41.8568 170.448 41.8945C170.448 42.1439 170.291 42.3383 169.978 42.4804C169.665 42.6226 169.308 42.6951 168.91 42.6951C168.396 42.6951 168.054 42.5704 167.886 42.3209ZM1.70927 41.0416C1.70927 41.3636 1.83986 41.6305 2.09524 41.8423H2.08943C2.34771 42.054 2.67273 42.1613 3.07321 42.1613C6.49175 42.1613 8.80174 42.1439 9.99736 42.1091H10.6822L11.28 42.0569C11.6225 42.0569 11.8778 41.9583 12.0491 41.7639C12.2203 41.5696 12.3044 41.3288 12.3044 41.0445C12.3044 40.4034 11.933 40.0844 11.193 40.0844H5.89394C5.20907 40.0844 4.83762 40.067 4.78248 40.0321C4.61126 40.0321 4.5271 39.9799 4.5271 39.8726L4.01345 33.2645C3.67102 29.8909 3.4998 27.4542 3.4998 25.9631L3.07321 16.4252C2.90199 13.156 2.81783 8.23619 2.81783 1.66292C2.81783 1.12917 2.30708 0.862296 1.27978 0.862296C0.940245 0.862296 0.638438 0.923213 0.383063 1.04795C0.127688 1.17268 0 1.32353 0 1.50048C0 3.95167 0.171217 7.66473 0.513652 12.6367C0.798047 18.1425 0.940245 21.8556 0.940245 23.773C0.940245 25.8355 1.05342 28.3563 1.28268 31.3413C1.56707 34.1493 1.70927 36.6701 1.70927 38.9095V41.0416ZM23.0795 41.3606C23.2507 41.3258 23.48 41.3084 23.7644 41.3084L23.7673 41.3026C23.9936 41.6594 24.7626 41.8364 26.0743 41.8364C26.4168 41.8364 26.9275 41.7319 27.6124 41.5173C28.2944 41.3403 28.808 41.2504 29.1505 41.2504C29.6641 41.2504 30.1487 41.2678 30.6044 41.3026C31.0019 41.3751 31.4575 41.41 31.9712 41.41C32.54 41.41 32.9956 41.3113 33.338 41.117C33.6805 40.9226 33.8517 40.6644 33.8517 40.3453C33.8517 39.8493 33.0246 39.5998 31.3734 39.5998H30.0907C29.7483 39.6346 29.3217 39.6521 28.808 39.6521C27.5544 39.6521 26.9275 39.4722 26.9275 39.1183L27.0117 39.011C26.8405 38.834 26.7563 38.338 26.7563 37.5199C26.7563 37.1283 26.7824 36.8092 26.8405 36.5598V35.8665C26.8405 34.5524 26.7563 32.5972 26.5851 30.0039C26.3558 27.7326 26.2427 25.7948 26.2427 24.1965L26.4139 17.8552C26.469 15.9726 26.498 13.8579 26.498 11.514C26.498 9.9534 26.4139 9.01063 26.2427 8.69154L26.6693 8.53199C27.92 8.53199 28.7471 8.63642 29.1476 8.85108L31.1122 8.74375C31.2834 8.52909 31.3676 8.38985 31.3676 8.31733C31.3676 7.92862 30.8568 7.62403 29.8295 7.41227C28.5178 7.12799 27.2061 6.96845 25.8973 6.93364C23.7295 6.7915 21.5647 6.71898 19.3998 6.71898C19.0573 6.71898 18.6307 6.7915 18.1171 6.93364C17.6034 7.07578 17.3481 7.21792 17.3481 7.36006C17.3481 7.96343 17.8907 8.26512 18.9732 8.26512C19.3708 8.26512 19.7422 8.24771 20.0846 8.2129L21.0249 8.16069C22.2234 8.16069 23.0766 8.2129 23.5902 8.32023C23.8746 9.74164 24.0168 11.8012 24.0168 14.5019L23.8456 20.6835C23.6744 23.4538 23.5902 25.5308 23.5902 26.9174L23.7615 30.8074L23.9327 32.78C24.1039 34.4857 24.1881 36.4205 24.1881 38.5874L24.1039 39.2285L23.9327 39.7072L23.5902 39.9189H21.1119L20.6854 40.1858C20.2268 40.3657 20.0005 40.5774 20.0005 40.8269C20.3429 41.1837 21.141 41.3606 22.3946 41.3606H23.0795ZM47.3578 41.0967L47.2736 39.1241C47.2156 38.5556 47.1895 37.9174 47.1895 37.2067C47.1895 36.8528 47.2185 36.5482 47.2736 36.3016L47.3578 35.3414C47.3578 34.9875 47.2417 34.5611 47.0154 34.0622C47.0154 31.6835 46.7281 27.2598 46.1593 20.7938C45.5876 14.5425 45.2742 10.2957 45.219 8.05919C41.6844 8.05919 39.3193 8.00697 38.1237 7.89964C36.9832 7.72269 36.4144 7.43841 36.4144 7.0468C36.6988 6.65519 37.2386 6.46083 38.0395 6.46083C39.7488 6.46083 42.2271 6.53335 45.4773 6.67259C48.4402 6.85244 50.9185 6.93947 52.9151 6.93947H54.7114L56.5078 6.88725C57.5322 6.88725 58.0458 7.11932 58.0458 7.58055C58.0458 7.79521 57.8601 7.96346 57.4916 8.08819C57.1201 8.21293 56.679 8.27385 56.1653 8.27385C55.0249 8.27385 53.8292 8.23904 52.5756 8.16652L48.8988 8.05919C48.6695 8.05919 48.5563 8.1114 48.5563 8.21873C48.4983 8.32606 48.4722 8.66256 48.4722 9.23112C48.4722 12.6773 48.8146 17.8988 49.4966 24.8985C50.1234 32.1447 50.4368 37.3517 50.4368 40.5107C50.4368 40.7602 50.193 40.9894 49.7113 41.204C49.2267 41.4158 48.7566 41.5231 48.3009 41.5231L47.3607 41.0967H47.3578ZM72.6604 39.1241L72.7445 41.0967H72.7503L73.6906 41.5231C74.1462 41.5231 74.6163 41.4158 75.101 41.204C75.5827 40.9894 75.8264 40.7602 75.8264 40.5107C75.8264 37.3517 75.513 32.1447 74.8862 24.8985C74.2013 17.8988 73.8589 12.6773 73.8589 9.23112C73.8589 8.66256 73.885 8.32606 73.9431 8.21873C73.9431 8.1114 74.0562 8.05919 74.2855 8.05919L77.9623 8.16652C79.216 8.23904 80.4116 8.27385 81.5521 8.27385C82.0628 8.27385 82.5039 8.21293 82.8754 8.08819C83.2468 7.96346 83.4326 7.79521 83.4326 7.58055C83.4326 7.11932 82.9218 6.88725 81.8945 6.88725L80.0982 6.93947H78.3018C76.3053 6.93947 73.827 6.85244 70.864 6.67259C67.6138 6.53335 65.1355 6.46083 63.4262 6.46083C62.6253 6.46083 62.0855 6.65519 61.8011 7.0468C61.8011 7.43841 62.3699 7.72269 63.5104 7.89964C64.706 8.00697 67.0711 8.05919 70.6058 8.05919C70.6609 10.2957 70.9772 14.5425 71.546 20.7938C72.1177 27.2598 72.4021 31.6835 72.4021 34.0622C72.6285 34.5611 72.7445 34.9875 72.7445 35.3414L72.6604 36.3016C72.6052 36.5482 72.5762 36.8528 72.5762 37.2067C72.5762 37.9174 72.6023 38.5556 72.6604 39.1241ZM92.5767 41.3085C92.6899 41.0968 92.748 40.5079 92.748 39.5506C92.748 36.2814 92.8321 31.4341 93.0033 25.003C93.1746 18.6096 93.2587 13.9914 93.2587 11.1486L93.4299 9.23119L93.6853 7.63284C93.6853 7.38337 93.8855 7.25863 94.2831 7.25863C94.5675 7.25863 94.968 7.31085 95.4787 7.41818L95.7341 7.47039C95.7341 8.25362 95.7051 8.96142 95.65 9.6025V17.4898C95.7051 19.1955 95.7341 21.1304 95.7341 23.2973C95.6761 23.4742 95.65 23.8659 95.65 24.4692L95.5658 25.5889C95.5078 26.2996 95.4816 27.0278 95.4816 27.7733C95.4816 28.5913 95.5107 29.3368 95.5658 30.0127L95.65 32.3044L95.3946 32.7308L95.4787 32.6786C95.4787 32.7859 95.4497 32.8584 95.3946 32.8932V33.105C95.3946 33.3893 95.4787 33.6387 95.65 33.8505L95.3946 38.9675V39.2866C95.3946 39.89 95.4236 40.2468 95.4787 40.3512C95.4787 40.5311 95.6209 40.6181 95.9053 40.6181L100.351 40.7254C101.663 40.7254 102.56 40.7341 103.044 40.7516C103.529 40.769 103.828 40.7777 103.941 40.7777H104.196C104.481 40.7777 104.765 40.8763 105.052 41.0706C105.337 41.265 105.479 41.471 105.479 41.6827C105.479 42.1091 105.023 42.3383 104.112 42.376C103.143 42.3412 100.778 42.3238 97.0168 42.3238L97.188 42.376C96.6192 42.376 96.0765 42.3934 95.5629 42.4282C95.1073 42.4979 94.5936 42.5356 94.0248 42.5356C93.2268 42.5356 92.7422 42.1266 92.5709 41.3114L92.5767 41.3085ZM113.691 40.7225V41.4158C113.804 42.1613 114.376 42.5355 115.4 42.5355H122.409C124.916 42.5355 126.17 42.2164 126.17 41.5754C126.17 41.1141 125.343 40.8821 123.691 40.8821C123.065 40.8821 122.496 40.8995 121.982 40.9343L120.444 40.9865C119.077 40.9865 118.137 40.853 117.623 40.5862C117.11 40.3193 116.822 39.7797 116.767 38.9617C116.596 37.5055 116.512 36.0841 116.512 34.6975L116.596 30.9148C116.651 29.7777 116.68 28.5187 116.68 27.1321C116.68 24.9304 116.622 23.5264 116.509 22.923V22.7635L116.936 22.4966H117.362L120.099 22.7635C120.554 23.0478 121.21 23.1899 122.066 23.1899C122.635 23.1899 123.065 23.0565 123.349 22.7896C123.633 22.5227 123.776 22.1949 123.776 21.8033C123.776 21.1622 122.664 20.8432 120.441 20.8432C119.927 20.8432 119.443 20.8606 118.987 20.8954L117.62 20.9476C116.822 20.9476 116.425 20.4515 116.425 19.4566C116.425 17.9278 116.451 16.5441 116.509 15.2997C116.622 14.0929 116.68 12.7266 116.68 11.1979C116.68 9.99116 116.651 9.22535 116.596 8.90626L117.023 8.58716C118.389 8.58716 120.699 8.92656 123.947 9.59955C125.029 9.24565 125.572 8.89175 125.572 8.53495C125.572 8.21586 125.029 7.94898 123.947 7.73722C122.919 7.52546 121.695 7.36591 120.27 7.25858C118.732 7.15415 117.905 7.08163 117.792 7.04682C117.452 6.83506 116.994 6.72774 116.425 6.72774C115.572 6.72774 114.942 6.84667 114.544 7.07584C114.147 7.3079 113.946 7.68791 113.946 8.22166C113.946 9.39359 114.002 10.4582 114.118 11.4184L114.289 14.6151C114.289 16.8197 114.173 19.5001 113.946 22.662C113.775 26.2126 113.691 28.8784 113.691 30.6537L113.862 34.1695C114.034 35.6954 114.118 36.8702 114.118 37.6853C114.118 38.396 113.888 39.1242 113.433 39.8697L113.775 40.0814C113.775 40.3309 113.746 40.5456 113.691 40.7225ZM197.463 40.7747C197.631 41.2011 197.817 41.5202 198.017 41.7349L198.014 41.7262C198.214 41.9379 198.542 42.0452 198.998 42.0452L199.854 41.8857L199.938 41.9379V41.8857L201.392 41.6739C201.961 41.0009 202.562 36.8093 203.188 29.0989C203.815 21.3885 204.129 15.8479 204.129 12.4713L204.555 12.0449V8.47399C204.555 8.08528 204.367 7.72848 203.998 7.40939C203.627 7.0903 203.186 6.93076 202.672 6.93076C201.874 6.93076 201.476 7.30496 201.476 8.05047C201.476 8.33475 201.502 8.56682 201.56 8.74377L201.645 9.38195C201.645 20.8576 200.989 30.5377 199.677 38.425L199.506 38.5846C198.026 36.9514 196.743 34.6249 195.661 31.6052C195.318 30.645 194.863 29.5456 194.294 28.3011C193.496 26.7376 191.473 23.5583 188.226 18.7632C185.034 14.2147 182.982 10.6815 182.071 8.1578C182.016 8.05047 181.987 7.96345 181.987 7.89093L181.815 7.57184C181.815 7.39489 181.699 7.23534 181.473 7.0932C181.188 6.91625 180.93 6.80892 180.704 6.77411L179.848 6.88144L179.592 6.7219C178.568 7.25565 178.054 8.39277 178.054 10.1333V10.8266C178.054 11.8593 177.97 13.4228 177.799 15.5172C177.628 17.6493 177.544 19.2303 177.544 20.26C177.544 21.9657 177.628 24.5214 177.799 27.9327C177.97 31.3412 178.054 33.8997 178.054 35.6054C178.054 36.2436 177.996 36.8296 177.883 37.3633L177.712 39.069C177.712 40.9864 178.313 41.9466 179.508 41.9466C179.964 41.9466 180.35 41.8393 180.663 41.6275C180.977 41.4158 181.133 41.1663 181.133 40.882C181.133 40.4208 181.017 40.0466 180.791 39.7623V34.9672C180.393 34.3639 180.193 31.0946 180.193 25.1624H180.448L180.277 23.4568C180.161 22.8882 180.106 22.2152 180.106 21.432C180.106 20.9708 180.132 20.5443 180.19 20.1527L180.274 18.8735L180.19 16.7965C180.135 16.1931 180.106 15.4824 180.106 14.6644C180.106 13.1356 180.335 11.8941 180.791 10.9339C182.103 11.7519 185.324 17.0981 190.452 26.9726L191.136 28.2518C192.106 29.9923 192.646 30.9003 192.762 30.9699L194.3 33.7402C195.78 36.1566 196.749 38.1988 197.205 39.8696L197.12 40.0292C197.292 40.2409 197.405 40.4904 197.463 40.7747ZM218.83 41.3084C218.546 41.3084 218.317 41.3258 218.145 41.3606H217.461C216.207 41.3606 215.409 41.1837 215.066 40.8269C215.066 40.5774 215.293 40.3657 215.751 40.1858L216.178 39.9189H218.656L218.999 39.7072L219.17 39.2285L219.254 38.5874C219.254 36.4205 219.17 34.4857 218.999 32.78L218.827 30.8074L218.656 26.9174C218.656 25.5308 218.74 23.4538 218.912 20.6835L219.083 14.5019C219.083 11.8012 218.941 9.74164 218.656 8.32023C218.143 8.2129 217.289 8.16069 216.091 8.16069L215.151 8.2129C214.808 8.24771 214.437 8.26512 214.039 8.26512C212.957 8.26512 212.414 7.96343 212.414 7.36006C212.414 7.21792 212.669 7.07578 213.183 6.93364C213.697 6.7915 214.123 6.71898 214.466 6.71898C216.631 6.71898 218.796 6.7915 220.963 6.93364C222.272 6.96845 223.584 7.12799 224.895 7.41227C225.923 7.62403 226.434 7.92862 226.434 8.31733C226.434 8.38985 226.349 8.52909 226.178 8.74375L224.214 8.85108C223.813 8.63642 222.986 8.53199 221.735 8.53199L221.309 8.69154C221.48 9.01063 221.564 9.9534 221.564 11.514C221.564 13.8579 221.535 15.9726 221.48 17.8552L221.309 24.1965C221.309 25.7948 221.422 27.7326 221.651 30.0039C221.822 32.5972 221.906 34.5524 221.906 35.8665V36.5598C221.848 36.8092 221.822 37.1283 221.822 37.5199C221.822 38.338 221.906 38.834 222.078 39.011L221.993 39.1183C221.993 39.4722 222.62 39.6521 223.874 39.6521C224.388 39.6521 224.814 39.6346 225.157 39.5998H226.439C228.091 39.5998 228.918 39.8493 228.918 40.3453C228.918 40.6644 228.746 40.9226 228.404 41.117C228.062 41.3113 227.606 41.41 227.037 41.41C226.523 41.41 226.068 41.3751 225.67 41.3026C225.215 41.2678 224.73 41.2504 224.216 41.2504C223.874 41.2504 223.36 41.3403 222.678 41.5173C221.993 41.7319 221.483 41.8364 221.14 41.8364C219.829 41.8364 219.06 41.6594 218.833 41.3026L218.83 41.3084ZM242.342 39.1241L242.426 41.0967H242.432L243.373 41.5231C243.828 41.5231 244.298 41.4158 244.783 41.204C245.265 40.9894 245.508 40.7602 245.508 40.5107C245.508 37.3517 245.195 32.1447 244.568 24.8985C243.883 17.8988 243.541 12.6773 243.541 9.23112C243.541 8.66256 243.567 8.32606 243.625 8.21873C243.625 8.1114 243.738 8.05919 243.967 8.05919L247.644 8.16652C248.898 8.23904 250.094 8.27385 251.234 8.27385C251.748 8.27385 252.189 8.21293 252.56 8.08819C252.929 7.96346 253.115 7.79521 253.115 7.58055C253.115 7.11932 252.604 6.88725 251.576 6.88725L249.78 6.93947H247.984C245.987 6.93947 243.509 6.85244 240.546 6.67259C237.296 6.53335 234.817 6.46083 233.108 6.46083C232.307 6.46083 231.767 6.65519 231.483 7.0468C231.483 7.43841 232.052 7.72269 233.192 7.89964C234.391 8.00697 236.753 8.05919 240.288 8.05919C240.343 10.2957 240.659 14.5425 241.228 20.7938C241.797 27.2598 242.084 31.6835 242.084 34.0622C242.31 34.5611 242.426 34.9875 242.426 35.3414L242.342 36.3016C242.287 36.5482 242.258 36.8528 242.258 37.2067C242.258 37.9174 242.284 38.5556 242.342 39.1241ZM261.316 42.0279C260.747 41.7988 260.431 41.5203 260.376 41.2012L260.802 40.7748C261.028 40.7748 261.542 40.827 262.34 40.9343C262.967 41.0764 263.481 41.1461 263.878 41.1461C265.132 41.1461 266.243 40.8357 267.213 40.2149C268.182 39.5941 268.922 38.7848 269.436 37.7898C270.234 35.942 270.631 34.2015 270.631 32.5683C270.631 30.1171 269.436 27.489 267.041 24.681C265.558 23.0478 264.418 21.7511 263.623 20.791C262.825 19.8308 262.111 18.7314 261.487 17.4869C260.747 16.0307 260.376 14.6267 260.376 13.2778C260.376 11.9986 260.889 10.4901 261.914 8.74965C262.427 7.93162 263.153 7.26733 264.093 6.75098C265.033 6.23463 266.043 5.97936 267.128 5.97936C267.868 5.97936 268.594 6.13891 269.308 6.458C270.019 6.77709 270.376 7.11649 270.376 7.47039C270.376 7.75467 270.004 7.89681 269.264 7.89681C269.035 7.89681 268.751 7.84459 268.408 7.73726C268.066 7.62993 267.752 7.57772 267.468 7.57772C266.612 7.57772 265.843 7.79238 265.161 8.2188C264.479 8.64522 263.965 9.19638 263.623 9.87227C262.938 11.1863 262.596 12.396 262.596 13.4954C262.596 14.1713 262.738 14.8646 263.022 15.5753C263.077 15.7871 263.135 15.9669 263.193 16.109C263.249 16.2512 263.277 16.3585 263.277 16.4281L263.791 17.4927L264.218 18.4529L264.903 19.4131C265.074 19.6626 265.257 19.883 265.46 20.0774C265.66 20.2746 265.846 20.4603 266.014 20.6372L267.041 21.757C267.268 21.9687 267.752 22.4764 268.495 23.277C269.235 24.0747 269.92 24.9218 270.547 25.8065C271.116 26.552 271.542 27.254 271.83 27.9125C272.114 28.571 272.369 29.36 272.599 30.2854C272.77 31.173 272.854 32.1506 272.854 33.2152C272.854 34.9209 272.483 36.5193 271.743 38.0103C270.715 39.7856 269.235 41.03 267.297 41.7407C266.214 42.1672 264.961 42.3789 263.536 42.3789L263.109 42.4862C262.482 42.4137 261.882 42.2629 261.313 42.0337L261.316 42.0279ZM269.949 7.73726C269.949 7.70245 269.92 7.68215 269.865 7.68215V7.73726H269.949ZM297.387 42.5906C298.014 42.7676 298.597 42.8836 299.14 42.9358H299.146C299.685 42.9909 300.472 43.017 301.496 43.017C303.206 43.017 304.773 42.6979 306.198 42.0569C307.619 41.4187 308.76 40.5832 309.616 39.5535C311.325 37.4213 312.181 35.324 312.181 33.2645C312.181 31.7386 311.868 30.1403 311.241 28.4694C310.786 27.2278 310.228 26.1081 309.575 25.1131C308.92 24.1211 307.994 22.8592 306.798 21.3305L305.942 20.2107L302.95 16.3207C301.981 15.0415 301.212 13.6636 300.643 12.19C300.071 10.7163 299.787 9.28624 299.787 7.89964C299.787 7.01199 299.984 6.19396 300.385 5.44845C300.84 4.5637 301.566 3.81528 302.564 3.21191C303.56 2.60854 304.715 2.30685 306.026 2.30685C306.482 2.30685 306.967 2.39678 307.48 2.57373C308.049 2.75358 308.505 2.84061 308.847 2.84061C309.189 2.84061 309.361 2.69846 309.361 2.41418C309.361 2.09509 308.876 1.7673 307.907 1.4279C306.938 1.08851 306.113 0.92026 305.428 0.92026C303.661 0.92026 302.065 1.32928 300.64 2.14731C299.328 2.92763 298.374 3.8617 297.776 4.9437C297.178 6.02571 296.879 7.15413 296.879 8.32607C296.879 10.1739 297.277 11.897 298.075 13.4953C298.644 14.705 299.299 15.8044 300.039 16.7994C300.78 17.7944 301.862 19.181 303.287 20.9563C303.972 21.7366 304.456 22.3225 304.741 22.7142C306.052 24.2777 307.106 25.9486 307.904 27.7239C308.699 29.5021 309.099 31.26 309.099 33.0005C309.099 34.564 308.531 36.3567 307.39 38.3815C306.819 39.4113 306.006 40.2438 304.953 40.8849C303.896 41.526 302.744 41.8451 301.49 41.8451C300.864 41.8451 300.095 41.703 299.183 41.4187C298.214 41.1692 297.416 41.0445 296.789 41.0445C296.162 41.0445 295.849 41.2591 295.849 41.6856C296.191 42.0743 296.702 42.376 297.387 42.5906ZM329.358 41.0967L329.274 39.1241C329.216 38.5556 329.19 37.9174 329.19 37.2067C329.19 36.8528 329.219 36.5482 329.274 36.3016L329.358 35.3414C329.358 34.9875 329.242 34.5611 329.016 34.0622C329.016 31.6835 328.731 27.2598 328.16 20.7938C327.588 14.5425 327.275 10.2957 327.219 8.05919C323.685 8.05919 321.32 8.00697 320.124 7.89964C318.984 7.72269 318.415 7.43841 318.415 7.0468C318.699 6.65519 319.239 6.46083 320.04 6.46083C321.749 6.46083 324.227 6.53335 327.478 6.67259C330.441 6.85244 332.919 6.93947 334.915 6.93947H336.712L338.508 6.88725C339.535 6.88725 340.046 7.11932 340.046 7.58055C340.046 7.79521 339.861 7.96346 339.492 8.08819C339.12 8.21293 338.679 8.27385 338.166 8.27385C337.025 8.27385 335.83 8.23904 334.576 8.16652L330.899 8.05919C330.67 8.05919 330.557 8.1114 330.557 8.21873C330.499 8.32606 330.473 8.66256 330.473 9.23112C330.473 12.6773 330.815 17.8988 331.5 24.8985C332.127 32.1447 332.44 37.3517 332.44 40.5107C332.44 40.7602 332.196 40.9894 331.715 41.204C331.23 41.4158 330.76 41.5231 330.304 41.5231L329.364 41.0967H329.358ZM347.992 21.3799V23.2451L347.989 23.248C347.989 36.3221 351.321 42.8576 357.99 42.8576C359.301 42.8576 360.413 42.643 361.324 42.2165C362.29 41.7901 363.103 41.2593 363.759 40.6182C364.415 39.9771 364.998 39.1794 365.512 38.2192C366.31 36.6179 366.878 34.7208 367.221 32.5162C367.447 31.06 367.563 29.4268 367.563 27.6138L367.479 24.4171C367.424 23.4917 367.395 22.4445 367.395 21.2726L367.566 21.0057C367.566 18.8011 367.267 16.6545 366.669 14.5572C366.072 12.4628 365.172 10.7745 363.976 9.49523C362.894 8.25367 361.812 7.56037 360.729 7.41823C358.962 7.3138 357.165 7.06434 355.343 6.67272C354.832 6.56539 354.432 6.51318 354.147 6.51318C350.044 6.51318 347.992 11.4678 347.992 21.3799ZM364.577 32.3044C364.348 34.364 363.692 36.3888 362.61 38.3787H362.604C361.521 40.331 359.87 41.3086 357.647 41.3086C356.507 41.3086 355.511 40.8822 354.655 40.0293C353.802 39.2461 353.146 38.3062 352.691 37.2039C352.235 36.1045 351.837 34.7527 351.495 33.1544C351.036 30.9874 350.81 29.07 350.81 27.3991L350.726 25.267C350.671 24.6607 350.642 23.9703 350.642 23.1871L350.813 20.6837C350.984 19.5495 351.068 18.714 351.068 18.1803C351.411 17.223 351.582 15.4274 351.582 12.7993C351.695 11.8043 351.808 11.0414 351.924 10.5076C352.438 8.94697 354.002 8.16375 356.626 8.16375C358.619 8.16375 360.317 8.73231 361.713 9.86943C363.109 11.0066 363.808 12.3554 363.808 13.919L363.637 14.1859L363.979 14.6123C363.979 15.7146 364.119 17.8119 364.406 20.9013C364.748 23.6745 364.92 25.7689 364.92 27.1903C364.92 28.4666 364.803 30.1723 364.577 32.3044ZM391.76 42.4804C391.076 42.0191 390.336 40.795 389.537 38.805C388.739 36.8151 387.999 34.5785 387.315 32.0896C386.859 30.0648 386.203 28.0575 385.347 26.0675C384.662 24.2922 384.006 23.4045 383.382 23.4045H383.127C381.873 23.4045 381.246 23.654 381.246 24.1501C381.246 26.7086 381.473 30.5986 381.931 35.8201C382.158 39.0168 382.416 40.882 382.7 41.4158L382.016 42.3208H380.82L380.135 41.8944C379.224 25.4815 378.768 14.2901 378.768 8.32315C378.768 7.93154 378.812 7.61245 378.896 7.36297C378.98 7.1135 379.166 6.88434 379.453 6.66968C379.679 6.42021 380.08 6.29547 380.649 6.29547C383.556 6.29547 385.893 6.7393 387.66 7.62695C389.424 8.5146 390.309 9.79387 390.309 11.4647V15.3547C390.309 16.0306 389.952 16.9357 389.241 18.0728C388.528 19.2099 387.744 20.2571 386.891 21.2173L385.779 22.5488C386.406 24.3618 387.645 27.6194 389.497 32.3275C391.348 37.0355 392.361 39.5302 392.532 39.8145C392.587 39.8493 392.66 39.9392 392.747 40.0814C392.831 40.2235 393.017 40.4353 393.304 40.7225C393.702 41.2185 393.902 41.6478 393.902 42.0017C393.902 42.4978 393.589 42.7472 392.962 42.7472L391.766 42.4804H391.76ZM384.581 21.0578C385.437 20.3848 386.119 19.5116 386.633 18.447C387.544 16.2801 387.999 14.557 387.999 13.2778C387.999 12.4626 387.927 11.7867 387.785 11.253C387.642 10.7192 387.399 10.1536 387.059 9.5473C386.374 8.30284 384.752 7.68207 382.187 7.68207C381.899 7.68207 381.673 7.83291 381.502 8.1346C381.331 8.43628 381.246 8.74667 381.246 9.06576C381.246 11.4473 381.302 13.5968 381.418 15.5143C381.473 17.4317 381.502 19.5813 381.502 21.9628L381.673 22.0702C382.755 22.0702 383.725 21.7337 384.581 21.0578ZM407.915 42.0541C407.973 42.1615 408.141 42.2862 408.429 42.4283L408.423 42.4225C408.707 42.5647 408.936 42.6372 409.108 42.6372C410.306 42.6372 410.904 41.4304 410.904 39.0141V34.5381C410.849 33.2965 410.82 31.8925 410.82 30.329C410.82 29.6531 410.704 28.838 410.477 27.8778C410.248 26.4564 410.135 25.6558 410.135 25.4788C410.135 25.2641 410.219 24.9973 410.39 24.6782C410.562 24.3591 410.646 24.1125 410.646 23.9327C410.646 23.6861 410.503 23.3844 410.219 23.0276C410.219 21.6062 410.562 19.9904 411.246 18.1774C411.815 16.6516 412.526 15.0155 413.382 13.275C415.092 9.61419 415.948 7.5198 415.948 6.98605C415.948 6.84391 415.832 6.71917 415.605 6.61184C415.376 6.50451 415.121 6.45229 414.836 6.45229C414.093 6.45229 413.353 7.44728 412.613 9.43724C411.931 11.1429 411.217 13.2402 410.477 15.7262C409.795 17.8931 409.224 19.155 408.768 19.5089L408.939 19.7758L408.597 20.736C408.138 20.6634 407.401 19.5292 406.374 17.3246L405.35 15.2998C404.668 13.774 403.899 12.2278 403.042 10.6643C401.96 8.45966 401.133 7.32544 400.564 7.25292L399.369 7.83889C399.54 8.44516 399.795 9.10075 400.138 9.81145C400.762 11.3054 402.102 13.7392 404.154 17.1128C404.839 18.3225 405.524 19.5118 406.206 20.6837C406.888 21.8557 407.401 22.6911 407.744 23.1872L407.488 23.8282L408.002 24.5215L408.429 28.3042C408.6 30.2246 408.684 31.6982 408.684 32.728C408.684 38.0945 408.429 41.2013 407.915 42.0541Z" fill="#484848"/>
</svg>
