<svg width="416" height="113" viewBox="0 0 416 113" fill="none" xmlns="http://www.w3.org/2000/svg">
<path fill-rule="evenodd" clip-rule="evenodd" d="M193.919 29.8804C198.708 30.0624 203.538 29.497 208.259 28.6238C202.363 32.5025 196.797 37.0814 193.001 43.1055C191.965 44.8649 191 46.8165 190.964 48.9407C191.049 52.3161 194.077 52.1956 196.238 50.6838C201.44 47.038 204.937 40.2091 207.522 34.5563C208.248 32.9003 208.987 31.148 209.622 29.3954C209.731 29.3224 209.84 29.2495 209.95 29.1768C208.918 33.4905 208.261 37.9111 208.298 42.3561C208.37 46.2039 208.787 50.3189 210.811 53.7138C212.02 55.8185 214.611 57.3335 216.323 54.8411C218.487 51.2051 217.16 45.2558 216.147 41.395C215.806 40.1546 215.414 38.9344 214.985 37.7289C216.639 41.0037 218.456 44.1937 220.569 47.2107C221.687 48.7583 222.848 50.3124 224.354 51.5472C225.582 52.6224 227.329 52.782 227.313 50.749C227.116 48.6306 226.072 46.7438 225.065 44.9241C224.97 44.754 224.877 44.5844 224.784 44.4153C221.792 39.382 218.076 34.8406 214.079 30.5811C214.051 30.2979 213.988 30.0177 213.897 29.7418C215.111 30.5763 216.554 31.1235 217.967 31.3436C218.995 31.5206 220.01 31.5426 221.011 31.4503C222.25 31.8624 223.495 32.2541 224.745 32.6209L225.059 32.7086C228.59 33.6964 236.878 36.0142 239.767 34.5921C240.028 34.4324 240.286 34.1718 240.348 33.8166C240.527 32.4622 238.545 31.6054 237.342 31.085C237.214 31.0296 237.094 30.978 236.987 30.93C234.494 29.9625 231.906 29.3108 229.293 28.8026L229.48 28.7191L229.481 28.719C229.986 28.4939 230.488 28.2707 230.985 28.0562C234.417 26.6292 238.149 25.5409 241.851 26.0329C244.14 26.3457 246.444 27.3068 247.826 29.1965C249.073 30.9053 249.036 32.9888 248.998 35.0752L248.998 35.0786C248.993 35.3739 248.988 35.6692 248.986 35.9636C248.967 37.547 249.048 39.3846 249.827 40.8996C250.877 43.0434 253.468 44.3108 255.766 43.9035L255.756 43.7406C253.341 43.6103 251.124 41.9748 250.668 39.5898C250.389 38.203 250.494 36.8484 250.6 35.4746C250.684 34.3761 250.77 33.2652 250.662 32.1158C250.525 29.2324 248.497 26.7595 245.893 25.655C241.399 23.5874 236.604 25.3895 232.248 27.0269L232.248 27.027C231.758 27.2111 231.273 27.3932 230.796 27.5675C229.884 27.8846 228.893 28.2195 227.856 28.537C227.126 28.4084 226.395 28.2885 225.664 28.1736C222.644 27.7143 219.607 27.4138 216.563 27.2202C218.408 26.7881 220.231 26.263 222.017 25.6291C226.557 23.974 231.14 21.6086 234.034 17.5947C235.889 15.0794 236.599 10.9156 233.043 9.52437C227.892 7.94303 221.87 12.9107 217.708 17.4907C219.435 13.4813 220.48 9.0659 219.311 4.75773C218.259 0.779602 214.207 -1.778 210.837 1.49638C207.229 5.36374 207.493 11.9777 208.07 16.8811C208.418 19.5844 209.003 22.2528 209.725 24.8784C209.618 24.803 209.509 24.7293 209.399 24.6572C207.945 21.0456 206.252 17.5271 204.22 14.1997C202.356 11.1306 197.092 3.74126 192.943 5.19763C190.231 6.70938 192.076 10.9579 193.259 12.991C195.553 16.7835 198.661 19.9294 202.124 22.6623C201.773 22.6868 201.422 22.7295 201.074 22.7914C200.439 22.9009 199.83 23.0944 199.251 23.3549C195.41 22.2777 191.488 21.5357 187.493 21.3773C185.316 21.361 180.495 21.4978 180.006 24.2313C179.912 26.9844 184.371 28.3821 186.564 28.9425C188.777 29.4453 191.016 29.7328 193.265 29.8508C192.825 30.6591 192.411 31.4825 191.998 32.3048L191.998 32.3058C191.544 33.2091 191.091 34.111 190.604 34.9897C187.283 40.8575 183.916 45.572 176.609 45.9629L176.605 45.9597L176.592 46.1226C180.983 47.1098 185.813 44.8389 188.303 41.1605C189.539 39.3734 190.355 37.3988 191.169 35.4293C191.961 33.5159 192.75 31.6074 193.919 29.8804ZM224.017 29.5353C220.978 29.1814 217.918 28.9492 214.853 28.8136C216.075 29.2203 217.302 29.6156 218.533 29.9966C220.27 30.1291 222.152 29.9179 224.017 29.5353ZM222.632 31.2054C223.408 31.4225 224.185 31.6328 224.963 31.8357L225.262 31.9082L225.679 32.0095C229.715 32.9917 233.846 33.9969 238.001 33.7938C238.367 33.7548 238.733 33.7076 239.033 33.5655C236.843 31.6099 230.516 30.4645 226.745 29.8989C225.402 30.4412 224.031 30.9157 222.632 31.2054ZM211.106 25.281C215.006 19.9707 218.576 13.5467 218.102 6.96672C217.519 0.906668 212.389 -0.745183 210.094 5.57225C208.095 11.5063 209.316 18.9507 210.907 25.2593L210.9 25.2086L211.057 25.1695L211.06 25.1663C211.075 25.2047 211.09 25.243 211.106 25.281ZM209.729 42.3528C209.734 38.2109 210.329 34.0734 211.212 30.0203C211.308 30.1171 211.403 30.214 211.499 30.3111C212.068 31.6826 212.635 33.0729 213.106 34.3901C214.778 39.1045 216.238 43.9851 216.368 49.0059C216.381 50.2342 216.303 51.4722 215.993 52.6126C215.606 54.1373 214.533 55.7501 212.982 54.3459C210.218 51.6058 209.774 46.1192 209.729 42.3528ZM228.513 20.5758C223.735 23.6826 218.197 25.2586 212.576 26.243C213.526 24.9543 214.42 23.6211 215.249 22.2486C219.54 16.8049 225.157 11.2768 230.82 10.7071C233.711 10.5604 234.653 12.701 233.623 15.0729C232.597 17.4089 230.608 19.1618 228.513 20.5758ZM194.57 28.9772C196.409 26.5543 198.382 24.9894 200.682 24.4634C203.209 25.2947 205.694 26.2692 208.136 27.3042C203.672 28.2451 199.114 28.9456 194.57 28.9772ZM195.422 26.4926C196.238 25.425 197.265 24.4607 198.447 23.7702C194.87 22.7321 191.214 22.0234 187.483 21.8725C185.489 21.8497 183.373 21.9409 181.607 22.9118C180.538 23.5015 180.156 24.5539 180.961 25.5215C182.405 27.1506 184.648 27.7924 186.717 28.2779C189.049 28.7372 191.401 28.9499 193.758 28.9756C194.259 28.1163 194.802 27.2817 195.422 26.4926ZM204.62 24.5238C203.795 24.3346 203.011 24.2512 202.261 24.2686C203.627 24.7131 204.983 25.1925 206.327 25.6953C205.753 25.3129 205.183 24.9227 204.62 24.5238ZM209.171 29.6992C203.436 33.5789 197.948 38.0074 194.191 43.8288C193.288 45.308 191.421 48.7615 192.692 50.2342C194.282 51.2801 197.382 48.4162 198.503 47.2596C202.516 43.011 205.348 37.7948 207.877 32.5591C208.286 31.6932 208.731 30.6913 209.171 29.6992ZM212.321 31.156C213.878 34.2967 215.536 37.4044 217.32 40.4045C219.23 43.5681 221.241 46.722 223.783 49.4001C223.829 49.4439 223.876 49.4887 223.923 49.5341L224.017 49.6251L224.086 49.6923L224.086 49.6924C224.669 50.2607 225.31 50.8865 226.039 51.0791C226.033 47.8846 221.373 41.7193 219.331 39.1013C217.136 36.3435 214.778 33.7027 212.321 31.156ZM208.292 24.0093C206.115 18.3336 203.383 12.8053 199.152 8.41336C197.711 7.02216 195.25 4.91743 193.164 5.67331C190.899 6.98306 192.796 10.9742 193.833 12.6554C196.449 16.6975 200.039 19.934 203.98 22.6973C205.479 22.8546 206.953 23.3155 208.292 24.0093ZM167.886 111.32C167.828 111.108 167.146 109.614 165.834 106.844L162.842 100.343C159.708 93.5932 157.682 89.4189 156.774 87.8206L156.26 86.9155C156.202 86.988 156.104 87.0954 155.961 87.2346C155.819 87.3767 155.578 87.6088 155.236 87.9279C154.551 88.7111 153.982 89.3145 153.527 89.7409L152.331 90.9651V109.936C152.331 110.54 152.247 110.958 152.076 111.19C151.904 111.419 151.533 111.535 150.964 111.535C150.395 111.535 150.009 111.41 149.809 111.161C149.609 110.911 149.51 110.467 149.51 109.829V93.7354C149.51 91.641 149.594 88.2296 149.766 83.5042L149.937 73.2729C149.937 72.6 149.992 71.9763 150.108 71.4077C150.279 70.9813 150.593 70.7666 151.048 70.7666C151.904 70.7666 152.415 70.8914 152.586 71.1408C152.813 71.3903 152.929 72.0285 152.929 73.0583L152.758 81.9029L152.586 88.3514H152.671C153.753 86.8604 155.291 84.621 157.288 81.636L160.451 76.6785C163.643 71.7413 165.666 69.2727 166.519 69.2727C166.916 69.2727 167.259 69.3452 167.546 69.4845C167.83 69.6266 167.973 69.8239 167.973 70.0704C167.801 70.7463 167.346 71.457 166.606 72.2025L165.75 73.1627C164.78 74.5841 163.356 76.7162 161.475 79.5561C159.194 83.0023 157.97 84.8153 157.798 84.9923C157.74 85.2417 157.769 85.4535 157.882 85.6334C159.023 87.4464 160.303 89.6829 161.728 92.3488C163.152 95.0117 164.319 97.3237 165.233 99.2759C165.93 100.808 166.632 102.357 167.342 103.925L168.182 105.777C169.177 107.978 169.876 109.559 170.277 110.52C170.39 110.734 170.448 110.856 170.448 110.894C170.448 111.143 170.291 111.338 169.978 111.48C169.665 111.622 169.308 111.694 168.91 111.694C168.396 111.694 168.054 111.57 167.886 111.32ZM1.70927 110.041C1.70927 110.363 1.83986 110.63 2.09524 110.842H2.08943C2.34771 111.053 2.67273 111.161 3.07321 111.161C6.49175 111.161 8.80174 111.143 9.99736 111.108H10.6822L11.28 111.056C11.6225 111.056 11.8778 110.958 12.0491 110.763C12.2203 110.569 12.3044 110.328 12.3044 110.044C12.3044 109.403 11.933 109.084 11.193 109.084H5.89394C5.20907 109.084 4.83762 109.066 4.78248 109.031C4.61126 109.031 4.5271 108.979 4.5271 108.872L4.01345 102.264C3.67102 98.8901 3.4998 96.4534 3.4998 94.9624L3.07321 85.4245C2.90199 82.1553 2.81783 77.2355 2.81783 70.6622C2.81783 70.1284 2.30708 69.8616 1.27978 69.8616C0.940245 69.8616 0.638438 69.9225 0.383063 70.0472C0.127688 70.172 0 70.3228 0 70.4997C0 72.9509 0.171217 76.664 0.513652 81.636C0.798047 87.1418 0.940245 90.8548 0.940245 92.7723C0.940245 94.8348 1.05342 97.3556 1.28268 100.341C1.56707 103.149 1.70927 105.669 1.70927 107.909V110.041ZM23.0795 110.36C23.2507 110.325 23.48 110.308 23.7644 110.308L23.7673 110.302C23.9936 110.659 24.7626 110.836 26.0743 110.836C26.4168 110.836 26.9275 110.731 27.6124 110.517C28.2944 110.34 28.808 110.25 29.1505 110.25C29.6641 110.25 30.1487 110.267 30.6044 110.302C31.0019 110.374 31.4575 110.409 31.9712 110.409C32.54 110.409 32.9956 110.311 33.338 110.116C33.6805 109.922 33.8517 109.664 33.8517 109.345C33.8517 108.849 33.0246 108.599 31.3734 108.599H30.0907C29.7483 108.634 29.3217 108.651 28.808 108.651C27.5544 108.651 26.9275 108.471 26.9275 108.118L27.0117 108.01C26.8405 107.833 26.7563 107.337 26.7563 106.519C26.7563 106.128 26.7824 105.809 26.8405 105.559V104.866C26.8405 103.552 26.7563 101.597 26.5851 99.0032C26.3558 96.7318 26.2427 94.7941 26.2427 93.1957L26.4139 86.8545C26.469 84.9719 26.498 82.8572 26.498 80.5133C26.498 78.9527 26.4139 78.0099 26.2427 77.6908L26.6693 77.5313C27.92 77.5313 28.7471 77.6357 29.1476 77.8503L31.1122 77.743C31.2834 77.5284 31.3676 77.3891 31.3676 77.3166C31.3676 76.9279 30.8568 76.6233 29.8295 76.4115C28.5178 76.1273 27.2061 75.9677 25.8973 75.9329C23.7295 75.7908 21.5647 75.7182 19.3998 75.7182C19.0573 75.7182 18.6307 75.7908 18.1171 75.9329C17.6034 76.075 17.3481 76.2172 17.3481 76.3593C17.3481 76.9627 17.8907 77.2644 18.9732 77.2644C19.3708 77.2644 19.7422 77.247 20.0846 77.2122L21.0249 77.16C22.2234 77.16 23.0766 77.2122 23.5902 77.3195C23.8746 78.7409 24.0168 80.8005 24.0168 83.5012L23.8456 89.6828C23.6744 92.4531 23.5902 94.5301 23.5902 95.9167L23.7615 99.8067L23.9327 101.779C24.1039 103.485 24.1881 105.42 24.1881 107.587L24.1039 108.228L23.9327 108.706L23.5902 108.918H21.1119L20.6854 109.185C20.2268 109.365 20.0005 109.577 20.0005 109.826C20.3429 110.183 21.141 110.36 22.3946 110.36H23.0795ZM47.3578 110.096L47.2736 108.123C47.2156 107.555 47.1895 106.917 47.1895 106.206C47.1895 105.852 47.2185 105.547 47.2736 105.301L47.3578 104.341C47.3578 103.987 47.2417 103.56 47.0154 103.061C47.0154 100.683 46.7281 96.259 46.1593 89.7931C45.5876 83.5418 45.2742 79.295 45.219 77.0585C41.6844 77.0585 39.3193 77.0062 38.1237 76.8989C36.9832 76.722 36.4144 76.4377 36.4144 76.0461C36.6988 75.6545 37.2386 75.4601 38.0395 75.4601C39.7488 75.4601 42.2271 75.5326 45.4773 75.6719C48.4402 75.8517 50.9185 75.9387 52.9151 75.9387H54.7114L56.5078 75.8865C57.5322 75.8865 58.0458 76.1186 58.0458 76.5798C58.0458 76.7945 57.8601 76.9627 57.4916 77.0875C57.1201 77.2122 56.679 77.2731 56.1653 77.2731C55.0249 77.2731 53.8292 77.2383 52.5756 77.1658L48.8988 77.0585C48.6695 77.0585 48.5563 77.1107 48.5563 77.218C48.4983 77.3253 48.4722 77.6618 48.4722 78.2304C48.4722 81.6766 48.8146 86.898 49.4966 93.8977C50.1234 101.144 50.4368 106.351 50.4368 109.51C50.4368 109.759 50.193 109.989 49.7113 110.203C49.2267 110.415 48.7566 110.522 48.3009 110.522L47.3607 110.096H47.3578ZM72.6604 108.123L72.7445 110.096H72.7503L73.6906 110.522C74.1462 110.522 74.6163 110.415 75.101 110.203C75.5827 109.989 75.8264 109.759 75.8264 109.51C75.8264 106.351 75.513 101.144 74.8862 93.8977C74.2013 86.898 73.8589 81.6766 73.8589 78.2304C73.8589 77.6618 73.885 77.3253 73.9431 77.218C73.9431 77.1107 74.0562 77.0585 74.2855 77.0585L77.9623 77.1658C79.216 77.2383 80.4116 77.2731 81.5521 77.2731C82.0628 77.2731 82.5039 77.2122 82.8754 77.0875C83.2468 76.9627 83.4326 76.7945 83.4326 76.5798C83.4326 76.1186 82.9218 75.8865 81.8945 75.8865L80.0982 75.9387H78.3018C76.3053 75.9387 73.827 75.8517 70.864 75.6719C67.6138 75.5326 65.1355 75.4601 63.4262 75.4601C62.6253 75.4601 62.0855 75.6545 61.8011 76.0461C61.8011 76.4377 62.3699 76.722 63.5104 76.8989C64.706 77.0062 67.0711 77.0585 70.6058 77.0585C70.6609 79.295 70.9772 83.5418 71.546 89.7931C72.1177 96.259 72.4021 100.683 72.4021 103.061C72.6285 103.56 72.7445 103.987 72.7445 104.341L72.6604 105.301C72.6052 105.547 72.5762 105.852 72.5762 106.206C72.5762 106.917 72.6023 107.555 72.6604 108.123ZM92.5767 110.308C92.6899 110.096 92.748 109.507 92.748 108.55C92.748 105.281 92.8321 100.433 93.0033 94.0023C93.1746 87.6088 93.2587 82.9907 93.2587 80.1479L93.4299 78.2305L93.6853 76.6321C93.6853 76.3826 93.8855 76.2579 94.2831 76.2579C94.5675 76.2579 94.968 76.3101 95.4787 76.4174L95.7341 76.4697C95.7341 77.2529 95.7051 77.9607 95.65 78.6018V86.4891C95.7051 88.1948 95.7341 90.1296 95.7341 92.2966C95.6761 92.4735 95.65 92.8651 95.65 93.4685L95.5658 94.5882C95.5078 95.2989 95.4816 96.027 95.4816 96.7725C95.4816 97.5906 95.5107 98.3361 95.5658 99.012L95.65 101.304L95.3946 101.73L95.4787 101.678C95.4787 101.785 95.4497 101.858 95.3946 101.892V102.104C95.3946 102.389 95.4787 102.638 95.65 102.85L95.3946 107.967V108.286C95.3946 108.889 95.4236 109.246 95.4787 109.351C95.4787 109.53 95.6209 109.617 95.9053 109.617L100.351 109.725C101.663 109.725 102.56 109.733 103.044 109.751C103.529 109.768 103.828 109.777 103.941 109.777H104.196C104.481 109.777 104.765 109.876 105.052 110.07C105.337 110.264 105.479 110.47 105.479 110.682C105.479 111.108 105.023 111.338 104.112 111.375C103.143 111.34 100.778 111.323 97.0168 111.323L97.188 111.375C96.6192 111.375 96.0765 111.393 95.5629 111.428C95.1073 111.497 94.5936 111.535 94.0248 111.535C93.2268 111.535 92.7422 111.126 92.5709 110.311L92.5767 110.308ZM113.691 109.722V110.415C113.804 111.161 114.376 111.535 115.4 111.535H122.409C124.916 111.535 126.17 111.216 126.17 110.575C126.17 110.113 125.343 109.881 123.691 109.881C123.065 109.881 122.496 109.899 121.982 109.934L120.444 109.986C119.077 109.986 118.137 109.852 117.623 109.585C117.11 109.319 116.822 108.779 116.767 107.961C116.596 106.505 116.512 105.083 116.512 103.697L116.596 99.9141C116.651 98.777 116.68 97.518 116.68 96.1314C116.68 93.9297 116.622 92.5257 116.509 91.9223V91.7628L116.936 91.4959H117.362L120.099 91.7628C120.554 92.0471 121.21 92.1892 122.066 92.1892C122.635 92.1892 123.065 92.0557 123.349 91.7889C123.633 91.522 123.776 91.1942 123.776 90.8026C123.776 90.1615 122.664 89.8424 120.441 89.8424C119.927 89.8424 119.443 89.8598 118.987 89.8946L117.62 89.9468C116.822 89.9468 116.425 89.4508 116.425 88.4558C116.425 86.9271 116.451 85.5434 116.509 84.2989C116.622 83.0922 116.68 81.7259 116.68 80.1972C116.68 78.9904 116.651 78.2246 116.596 77.9055L117.023 77.5864C118.389 77.5864 120.699 77.9258 123.947 78.5988C125.029 78.2449 125.572 77.891 125.572 77.5342C125.572 77.2151 125.029 76.9482 123.947 76.7365C122.919 76.5247 121.695 76.3652 120.27 76.2579C118.732 76.1534 117.905 76.0809 117.792 76.0461C117.452 75.8343 116.994 75.727 116.425 75.727C115.572 75.727 114.942 75.8459 114.544 76.0751C114.147 76.3072 113.946 76.6872 113.946 77.2209C113.946 78.3929 114.002 79.4575 114.118 80.4176L114.289 83.6143C114.289 85.819 114.173 88.4993 113.946 91.6612C113.775 95.2118 113.691 97.8777 113.691 99.653L113.862 103.169C114.034 104.695 114.118 105.869 114.118 106.685C114.118 107.395 113.888 108.123 113.433 108.869L113.775 109.081C113.775 109.33 113.746 109.545 113.691 109.722ZM197.463 109.774C197.631 110.2 197.817 110.519 198.017 110.734L198.014 110.725C198.214 110.937 198.542 111.045 198.998 111.045L199.854 110.885L199.938 110.937V110.885L201.392 110.673C201.961 110 202.562 105.809 203.188 98.0981C203.815 90.3877 204.129 84.8472 204.129 81.4706L204.555 81.0442V77.4733C204.555 77.0845 204.367 76.7277 203.998 76.4087C203.627 76.0896 203.186 75.93 202.672 75.93C201.874 75.93 201.476 76.3042 201.476 77.0497C201.476 77.334 201.502 77.5661 201.56 77.743L201.645 78.3812C201.645 89.8569 200.989 99.5369 199.677 107.424L199.506 107.584C198.026 105.951 196.743 103.624 195.661 100.604C195.318 99.6443 194.863 98.5449 194.294 97.3004C193.496 95.7369 191.473 92.5576 188.226 87.7625C185.034 83.214 182.982 79.6808 182.071 77.1571C182.016 77.0497 181.987 76.9627 181.987 76.8902L181.815 76.5711C181.815 76.3941 181.699 76.2346 181.473 76.0925C181.188 75.9155 180.93 75.8082 180.704 75.7734L179.848 75.8807L179.592 75.7212C178.568 76.2549 178.054 77.392 178.054 79.1325V79.8258C178.054 80.8585 177.97 82.4221 177.799 84.5165C177.628 86.6486 177.544 88.2295 177.544 89.2593C177.544 90.965 177.628 93.5206 177.799 96.932C177.97 100.34 178.054 102.899 178.054 104.605C178.054 105.243 177.996 105.829 177.883 106.363L177.712 108.068C177.712 109.986 178.313 110.946 179.508 110.946C179.964 110.946 180.35 110.839 180.663 110.627C180.977 110.415 181.133 110.166 181.133 109.881C181.133 109.42 181.017 109.046 180.791 108.762V103.967C180.393 103.363 180.193 100.094 180.193 94.1617H180.448L180.277 92.456C180.161 91.8875 180.106 91.2145 180.106 90.4313C180.106 89.97 180.132 89.5436 180.19 89.152L180.274 87.8727L180.19 85.7957C180.135 85.1924 180.106 84.4817 180.106 83.6636C180.106 82.1349 180.335 80.8933 180.791 79.9332C182.103 80.7512 185.324 86.0974 190.452 95.9718L191.136 97.2511C192.106 98.9916 192.646 99.8995 192.762 99.9692L194.3 102.739C195.78 105.156 196.749 107.198 197.205 108.869L197.12 109.028C197.292 109.24 197.405 109.49 197.463 109.774ZM218.83 110.308C218.546 110.308 218.317 110.325 218.145 110.36H217.461C216.207 110.36 215.409 110.183 215.066 109.826C215.066 109.577 215.293 109.365 215.751 109.185L216.178 108.918H218.656L218.999 108.706L219.17 108.228L219.254 107.587C219.254 105.42 219.17 103.485 218.999 101.779L218.827 99.8067L218.656 95.9167C218.656 94.5301 218.74 92.4531 218.912 89.6828L219.083 83.5012C219.083 80.8005 218.941 78.7409 218.656 77.3195C218.143 77.2122 217.289 77.16 216.091 77.16L215.151 77.2122C214.808 77.247 214.437 77.2644 214.039 77.2644C212.957 77.2644 212.414 76.9627 212.414 76.3593C212.414 76.2172 212.669 76.075 213.183 75.9329C213.697 75.7908 214.123 75.7182 214.466 75.7182C216.631 75.7182 218.796 75.7908 220.963 75.9329C222.272 75.9677 223.584 76.1273 224.895 76.4115C225.923 76.6233 226.434 76.9279 226.434 77.3166C226.434 77.3891 226.349 77.5284 226.178 77.743L224.214 77.8503C223.813 77.6357 222.986 77.5313 221.735 77.5313L221.309 77.6908C221.48 78.0099 221.564 78.9527 221.564 80.5133C221.564 82.8572 221.535 84.9719 221.48 86.8545L221.309 93.1957C221.309 94.7941 221.422 96.7318 221.651 99.0032C221.822 101.597 221.906 103.552 221.906 104.866V105.559C221.848 105.809 221.822 106.128 221.822 106.519C221.822 107.337 221.906 107.833 222.078 108.01L221.993 108.118C221.993 108.471 222.62 108.651 223.874 108.651C224.388 108.651 224.814 108.634 225.157 108.599H226.439C228.091 108.599 228.918 108.849 228.918 109.345C228.918 109.664 228.746 109.922 228.404 110.116C228.062 110.311 227.606 110.409 227.037 110.409C226.523 110.409 226.068 110.374 225.67 110.302C225.215 110.267 224.73 110.25 224.216 110.25C223.874 110.25 223.36 110.34 222.678 110.517C221.993 110.731 221.483 110.836 221.14 110.836C219.829 110.836 219.06 110.659 218.833 110.302L218.83 110.308ZM242.342 108.123L242.426 110.096H242.432L243.373 110.522C243.828 110.522 244.298 110.415 244.783 110.203C245.265 109.989 245.508 109.759 245.508 109.51C245.508 106.351 245.195 101.144 244.568 93.8977C243.883 86.898 243.541 81.6766 243.541 78.2304C243.541 77.6618 243.567 77.3253 243.625 77.218C243.625 77.1107 243.738 77.0585 243.967 77.0585L247.644 77.1658C248.898 77.2383 250.094 77.2731 251.234 77.2731C251.748 77.2731 252.189 77.2122 252.56 77.0875C252.929 76.9627 253.115 76.7945 253.115 76.5798C253.115 76.1186 252.604 75.8865 251.576 75.8865L249.78 75.9387H247.984C245.987 75.9387 243.509 75.8517 240.546 75.6719C237.296 75.5326 234.817 75.4601 233.108 75.4601C232.307 75.4601 231.767 75.6545 231.483 76.0461C231.483 76.4377 232.052 76.722 233.192 76.8989C234.391 77.0062 236.753 77.0585 240.288 77.0585C240.343 79.295 240.659 83.5418 241.228 89.7931C241.797 96.259 242.084 100.683 242.084 103.061C242.31 103.56 242.426 103.987 242.426 104.341L242.342 105.301C242.287 105.547 242.258 105.852 242.258 106.206C242.258 106.917 242.284 107.555 242.342 108.123ZM261.316 111.027C260.747 110.798 260.431 110.52 260.376 110.2L260.802 109.774C261.028 109.774 261.542 109.826 262.34 109.934C262.967 110.076 263.481 110.145 263.878 110.145C265.132 110.145 266.243 109.835 267.213 109.214C268.182 108.593 268.922 107.784 269.436 106.789C270.234 104.941 270.631 103.201 270.631 101.568C270.631 99.1164 269.436 96.4883 267.041 93.6803C265.558 92.0471 264.418 90.7504 263.623 89.7902C262.825 88.8301 262.111 87.7307 261.487 86.4862C260.747 85.03 260.376 83.626 260.376 82.2771C260.376 80.9978 260.889 79.4894 261.914 77.7489C262.427 76.9309 263.153 76.2666 264.093 75.7502C265.033 75.2339 266.043 74.9786 267.128 74.9786C267.868 74.9786 268.594 75.1382 269.308 75.4573C270.019 75.7764 270.376 76.1158 270.376 76.4697C270.376 76.7539 270.004 76.8961 269.264 76.8961C269.035 76.8961 268.751 76.8439 268.408 76.7365C268.066 76.6292 267.752 76.577 267.468 76.577C266.612 76.577 265.843 76.7916 265.161 77.2181C264.479 77.6445 263.965 78.1956 263.623 78.8715C262.938 80.1856 262.596 81.3953 262.596 82.4947C262.596 83.1706 262.738 83.8639 263.022 84.5746C263.077 84.7863 263.135 84.9662 263.193 85.1083C263.249 85.2505 263.277 85.3578 263.277 85.4274L263.791 86.492L264.218 87.4522L264.903 88.4123C265.074 88.6618 265.257 88.8823 265.46 89.0766C265.66 89.2739 265.846 89.4595 266.014 89.6365L267.041 90.7562C267.268 90.968 267.752 91.4756 268.495 92.2763C269.235 93.074 269.92 93.921 270.547 94.8058C271.116 95.5513 271.542 96.2533 271.83 96.9118C272.114 97.5703 272.369 98.3593 272.599 99.2846C272.77 100.172 272.854 101.15 272.854 102.214C272.854 103.92 272.483 105.519 271.743 107.01C270.715 108.785 269.235 110.029 267.297 110.74C266.214 111.166 264.961 111.378 263.536 111.378L263.109 111.486C262.482 111.413 261.882 111.262 261.313 111.033L261.316 111.027ZM269.949 76.7365C269.949 76.7017 269.92 76.6814 269.865 76.6814V76.7365H269.949ZM297.387 111.59C298.014 111.767 298.597 111.883 299.14 111.935H299.146C299.685 111.99 300.472 112.016 301.496 112.016C303.206 112.016 304.773 111.697 306.198 111.056C307.619 110.418 308.76 109.583 309.616 108.553C311.325 106.421 312.181 104.323 312.181 102.264C312.181 100.738 311.868 99.1395 311.241 97.4687C310.786 96.2271 310.228 95.1074 309.575 94.1124C308.92 93.1203 307.994 91.8585 306.798 90.3297L305.942 89.21L302.95 85.32C301.981 84.0407 301.212 82.6628 300.643 81.1892C300.071 79.7156 299.787 78.2855 299.787 76.8989C299.787 76.0113 299.984 75.1932 300.385 74.4477C300.84 73.563 301.566 72.8146 302.564 72.2112C303.56 71.6078 304.715 71.3061 306.026 71.3061C306.482 71.3061 306.967 71.396 307.48 71.573C308.049 71.7528 308.505 71.8399 308.847 71.8399C309.189 71.8399 309.361 71.6977 309.361 71.4135C309.361 71.0944 308.876 70.7666 307.907 70.4272C306.938 70.0878 306.113 69.9195 305.428 69.9195C303.661 69.9195 302.065 70.3285 300.64 71.1466C299.328 71.9269 298.374 72.861 297.776 73.943C297.178 75.025 296.879 76.1534 296.879 77.3253C296.879 79.1732 297.277 80.8962 298.075 82.4946C298.644 83.7042 299.299 84.8037 300.039 85.7986C300.78 86.7936 301.862 88.1802 303.287 89.9555C303.972 90.7358 304.456 91.3218 304.741 91.7134C306.052 93.277 307.106 94.9479 307.904 96.7232C308.699 98.5014 309.099 100.259 309.099 102C309.099 103.563 308.531 105.356 307.39 107.381C306.819 108.411 306.006 109.243 304.953 109.884C303.896 110.525 302.744 110.844 301.49 110.844C300.864 110.844 300.095 110.702 299.183 110.418C298.214 110.168 297.416 110.044 296.789 110.044C296.162 110.044 295.849 110.258 295.849 110.685C296.191 111.074 296.702 111.375 297.387 111.59ZM329.358 110.096L329.274 108.123C329.216 107.555 329.19 106.917 329.19 106.206C329.19 105.852 329.219 105.547 329.274 105.301L329.358 104.341C329.358 103.987 329.242 103.56 329.016 103.061C329.016 100.683 328.731 96.259 328.16 89.7931C327.588 83.5418 327.275 79.295 327.219 77.0585C323.685 77.0585 321.32 77.0062 320.124 76.8989C318.984 76.722 318.415 76.4377 318.415 76.0461C318.699 75.6545 319.239 75.4601 320.04 75.4601C321.749 75.4601 324.227 75.5326 327.478 75.6719C330.441 75.8517 332.919 75.9387 334.915 75.9387H336.712L338.508 75.8865C339.535 75.8865 340.046 76.1186 340.046 76.5798C340.046 76.7945 339.861 76.9627 339.492 77.0875C339.12 77.2122 338.679 77.2731 338.166 77.2731C337.025 77.2731 335.83 77.2383 334.576 77.1658L330.899 77.0585C330.67 77.0585 330.557 77.1107 330.557 77.218C330.499 77.3253 330.473 77.6618 330.473 78.2304C330.473 81.6766 330.815 86.898 331.5 93.8977C332.127 101.144 332.44 106.351 332.44 109.51C332.44 109.759 332.196 109.989 331.715 110.203C331.23 110.415 330.76 110.522 330.304 110.522L329.364 110.096H329.358ZM347.992 90.3792V92.2444L347.989 92.2473C347.989 105.321 351.321 111.857 357.99 111.857C359.301 111.857 360.413 111.642 361.324 111.216C362.29 110.789 363.103 110.259 363.759 109.617C364.415 108.976 364.998 108.179 365.512 107.218C366.31 105.617 366.878 103.72 367.221 101.515C367.447 100.059 367.563 98.4261 367.563 96.6131L367.479 93.4163C367.424 92.491 367.395 91.4438 367.395 90.2718L367.566 90.005C367.566 87.8003 367.267 85.6537 366.669 83.5564C366.072 81.462 365.172 79.7738 363.976 78.4945C362.894 77.2529 361.812 76.5596 360.729 76.4175C358.962 76.3131 357.165 76.0636 355.343 75.672C354.832 75.5647 354.432 75.5124 354.147 75.5124C350.044 75.5124 347.992 80.467 347.992 90.3792ZM364.577 101.304C364.348 103.363 363.692 105.388 362.61 107.378H362.604C361.521 109.33 359.87 110.308 357.647 110.308C356.507 110.308 355.511 109.881 354.655 109.029C353.802 108.245 353.146 107.305 352.691 106.203C352.235 105.104 351.837 103.752 351.495 102.154C351.036 99.9867 350.81 98.0693 350.81 96.3984L350.726 94.2663C350.671 93.66 350.642 92.9696 350.642 92.1864L350.813 89.683C350.984 88.5488 351.068 87.7133 351.068 87.1796C351.411 86.2223 351.582 84.4267 351.582 81.7985C351.695 80.8036 351.808 80.0406 351.924 79.5069C352.438 77.9462 354.002 77.163 356.626 77.163C358.619 77.163 360.317 77.7316 361.713 78.8687C363.109 80.0058 363.808 81.3547 363.808 82.9183L363.637 83.1851L363.979 83.6115C363.979 84.7139 364.119 86.8112 364.406 89.9005C364.748 92.6737 364.92 94.7681 364.92 96.1895C364.92 97.4659 364.803 99.1716 364.577 101.304ZM391.76 111.48C391.076 111.018 390.336 109.794 389.537 107.804C388.739 105.814 387.999 103.578 387.315 101.089C386.859 99.0641 386.203 97.0567 385.347 95.0668C384.662 93.2915 384.006 92.4038 383.382 92.4038H383.127C381.873 92.4038 381.246 92.6533 381.246 93.1493C381.246 95.7078 381.473 99.5978 381.931 104.819C382.158 108.016 382.416 109.881 382.7 110.415L382.016 111.32H380.82L380.135 110.894C379.224 94.4808 378.768 83.2894 378.768 77.3224C378.768 76.9308 378.812 76.6117 378.896 76.3622C378.98 76.1128 379.166 75.8836 379.453 75.6689C379.679 75.4195 380.08 75.2947 380.649 75.2947C383.556 75.2947 385.893 75.7386 387.66 76.6262C389.424 77.5139 390.309 78.7931 390.309 80.464V84.354C390.309 85.0299 389.952 85.935 389.241 87.0721C388.528 88.2092 387.744 89.2564 386.891 90.2166L385.779 91.5481C386.406 93.3611 387.645 96.6187 389.497 101.327C391.348 106.035 392.361 108.529 392.532 108.814C392.587 108.849 392.66 108.939 392.747 109.081C392.831 109.223 393.017 109.435 393.304 109.722C393.702 110.218 393.902 110.647 393.902 111.001C393.902 111.497 393.589 111.747 392.962 111.747L391.766 111.48H391.76ZM384.581 90.057C385.437 89.384 386.119 88.5109 386.633 87.4463C387.544 85.2794 387.999 83.5563 387.999 82.277C387.999 81.4619 387.927 80.786 387.785 80.2523C387.642 79.7185 387.399 79.1528 387.059 78.5466C386.374 77.3021 384.752 76.6813 382.187 76.6813C381.899 76.6813 381.673 76.8322 381.502 77.1339C381.331 77.4355 381.246 77.7459 381.246 78.065C381.246 80.4466 381.302 82.5961 381.418 84.5136C381.473 86.431 381.502 88.5805 381.502 90.9621L381.673 91.0694C382.755 91.0694 383.725 90.7329 384.581 90.057ZM407.915 111.053C407.973 111.161 408.141 111.285 408.429 111.428L408.423 111.422C408.707 111.564 408.936 111.636 409.108 111.636C410.306 111.636 410.904 110.43 410.904 108.013V103.537C410.849 102.296 410.82 100.892 410.82 99.3283C410.82 98.6524 410.704 97.8372 410.477 96.8771C410.248 95.4557 410.135 94.655 410.135 94.4781C410.135 94.2634 410.219 93.9965 410.39 93.6775C410.562 93.3584 410.646 93.1118 410.646 92.9319C410.646 92.6854 410.503 92.3837 410.219 92.0269C410.219 90.6055 410.562 88.9897 411.246 87.1767C411.815 85.6509 412.526 84.0148 413.382 82.2743C415.092 78.6135 415.948 76.5191 415.948 75.9853C415.948 75.8432 415.832 75.7184 415.605 75.6111C415.376 75.5038 415.121 75.4516 414.836 75.4516C414.093 75.4516 413.353 76.4465 412.613 78.4365C411.931 80.1422 411.217 82.2395 410.477 84.7255C409.795 86.8924 409.224 88.1543 408.768 88.5082L408.939 88.775L408.597 89.7352C408.138 89.6627 407.401 88.5285 406.374 86.3239L405.35 84.2991C404.668 82.7732 403.899 81.2271 403.042 79.6636C401.96 77.4589 401.133 76.3247 400.564 76.2522L399.369 76.8382C399.54 77.4444 399.795 78.1 400.138 78.8107C400.762 80.3046 402.102 82.7384 404.154 86.1121C404.839 87.3217 405.524 88.5111 406.206 89.683C406.888 90.8549 407.401 91.6904 407.744 92.1864L407.488 92.8275L408.002 93.5208L408.429 97.3035C408.6 99.2238 408.684 100.697 408.684 101.727C408.684 107.094 408.429 110.201 407.915 111.053ZM113.19 36.9932V26.0069H121.404V26.5869H114.383V31.0765H120.508V31.6564H114.383V36.4133H121.404V36.9932H113.19ZM123.147 28.7536C123.147 30.5749 125.142 31.3145 127.388 31.9726L127.391 31.9693C128.835 32.3962 130.657 32.9761 130.657 34.4357C130.657 35.6771 129.369 36.6024 127.469 36.6024C125.458 36.6024 124.187 35.5532 124.187 33.9666H122.994C122.994 35.8497 124.721 37.0911 127.329 37.0911C129.936 37.0911 131.71 35.866 131.71 34.061C131.71 32.1127 129.604 31.3764 127.86 30.8583C125.898 30.2751 124.216 29.7571 124.216 28.4083C124.216 27.2614 125.393 26.398 127.137 26.398C129.053 26.398 130.246 27.4504 130.246 29.0371H131.439C131.439 27.1539 129.725 25.9126 127.277 25.9126C124.829 25.9126 123.147 27.0724 123.147 28.7536ZM138.177 26.5869V36.9965H136.997V26.5869H132.6V26.0069H142.574V26.5869H138.177ZM149.187 26.0069H144.663V26.0102V36.9997H149.187C152.547 36.9997 154.777 34.8005 154.777 31.5033C154.777 28.2061 152.547 26.0069 149.187 26.0069ZM153.555 31.5033C153.555 34.4551 151.811 36.4165 149.187 36.4165V36.4198H145.856V26.5901H149.187C151.811 26.5901 153.555 28.5515 153.555 31.5033ZM270.968 37.0099V36.4463L271.218 36.2554C274.434 33.7983 277.389 31.5411 277.386 28.9526C277.386 27.4442 276.362 26.3625 274.778 26.3625C273.194 26.3625 272.125 27.48 272.125 29.1742H271.027C271.027 27.2128 272.549 25.9226 274.795 25.9226C277.057 25.9226 278.517 27.2226 278.52 29.0276C278.52 31.696 275.319 33.9766 272.337 36.0032H278.807V37.0034L270.971 37.0099H270.968ZM289.674 31.5035C289.671 28.1412 287.878 25.9159 285.192 25.9159C282.523 25.9191 280.737 28.1509 280.737 31.51C280.74 34.8691 282.533 37.0944 285.202 37.0944C287.888 37.0944 289.674 34.8626 289.674 31.5035ZM288.51 31.5035C288.51 34.5954 287.194 36.6545 285.215 36.6545C283.22 36.6545 281.881 34.5987 281.881 31.5068C281.881 28.4148 283.214 26.3557 285.209 26.3557C287.187 26.3557 288.51 28.4116 288.51 31.5035ZM294.739 26.0169V26.0006H295.558L295.564 36.9901H294.417L294.41 26.7402L291.724 27.9652L291.503 27.4928L294.736 26.0136L294.739 26.0169ZM305.938 25.9941L298.132 26.0006V27.0008H304.901C303.536 28.7276 301.029 32.4972 301.029 36.9869H302.176C302.092 31.0213 305.938 26.5903 305.938 26.5903V25.9941Z" fill="#484848"/>
</svg>
