<svg width="247" height="28" viewBox="0 0 247 28" fill="none" xmlns="http://www.w3.org/2000/svg">
<path d="M0.00784373 22.6254C3.52154 22.4369 5.14048 20.1642 6.73747 17.3355C7.49287 15.9691 8.07743 14.4864 9.05381 13.2393C9.71517 12.3723 10.6633 11.6467 11.7714 11.4551C13.4107 11.1629 15.166 11.7566 16.3962 12.8247C17.1265 13.4702 18.1358 14.477 18.0246 15.534H17.9462C17.697 14.4094 15.6925 13.1419 14.6864 12.7022C11.9704 11.5022 10.0976 12.377 8.43319 14.7251C7.21233 16.4418 6.8362 18.5622 5.63102 20.3103C4.43366 22.0835 2.11104 23.1782 0 22.7023L0.00627499 22.6238L0.00784373 22.6254Z" fill="black"/>
<path d="M16.221 13.6254C15.8621 14.7987 15.3606 16.008 14.8716 17.1263C13.6288 19.8514 11.9472 23.1434 9.44591 24.9009C8.40685 25.6297 6.9509 25.6878 6.91016 24.0607C6.9274 23.0366 7.39129 22.0958 7.88967 21.2477C9.94585 17.976 13.0818 15.5887 16.3087 13.572L16.3213 14.1296C13.1398 12.2228 9.96466 9.96428 8.01347 6.73036C7.44457 5.75029 6.55753 3.70219 7.86146 2.97342C9.85652 2.27135 12.3876 5.83353 13.284 7.31306C14.5785 9.43812 15.5863 11.7249 16.4216 14.0636L16.0376 14.0196C16.7162 12.9045 17.4387 11.8145 18.2286 10.7684C19.9698 8.44077 23.9129 4.065 27.1429 5.05921C28.8527 5.72987 28.5111 7.73713 27.6194 8.94965C26.2277 10.8847 24.0242 12.0249 21.841 12.8228C19.9792 13.4856 18.0311 13.9018 16.0768 14.1484L16.3119 13.4432C18.8727 16.0049 21.3129 18.7441 23.1716 21.8791C23.6935 22.8324 24.2843 23.8156 24.3878 24.9324C24.3956 25.9124 23.5556 25.8355 22.9647 25.3172C22.2407 24.7219 21.6827 23.9727 21.1452 23.2267C19.7582 21.2414 18.6361 19.1006 17.6174 16.9127C17.2491 16.1258 16.862 15.2432 16.5235 14.4374C16.4216 14.1987 16.2899 13.8814 16.2179 13.627L16.221 13.6254ZM16.2194 13.5469C16.3526 13.7683 16.5266 14.139 16.6426 14.384C17.5453 16.2719 18.517 18.1488 19.5827 19.9456C20.5011 21.4707 21.468 22.9911 22.6905 24.2821C23.0164 24.5915 23.38 25.0015 23.8047 25.0988C23.8016 25.0973 23.7938 25.102 23.7812 25.1083C23.7577 25.1271 23.7671 25.1271 23.775 25.0941C23.775 23.5549 21.5323 20.5801 20.5496 19.3174C18.8978 17.2363 17.0532 15.2934 15.1349 13.4464C18.5577 12.9972 22.0542 12.2841 24.9645 10.3868C25.9722 9.70512 26.9282 8.86013 27.4219 7.73399C27.9171 6.59057 27.4642 5.55867 26.0741 5.62935C22.2281 6.01729 18.4261 11.1737 16.4028 14.2489L16.1583 14.6259L16.0188 14.2034C14.8356 10.7433 13.4157 7.19683 10.847 4.52363C10.1543 3.85297 8.97105 2.83834 7.96803 3.20273C6.87881 3.83412 7.79093 5.75814 8.2893 6.56858C10.2906 9.669 13.4784 11.7862 16.6426 13.5657L17.1174 13.8264C13.8545 15.9295 10.5837 18.2996 8.4617 21.5963C8.02759 22.3094 7.12956 23.9743 7.74078 24.6842C8.50558 25.1884 9.99601 23.8078 10.5351 23.2502C12.4644 21.2021 13.8263 18.6875 15.0424 16.1635C15.417 15.3672 15.8558 14.3322 16.221 13.5469H16.2194Z" fill="black"/>
<path d="M16.2431 13.6719C16.6694 14.4116 17.0972 15.3289 17.442 16.1064C18.0532 17.5121 18.6112 18.9382 19.0186 20.424C19.506 22.2852 20.1439 25.1532 19.1033 26.906C18.2805 28.1075 17.0345 27.3772 16.4531 26.3625C15.4799 24.726 15.2793 22.7423 15.2448 20.8873C15.2244 18.412 15.6491 15.9524 16.2823 13.5698L16.6788 13.9782C12.7968 14.7996 8.71105 15.3132 4.79457 14.4211C3.73984 14.1509 1.59589 13.4771 1.64134 12.1499C1.87642 10.8322 4.19433 10.7662 5.24123 10.7741C9.22979 10.9327 13.0648 12.3039 16.7211 13.8164L16.4139 14.0897C15.8482 12.3039 15.3748 10.4725 15.1351 8.60661C14.8577 6.24282 14.7307 3.05444 16.4656 1.19011C18.0861 -0.388369 20.0342 0.844573 20.5404 2.76231C21.2331 5.32243 20.3084 7.96108 19.1456 10.2149C18.3964 11.6049 17.5031 12.9211 16.5111 14.1415L16.1945 13.463C18.6691 13.5211 21.1438 13.6766 23.5949 14.0504C25.4379 14.341 27.2873 14.6975 29.0394 15.3792C29.5738 15.6195 30.7508 16.0482 30.6552 16.7707C30.6254 16.9419 30.5016 17.0676 30.3762 17.1445C28.9438 17.8513 24.7531 16.6419 23.1529 16.1943C21.0874 15.5865 19.0515 14.8373 17.0549 14.0347C16.8073 13.9373 16.4829 13.8022 16.2447 13.6719H16.2431ZM16.1851 13.6185C16.4421 13.6813 16.8371 13.8227 17.0988 13.9153C19.1221 14.6221 21.1861 15.2739 23.2579 15.8158C25.3079 16.3137 27.4111 16.8634 29.5268 16.7597C29.718 16.7393 29.9092 16.7142 30.0597 16.6309C30.0894 16.6105 30.0753 16.6058 30.0597 16.6545C30.055 16.7048 30.0659 16.7001 30.044 16.6686C28.8811 15.5943 25.1355 15.0226 23.4915 14.7917C20.7958 14.4415 18.0611 14.2986 15.3357 14.286L15.8654 13.6185C17.9952 10.8934 20.216 7.40822 19.959 3.82719C19.6784 0.905827 17.2116 0.10952 16.1083 3.15496C15.005 6.43915 15.9422 10.683 16.8465 13.9562L16.9844 14.4336L16.5393 14.2295C12.9629 12.6368 9.18592 11.173 5.23653 11.0128C4.27739 11.0018 3.26027 11.0458 2.41084 11.5138C1.89679 11.7981 1.71343 12.3054 2.10053 12.7719C2.79481 13.5572 3.87305 13.8666 4.86823 14.1007C8.91635 14.9001 13.0883 14.1494 17.0518 13.2054L16.9248 13.7394C16.3512 16.0734 15.9359 18.478 15.9328 20.8858C15.9547 22.7014 16.1679 25.3463 17.4969 26.6672C18.2429 27.3442 18.7585 26.5667 18.945 25.8317C19.0939 25.282 19.1315 24.6851 19.1252 24.093C19.0625 21.6727 18.3604 19.3199 17.5564 17.0472C17.1599 15.9336 16.6192 14.7116 16.1835 13.6201L16.1851 13.6185Z" fill="black"/>
<path d="M16.5729 12.6006C17.0039 13.7079 18.0335 14.4461 19.1478 14.7524C21.2166 15.3476 24.0454 14.4618 26.0624 13.7581C28.3349 12.9273 30.9176 11.7273 33.3217 12.8362C34.5739 13.3686 35.5487 14.5607 35.6146 15.9507C35.7321 17.1978 35.3763 18.3507 35.6177 19.5538C35.8371 20.7035 36.9028 21.4919 38.0641 21.5547L38.0688 21.6333C36.9639 21.8296 35.718 21.2186 35.2134 20.1852C34.8388 19.4548 34.7996 18.569 34.809 17.8057C34.8153 16.6607 34.936 15.4843 34.2511 14.5435C33.5866 13.6325 32.4786 13.1692 31.3784 13.0184C29.598 12.7812 27.8036 13.3058 26.1533 13.9937C24.2037 14.8372 22.1146 15.9617 19.8938 15.5785C18.3454 15.3366 16.7202 14.2749 16.4961 12.621L16.5713 12.6022L16.5729 12.6006Z" fill="black"/>
<path d="M47.0778 23.7357C46.955 23.6336 46.8922 23.5049 46.8922 23.3497V22.3219C46.8922 21.2423 46.8238 20.0271 46.6871 18.6735C46.5768 17.2345 46.5224 16.0193 46.5224 15.025C46.5224 14.1007 46.454 12.3107 46.3173 9.65657C46.1526 7.25972 46.0703 5.46976 46.0703 4.28812C46.0703 4.20281 46.1317 4.1301 46.2545 4.06997C46.3773 4.00984 46.5224 3.98047 46.6857 3.98047C47.1796 3.98047 47.4252 4.10912 47.4252 4.36643C47.4252 7.5352 47.4657 9.90689 47.548 11.4829L47.7531 16.0808C47.7531 16.7996 47.8354 17.9743 48.0001 19.6006L48.2471 22.7861C48.2471 22.8379 48.2875 22.8631 48.3699 22.8631C48.3964 22.8798 48.575 22.8882 48.9043 22.8882H51.4522C51.808 22.8882 51.9867 23.0421 51.9867 23.3511C51.9867 23.4881 51.9462 23.6042 51.8639 23.6979C51.7815 23.7916 51.6587 23.8391 51.4941 23.8391L51.2066 23.8643H50.8773C50.3024 23.8811 49.1917 23.8895 47.548 23.8895C47.3554 23.8895 47.1992 23.8377 47.075 23.7357H47.0778Z" fill="black"/>
<path d="M57.4992 23.4792C57.3625 23.4792 57.2522 23.4876 57.1699 23.5044H56.8406C56.2378 23.5044 55.8541 23.4191 55.6894 23.2471C55.6894 23.1268 55.7983 23.0247 56.0187 22.938L56.2238 22.8094H57.4155L57.5801 22.7073L57.6625 22.4766L57.7029 22.1675C57.7029 21.1229 57.6625 20.1902 57.5801 19.3679L57.4978 18.417L57.4155 16.5417C57.4155 15.8733 57.456 14.8721 57.5383 13.5366L57.6206 10.5566C57.6206 9.25468 57.5522 8.26182 57.4155 7.5766C57.1685 7.52486 56.7583 7.49969 56.182 7.49969L55.7299 7.52486C55.5652 7.54165 55.3866 7.55003 55.1955 7.55003C54.675 7.55003 54.4141 7.4046 54.4141 7.11373C54.4141 7.04521 54.5369 6.97669 54.7838 6.90817C55.0308 6.83965 55.2359 6.80469 55.4006 6.80469C56.4415 6.80469 57.4825 6.83965 58.5248 6.90817C59.1541 6.92495 59.7848 7.00186 60.4155 7.13891C60.9095 7.24099 61.1551 7.38782 61.1551 7.57521C61.1551 7.61017 61.1146 7.67729 61.0323 7.78077L60.0876 7.83251C59.8951 7.72903 59.4974 7.67869 58.896 7.67869L58.6909 7.7556C58.7732 7.90942 58.8136 8.36391 58.8136 9.11624C58.8136 10.2462 58.7997 11.2656 58.7732 12.1731L58.6909 15.2301C58.6909 16.0006 58.7453 16.9347 58.8555 18.0296C58.9378 19.2798 58.9783 20.2223 58.9783 20.8558V21.19C58.9504 21.3103 58.9378 21.4641 58.9378 21.6529C58.9378 22.0472 58.9783 22.2864 59.0606 22.3717L59.0202 22.4234C59.0202 22.594 59.3216 22.6807 59.9244 22.6807C60.1713 22.6807 60.3765 22.6723 60.5411 22.6556H61.1579C61.9518 22.6556 62.3495 22.7758 62.3495 23.0149C62.3495 23.1688 62.2672 23.2932 62.1025 23.3869C61.9379 23.4806 61.7188 23.5282 61.4453 23.5282C61.1983 23.5282 60.9792 23.5114 60.7881 23.4764C60.569 23.4596 60.336 23.4512 60.089 23.4512C59.9244 23.4512 59.6774 23.4946 59.3495 23.5799C59.0202 23.6834 58.7746 23.7337 58.6099 23.7337C57.9792 23.7337 57.6094 23.6484 57.5006 23.4764L57.4992 23.4792Z" fill="black"/>
<path d="M68.84 23.3766L68.7996 22.4257C68.7717 22.1516 68.7591 21.8439 68.7591 21.5013C68.7591 21.3307 68.7731 21.1839 68.7996 21.065L68.84 20.6022C68.84 20.4316 68.7842 20.226 68.6754 19.9855C68.6754 18.8388 68.5372 16.7062 68.2638 13.5892C67.9889 10.5756 67.8382 8.52837 67.8117 7.45021C66.1121 7.45021 64.9749 7.42504 64.4 7.37329C63.8516 7.28799 63.5781 7.15095 63.5781 6.96216C63.7149 6.77338 63.9744 6.67969 64.3595 6.67969C65.1814 6.67969 66.373 6.71465 67.9358 6.78177C69.3605 6.86847 70.5522 6.91042 71.5122 6.91042H72.3759L73.2396 6.88525C73.7322 6.88525 73.9792 6.99712 73.9792 7.21947C73.9792 7.32295 73.8899 7.40406 73.7126 7.46419C73.534 7.52432 73.3219 7.55369 73.075 7.55369C72.5266 7.55369 71.9517 7.53691 71.3489 7.50195L69.581 7.45021C69.4707 7.45021 69.4163 7.47538 69.4163 7.52712C69.3884 7.57886 69.3759 7.74107 69.3759 8.01516C69.3759 9.67646 69.5405 12.1936 69.8684 15.5679C70.1698 19.0611 70.3205 21.5713 70.3205 23.0941C70.3205 23.2144 70.2033 23.3248 69.9717 23.4283C69.7387 23.5304 69.5126 23.5821 69.2935 23.5821L68.8414 23.3766H68.84Z" fill="black"/>
<path d="M81.0471 23.3766L81.0066 22.4257C80.9787 22.1516 80.9661 21.8439 80.9661 21.5013C80.9661 21.3307 80.9801 21.1839 81.0066 21.065L81.0471 20.6022C81.0471 20.4316 80.9913 20.226 80.8824 19.9855C80.8824 18.8388 80.7457 16.7062 80.4708 13.5892C80.1973 10.5756 80.0452 8.52837 80.0187 7.45021C78.3191 7.45021 77.1819 7.42504 76.607 7.37329C76.0586 7.28799 75.7852 7.15095 75.7852 6.96216C75.9219 6.77338 76.1814 6.67969 76.5666 6.67969C77.3884 6.67969 78.5801 6.71465 80.1429 6.78177C81.5675 6.86847 82.7592 6.91042 83.7192 6.91042H84.5829L85.4467 6.88525C85.9406 6.88525 86.1862 6.99712 86.1862 7.21947C86.1862 7.32295 86.0969 7.40406 85.9183 7.46419C85.7397 7.52432 85.5276 7.55369 85.282 7.55369C84.7336 7.55369 84.1587 7.53691 83.5559 7.50195L81.788 7.45021C81.6778 7.45021 81.6234 7.47538 81.6234 7.52712C81.5954 7.57886 81.5829 7.74107 81.5829 8.01516C81.5829 9.67646 81.7475 12.1936 82.0768 15.5679C82.3782 19.0611 82.5289 21.5713 82.5289 23.0941C82.5289 23.2144 82.4117 23.3248 82.1801 23.4283C81.9471 23.5304 81.721 23.5821 81.502 23.5821L81.0499 23.3766H81.0471Z" fill="black"/>
<path d="M90.5809 23.4789C90.6353 23.3768 90.6632 23.0929 90.6632 22.6314C90.6632 21.0554 90.7037 18.7187 90.786 15.6185C90.8684 12.5364 90.9088 10.3101 90.9088 8.93971L90.9912 8.01537L91.1139 7.24485C91.1139 7.12459 91.2102 7.06445 91.4014 7.06445C91.5381 7.06445 91.7307 7.08962 91.9763 7.14137L92.0991 7.16654C92.0991 7.54411 92.0851 7.88531 92.0586 8.19436V11.9966C92.0851 12.8189 92.0991 13.7516 92.0991 14.7962C92.0712 14.8815 92.0586 15.0703 92.0586 15.3612L92.0181 15.9009C91.9902 16.2436 91.9777 16.5946 91.9777 16.9539C91.9777 17.3483 91.9916 17.7077 92.0181 18.0335L92.0586 19.1382L91.9358 19.3438L91.9763 19.3186C91.9763 19.3704 91.9623 19.4053 91.9358 19.4221V19.5242C91.9358 19.6612 91.9763 19.7815 92.0586 19.8836L91.9358 22.3504V22.5042C91.9358 22.7951 91.9498 22.9671 91.9763 23.0174C91.9763 23.1041 92.0447 23.1461 92.1814 23.1461L94.3191 23.1978C94.9498 23.1978 95.381 23.202 95.614 23.2104C95.847 23.2188 95.9907 23.223 96.0452 23.223H96.168C96.3047 23.223 96.4414 23.2705 96.5796 23.3642C96.7163 23.4579 96.7847 23.5572 96.7847 23.6593C96.7847 23.8648 96.5656 23.9753 96.1275 23.9935C95.6614 23.9767 94.5242 23.9683 92.7158 23.9683L92.7981 23.9935C92.5247 23.9935 92.2637 24.0019 92.0167 24.0187C91.7977 24.0522 91.5507 24.0704 91.2772 24.0704C90.8935 24.0704 90.6605 23.8732 90.5781 23.4803L90.5809 23.4789Z" fill="black"/>
<path d="M100.737 23.5307V23.1964C100.764 23.1111 100.778 23.0077 100.778 22.8874L100.613 22.7853C100.832 22.4259 100.943 22.0749 100.943 21.7323C100.943 21.3394 100.902 20.773 100.82 20.0375L100.737 18.3426C100.737 17.4868 100.778 16.2016 100.86 14.49C100.969 12.9657 101.025 11.6736 101.025 10.6108L100.943 9.06981C100.887 8.60694 100.86 8.09372 100.86 7.52877C100.86 7.27146 100.957 7.08827 101.148 6.9764C101.339 6.86593 101.642 6.80859 102.052 6.80859C102.325 6.80859 102.546 6.86033 102.709 6.96242C102.764 6.9792 103.161 7.01416 103.901 7.0645C104.586 7.11624 105.175 7.19315 105.669 7.29524C106.189 7.39732 106.45 7.52597 106.45 7.6798C106.45 7.8518 106.189 8.0224 105.669 8.19301C104.107 7.86858 102.997 7.70497 102.339 7.70497L102.134 7.85879C102.161 8.01262 102.175 8.38179 102.175 8.96353C102.175 9.70048 102.147 10.3591 102.092 10.9409C102.064 11.5408 102.052 12.2078 102.052 12.9448C102.052 13.4244 102.243 13.6635 102.627 13.6635L103.284 13.6384C103.503 13.6216 103.736 13.6132 103.983 13.6132C105.052 13.6132 105.586 13.767 105.586 14.0761C105.586 14.2649 105.518 14.4229 105.381 14.5515C105.244 14.6802 105.038 14.7445 104.764 14.7445C104.353 14.7445 104.038 14.676 103.818 14.5389L102.503 14.4103H102.297L102.092 14.5389V14.6159C102.147 14.9067 102.175 15.5836 102.175 16.6449C102.175 17.3134 102.161 17.9203 102.134 18.4685L102.094 20.292C102.094 20.9604 102.134 21.6456 102.217 22.3476C102.243 22.742 102.381 23.0021 102.628 23.1307C102.875 23.2594 103.327 23.3237 103.984 23.3237L104.724 23.2985C104.971 23.2817 105.244 23.2734 105.546 23.2734C106.34 23.2734 106.738 23.3852 106.738 23.6076C106.738 23.9166 106.135 24.0704 104.929 24.0704H101.559C101.067 24.0704 100.792 23.89 100.737 23.5307Z" fill="black"/>
<path d="M126.796 23.9671C126.768 23.865 126.441 23.1448 125.81 21.8093L124.371 18.6755C122.864 15.4214 121.89 13.4092 121.454 12.6386L121.207 12.2023C121.179 12.2373 121.131 12.289 121.063 12.3562C120.994 12.4247 120.879 12.5366 120.714 12.6904C120.385 13.0679 120.111 13.3588 119.892 13.5644L119.317 14.1545V23.3C119.317 23.5909 119.277 23.7923 119.194 23.9041C119.112 24.0146 118.934 24.0706 118.66 24.0706C118.387 24.0706 118.201 24.0104 118.105 23.8902C118.008 23.7699 117.961 23.5559 117.961 23.2483V15.49C117.961 14.4803 118.001 12.8358 118.084 10.5578L118.166 5.62566C118.166 5.30123 118.193 5.00057 118.248 4.72649C118.331 4.52092 118.481 4.41744 118.7 4.41744C119.112 4.41744 119.358 4.47757 119.44 4.59783C119.549 4.7181 119.605 5.02574 119.605 5.52218L119.522 9.7859L119.44 12.8945H119.48C120.001 12.1758 120.74 11.0962 121.701 9.65725L123.221 7.26738C124.756 4.8873 125.729 3.69727 126.139 3.69727C126.33 3.69727 126.495 3.73223 126.633 3.79935C126.77 3.86787 126.838 3.96296 126.838 4.08183C126.756 4.40765 126.537 4.75026 126.181 5.10965L125.769 5.57252C125.303 6.25773 124.618 7.28556 123.714 8.65459C122.617 10.3159 122.028 11.1899 121.946 11.2752C121.918 11.3955 121.932 11.4975 121.987 11.5842C122.535 12.4582 123.15 13.5364 123.835 14.8215C124.521 16.1053 125.081 17.2198 125.521 18.1609C125.987 19.1887 126.459 20.2333 126.939 21.2947C127.417 22.3561 127.754 23.1182 127.946 23.5811C128.001 23.6846 128.028 23.7433 128.028 23.7615C128.028 23.8818 127.953 23.9755 127.802 24.044C127.652 24.1125 127.48 24.1475 127.289 24.1475C127.042 24.1475 126.877 24.0873 126.796 23.9671Z" fill="black"/>
<path d="M141.282 23.6853C141.186 23.5819 141.096 23.428 141.015 23.2225C140.987 23.0854 140.933 22.9652 140.851 22.8631L140.891 22.7862C140.672 21.9807 140.206 20.9962 139.494 19.8313L138.755 18.4959C138.699 18.4623 138.439 18.0246 137.973 17.1856L137.644 16.5689C135.178 11.8087 133.63 9.23147 132.999 8.83712C132.78 9.29999 132.67 9.8985 132.67 10.6355C132.67 11.0298 132.684 11.3724 132.71 11.6633L132.751 12.6645L132.71 13.2812C132.682 13.47 132.67 13.6756 132.67 13.8979C132.67 14.2755 132.696 14.5999 132.752 14.874L132.834 15.6963H132.711C132.711 18.556 132.808 20.132 132.999 20.4229V22.7344C133.108 22.8715 133.164 23.0519 133.164 23.2742C133.164 23.4112 133.088 23.5315 132.938 23.6336C132.787 23.7357 132.601 23.7874 132.382 23.7874C131.807 23.7874 131.518 23.3245 131.518 22.4002L131.601 21.5779C131.655 21.3206 131.683 21.0382 131.683 20.7305C131.683 19.9083 131.643 18.6749 131.56 17.0317C131.478 15.3872 131.438 14.1552 131.438 13.333C131.438 12.8365 131.478 12.0744 131.56 11.0466C131.643 10.0369 131.683 9.28321 131.683 8.78538V8.45116C131.683 7.61212 131.93 7.06395 132.423 6.80664L132.545 6.88355L132.957 6.83181C133.066 6.84859 133.19 6.90033 133.327 6.98564C133.436 7.05416 133.491 7.13107 133.491 7.21637L133.574 7.3702C133.574 7.40516 133.588 7.44711 133.614 7.49885C134.052 8.71546 135.039 10.4187 136.574 12.6114C138.135 14.923 139.108 16.4556 139.492 17.2093C139.765 17.8093 139.984 18.3392 140.149 18.8021C140.669 20.2579 141.286 21.3794 141.998 22.1667L142.08 22.0898C142.711 18.2875 143.026 13.621 143.026 8.08897L142.986 7.78133C142.958 7.69602 142.945 7.58415 142.945 7.44711C142.945 7.08772 143.136 6.90733 143.52 6.90733C143.767 6.90733 143.979 6.98424 144.158 7.13806C144.335 7.29188 144.426 7.46389 144.426 7.65127V9.3727L144.22 9.57827C144.22 11.206 144.07 13.877 143.768 17.5939C143.467 21.3108 143.178 23.3315 142.905 23.656L142.206 23.758V23.7832L142.165 23.758L141.753 23.835C141.534 23.835 141.377 23.7832 141.28 23.6811L141.282 23.6853Z" fill="black"/>
<path d="M151.288 23.4792C151.152 23.4792 151.041 23.4876 150.959 23.5044H150.63C150.027 23.5044 149.643 23.4191 149.478 23.2471C149.478 23.1268 149.587 23.0247 149.808 22.938L150.013 22.8094H151.205L151.369 22.7073L151.452 22.4766L151.492 22.1675C151.492 21.1229 151.452 20.1902 151.369 19.3679L151.287 18.417L151.205 16.5417C151.205 15.8733 151.245 14.8721 151.327 13.5366L151.41 10.5566C151.41 9.25468 151.341 8.26182 151.205 7.5766C150.958 7.52486 150.547 7.49969 149.971 7.49969L149.519 7.52486C149.354 7.54165 149.176 7.55003 148.985 7.55003C148.464 7.55003 148.203 7.4046 148.203 7.11373C148.203 7.04521 148.326 6.97669 148.573 6.90817C148.82 6.83965 149.025 6.80469 149.19 6.80469C150.231 6.80469 151.272 6.83965 152.314 6.90817C152.943 6.92495 153.574 7.00186 154.205 7.13891C154.699 7.24099 154.944 7.38782 154.944 7.57521C154.944 7.61017 154.904 7.67729 154.821 7.78077L153.877 7.83251C153.684 7.72903 153.286 7.67869 152.685 7.67869L152.48 7.7556C152.562 7.90942 152.603 8.36391 152.603 9.11624C152.603 10.2462 152.589 11.2656 152.562 12.1731L152.48 15.2301C152.48 16.0006 152.534 16.9347 152.645 18.0296C152.727 19.2798 152.767 20.2223 152.767 20.8558V21.19C152.739 21.3103 152.727 21.4641 152.727 21.6529C152.727 22.0472 152.767 22.2864 152.85 22.3717L152.809 22.4234C152.809 22.594 153.111 22.6807 153.713 22.6807C153.96 22.6807 154.166 22.6723 154.33 22.6556H154.947C155.741 22.6556 156.139 22.7758 156.139 23.0149C156.139 23.1688 156.056 23.2932 155.892 23.3869C155.727 23.4806 155.508 23.5282 155.234 23.5282C154.987 23.5282 154.768 23.5114 154.577 23.4764C154.358 23.4596 154.125 23.4512 153.878 23.4512C153.713 23.4512 153.466 23.4946 153.139 23.5799C152.809 23.6834 152.564 23.7337 152.399 23.7337C151.768 23.7337 151.399 23.6484 151.29 23.4764L151.288 23.4792Z" fill="black"/>
<path d="M162.637 23.3766L162.596 22.4257C162.569 22.1516 162.556 21.8439 162.556 21.5013C162.556 21.3307 162.57 21.1839 162.596 21.065L162.637 20.6022C162.637 20.4316 162.581 20.226 162.472 19.9855C162.472 18.8388 162.334 16.7062 162.061 13.5892C161.787 10.5756 161.635 8.52837 161.609 7.45021C159.909 7.45021 158.773 7.42504 158.197 7.37329C157.648 7.28799 157.375 7.15095 157.375 6.96216C157.512 6.77338 157.771 6.67969 158.156 6.67969C158.978 6.67969 160.17 6.71465 161.733 6.78177C163.157 6.86847 164.349 6.91042 165.309 6.91042H166.173L167.036 6.88525C167.53 6.88525 167.776 6.99712 167.776 7.21947C167.776 7.32295 167.687 7.40406 167.51 7.46419C167.331 7.52432 167.119 7.55369 166.872 7.55369C166.323 7.55369 165.749 7.53691 165.146 7.50195L163.378 7.45021C163.268 7.45021 163.213 7.47538 163.213 7.52712C163.185 7.57886 163.173 7.74107 163.173 8.01516C163.173 9.67646 163.337 12.1936 163.667 15.5679C163.968 19.0611 164.119 21.5713 164.119 23.0941C164.119 23.2144 164.002 23.3248 163.77 23.4283C163.537 23.5304 163.311 23.5821 163.092 23.5821L162.64 23.3766H162.637Z" fill="black"/>
<path d="M171.718 23.8271C171.444 23.7167 171.292 23.5824 171.266 23.4286L171.471 23.223C171.58 23.223 171.827 23.2482 172.21 23.2999C172.512 23.3685 172.759 23.402 172.95 23.402C173.553 23.402 174.087 23.2524 174.553 22.9531C175.019 22.6539 175.375 22.2637 175.622 21.7841C176.006 20.8933 176.197 20.0543 176.197 19.267C176.197 18.0853 175.622 16.8184 174.471 15.4647C173.758 14.6774 173.209 14.0523 172.827 13.5894C172.443 13.1266 172.1 12.5966 171.8 11.9967C171.444 11.2947 171.266 10.6178 171.266 9.96759C171.266 9.3509 171.513 8.62373 172.005 7.78469C172.252 7.39034 172.601 7.07011 173.053 6.82119C173.505 6.57228 173.991 6.44922 174.513 6.44922C174.868 6.44922 175.217 6.52613 175.561 6.67995C175.902 6.83378 176.074 6.99739 176.074 7.168C176.074 7.30504 175.895 7.37356 175.54 7.37356C175.429 7.37356 175.293 7.34839 175.128 7.29665C174.963 7.24491 174.813 7.21974 174.676 7.21974C174.264 7.21974 173.894 7.32322 173.567 7.52878C173.239 7.73435 172.992 8.00004 172.827 8.32587C172.498 8.95935 172.333 9.54248 172.333 10.0725C172.333 10.3983 172.401 10.7325 172.538 11.0751C172.565 11.1772 172.593 11.2639 172.621 11.3324C172.647 11.401 172.661 11.4527 172.661 11.4863L172.908 11.9995L173.113 12.4623L173.442 12.9252C173.525 13.0455 173.613 13.1518 173.71 13.2454C173.807 13.3405 173.896 13.43 173.977 13.5153L174.471 14.0551C174.58 14.1572 174.813 14.4019 175.17 14.7879C175.526 15.1724 175.855 15.5808 176.156 16.0073C176.43 16.3667 176.635 16.7051 176.773 17.0225C176.91 17.34 177.033 17.7203 177.143 18.1664C177.225 18.5943 177.266 19.0656 177.266 19.5788C177.266 20.4011 177.087 21.1716 176.731 21.8904C176.237 22.7462 175.526 23.3461 174.594 23.6887C174.073 23.8943 173.47 23.9963 172.785 23.9963L172.58 24.0481C172.279 24.0131 171.99 23.9404 171.716 23.8299L171.718 23.8271ZM175.869 7.29665C175.869 7.27987 175.855 7.27008 175.828 7.27008V7.29665H175.869Z" fill="black"/>
<path d="M189.907 24.2622C189.646 24.2371 189.365 24.1811 189.064 24.0958C188.734 23.9924 188.489 23.8469 188.324 23.6595C188.324 23.454 188.475 23.3505 188.776 23.3505C189.078 23.3505 189.461 23.4106 189.927 23.5309C190.366 23.6679 190.735 23.7364 191.037 23.7364C191.64 23.7364 192.194 23.5826 192.701 23.2736C193.208 22.9645 193.599 22.5632 193.874 22.0668C194.422 21.0907 194.695 20.2265 194.695 19.4727C194.695 18.6337 194.503 17.7863 194.121 16.929C193.737 16.0732 193.23 15.2677 192.6 14.514C192.463 14.3252 192.23 14.0427 191.901 13.6666C191.215 12.8107 190.695 12.1423 190.339 11.6627C189.983 11.183 189.668 10.653 189.394 10.0699C189.011 9.29936 188.82 8.46871 188.82 7.57793C188.82 7.01297 188.963 6.469 189.251 5.94739C189.538 5.42579 189.997 4.9755 190.628 4.59934C191.313 4.20499 192.081 4.00781 192.93 4.00781C193.26 4.00781 193.656 4.08892 194.122 4.25253C194.588 4.41615 194.821 4.57416 194.821 4.72799C194.821 4.86503 194.739 4.93355 194.574 4.93355C194.409 4.93355 194.19 4.8916 193.917 4.8049C193.67 4.7196 193.437 4.67625 193.218 4.67625C192.587 4.67625 192.032 4.82168 191.553 5.11255C191.073 5.40342 190.724 5.7642 190.505 6.19072C190.313 6.5501 190.218 6.94445 190.218 7.37236C190.218 8.0408 190.354 8.73021 190.629 9.4406C190.903 10.151 191.273 10.8152 191.739 11.4319L193.177 13.3072L193.589 13.847C194.164 14.5839 194.609 15.1922 194.924 15.6705C195.238 16.1501 195.506 16.6899 195.725 17.2884C196.027 18.0939 196.177 18.8644 196.177 19.6C196.177 20.5928 195.766 21.6039 194.944 22.6317C194.532 23.1281 193.984 23.5309 193.3 23.8385C192.615 24.1476 191.861 24.3014 191.04 24.3014C190.547 24.3014 190.169 24.2888 189.909 24.2622H189.907Z" fill="black"/>
<path d="M204.434 23.3766L204.393 22.4257C204.365 22.1516 204.353 21.8439 204.353 21.5013C204.353 21.3307 204.367 21.1839 204.393 21.065L204.434 20.6022C204.434 20.4316 204.378 20.226 204.269 19.9855C204.269 18.8388 204.132 16.7062 203.858 13.5892C203.583 10.5756 203.432 8.52837 203.405 7.45021C201.706 7.45021 200.569 7.42504 199.994 7.37329C199.445 7.28799 199.172 7.15095 199.172 6.96216C199.309 6.77338 199.568 6.67969 199.953 6.67969C200.775 6.67969 201.967 6.71465 203.53 6.78177C204.954 6.86847 206.146 6.91042 207.106 6.91042H207.97L208.833 6.88525C209.327 6.88525 209.573 6.99712 209.573 7.21947C209.573 7.32295 209.484 7.40406 209.306 7.46419C209.128 7.52432 208.916 7.55369 208.669 7.55369C208.12 7.55369 207.545 7.53691 206.943 7.50195L205.175 7.45021C205.064 7.45021 205.01 7.47538 205.01 7.52712C204.982 7.57886 204.97 7.74107 204.97 8.01516C204.97 9.67646 205.134 12.1936 205.464 15.5679C205.765 19.0611 205.916 21.5713 205.916 23.0941C205.916 23.2144 205.798 23.3248 205.567 23.4283C205.334 23.5304 205.108 23.5821 204.889 23.5821L204.437 23.3766H204.434Z" fill="black"/>
<path d="M213.396 14.7711V13.8719C213.396 9.09354 214.382 6.70508 216.355 6.70508C216.492 6.70508 216.685 6.73025 216.93 6.78199C217.807 6.97077 218.67 7.09104 219.52 7.14138C220.041 7.2099 220.561 7.54412 221.082 8.14263C221.656 8.75933 222.089 9.5732 222.376 10.5828C222.664 11.5939 222.808 12.6287 222.808 13.6915L222.725 13.8201C222.725 14.3851 222.739 14.8899 222.766 15.336L222.806 16.877C222.806 17.751 222.75 18.5383 222.642 19.2403C222.477 20.3031 222.203 21.2177 221.82 21.9896C221.573 22.4525 221.292 22.837 220.977 23.1461C220.662 23.4551 220.271 23.711 219.806 23.9166C219.368 24.1222 218.834 24.2256 218.203 24.2256C214.996 24.2256 213.395 21.075 213.395 14.7724L213.396 14.7711ZM220.424 22.0665C220.945 21.1072 221.26 20.1311 221.37 19.1383C221.479 18.1104 221.535 17.2882 221.535 16.6729C221.535 15.9877 221.453 14.978 221.288 13.6411C221.15 12.1518 221.083 11.1408 221.083 10.6094L220.918 10.4038L221.001 10.2752C221.001 9.52146 220.664 8.8712 219.993 8.32303C219.322 7.77485 218.506 7.50077 217.547 7.50077C216.286 7.50077 215.534 7.87834 215.287 8.63068C215.231 8.88798 215.176 9.25576 215.122 9.73541C215.122 11.0024 215.04 11.868 214.875 12.3294C214.875 12.5867 214.835 12.9895 214.752 13.5363L214.67 14.7431C214.67 15.1206 214.684 15.4535 214.71 15.7457L214.751 16.7736C214.751 17.579 214.86 18.5034 215.08 19.548C215.245 20.3185 215.436 20.9702 215.655 21.5002C215.874 22.0315 216.189 22.4846 216.6 22.8622C217.011 23.2733 217.49 23.4789 218.038 23.4789C219.107 23.4789 219.901 23.0076 220.422 22.0665H220.424Z" fill="black"/>
<path d="M234.442 24.0433C234.113 23.8209 233.757 23.2308 233.374 22.2715C232.99 21.3122 232.634 20.234 232.305 19.0342C232.086 18.0581 231.77 17.0904 231.359 16.1311C231.029 15.2753 230.714 14.8474 230.414 14.8474H230.291C229.688 14.8474 229.387 14.9676 229.387 15.2068C229.387 16.4402 229.496 18.3154 229.716 20.8325C229.825 22.3736 229.949 23.2727 230.086 23.53L229.757 23.9663H229.182L228.853 23.7608C228.414 15.8486 228.195 10.4536 228.195 7.57709C228.195 7.38831 228.216 7.23448 228.257 7.11422C228.297 6.99396 228.386 6.88348 228.525 6.78C228.633 6.65974 228.826 6.59961 229.1 6.59961C230.498 6.59961 231.621 6.81356 232.471 7.24147C233.319 7.66938 233.745 8.28608 233.745 9.09156V10.9668C233.745 11.2926 233.573 11.7289 233.231 12.2771C232.888 12.8253 232.511 13.3301 232.101 13.793L231.567 14.4348C231.868 15.3088 232.464 16.8792 233.354 19.1489C234.244 21.4185 234.731 22.6211 234.814 22.7581C234.84 22.7749 234.875 22.8183 234.917 22.8868C234.957 22.9553 235.047 23.0574 235.185 23.1958C235.376 23.4349 235.472 23.6419 235.472 23.8125C235.472 24.0516 235.321 24.1719 235.02 24.1719L234.445 24.0433H234.442ZM230.99 13.7161C231.402 13.3916 231.73 12.9707 231.977 12.4575C232.415 11.4129 232.634 10.5823 232.634 9.96556C232.634 9.57261 232.599 9.24678 232.531 8.98947C232.462 8.73217 232.345 8.45948 232.182 8.16721C231.853 7.5673 231.073 7.26804 229.839 7.26804C229.701 7.26804 229.592 7.34076 229.51 7.48619C229.427 7.63163 229.387 7.78126 229.387 7.93508C229.387 9.08317 229.413 10.1194 229.469 11.0437C229.496 11.9681 229.51 13.0043 229.51 14.1524L229.592 14.2041C230.113 14.2041 230.579 14.0419 230.99 13.7161Z" fill="black"/>
<path d="M242.458 24.0187C242.32 23.9502 242.239 23.8901 242.211 23.8383C242.458 23.4272 242.581 21.9295 242.581 19.3425C242.581 18.8461 242.54 18.1357 242.458 17.2099L242.253 15.3864L242.006 15.0522L242.129 14.7432C241.964 14.504 241.717 14.1013 241.389 13.5363C241.061 12.9714 240.732 12.398 240.403 11.8149C239.416 10.1886 238.771 9.0153 238.471 8.29513C238.307 7.95252 238.184 7.63648 238.102 7.34422L238.676 7.06174C238.95 7.0967 239.348 7.64347 239.868 8.70626C240.28 9.46 240.65 10.2053 240.977 10.9409L241.47 11.917C241.964 12.9798 242.318 13.5265 242.539 13.5615L242.703 13.0986L242.621 12.97C242.84 12.7994 243.115 12.1911 243.443 11.1465C243.799 9.94804 244.142 8.937 244.47 8.11474C244.826 7.15543 245.182 6.67578 245.539 6.67578C245.676 6.67578 245.798 6.70095 245.909 6.75269C246.017 6.80443 246.073 6.86457 246.073 6.93309C246.073 7.19039 245.662 8.20004 244.84 9.96482C244.428 10.8039 244.086 11.5926 243.813 12.3281C243.483 13.2021 243.319 13.981 243.319 14.6662C243.456 14.8382 243.524 14.9837 243.524 15.1025C243.524 15.1892 243.483 15.3081 243.401 15.4619C243.319 15.6158 243.278 15.7444 243.278 15.8479C243.278 15.9332 243.333 16.3191 243.443 17.0044C243.552 17.4672 243.608 17.8602 243.608 18.186C243.608 18.9397 243.622 19.6166 243.648 20.2151V22.3728C243.648 23.5377 243.361 24.1194 242.784 24.1194C242.702 24.1194 242.592 24.0845 242.455 24.0159L242.458 24.0187Z" fill="black"/>
</svg>
