<svg width="416" height="113" viewBox="0 0 416 113" fill="none" xmlns="http://www.w3.org/2000/svg">
<path fill-rule="evenodd" clip-rule="evenodd" d="M193.943 29.8804C198.733 30.0624 203.564 29.497 208.285 28.6238C202.388 32.5025 196.822 37.0814 193.026 43.1055C191.989 44.8649 191.024 46.8165 190.988 48.9407C191.073 52.3161 194.101 52.1956 196.263 50.6838C201.465 47.038 204.963 40.2091 207.548 34.5563C208.274 32.9003 209.014 31.148 209.649 29.3954L209.796 29.2968L209.976 29.1768C208.945 33.4905 208.288 37.9111 208.324 42.3561C208.396 46.2039 208.813 50.3189 210.838 53.7138C212.047 55.8185 214.638 57.3335 216.35 54.8411C218.514 51.2051 217.188 45.2558 216.174 41.395C215.833 40.1547 215.441 38.9344 215.012 37.7289C216.666 41.0037 218.484 44.1937 220.597 47.2107C221.715 48.7583 222.876 50.3124 224.382 51.5472C225.611 52.6224 227.358 52.782 227.342 50.749C227.145 48.6306 226.1 46.7438 225.093 44.9241C224.999 44.754 224.905 44.5844 224.812 44.4153C221.82 39.382 218.103 34.8406 214.106 30.5811C214.078 30.2979 214.015 30.0177 213.924 29.7418C215.138 30.5763 216.581 31.1235 217.994 31.3436C219.023 31.5206 220.038 31.5426 221.039 31.4503C222.278 31.8624 223.523 32.2541 224.773 32.6209L225.087 32.7086C228.619 33.6964 236.908 36.0142 239.798 34.5921C240.058 34.4324 240.316 34.1718 240.378 33.8166C240.558 32.4622 238.575 31.6054 237.372 31.085C237.243 31.0296 237.124 30.978 237.017 30.93C234.524 29.9625 231.936 29.3108 229.322 28.8026L229.509 28.7191L229.509 28.719C230.015 28.4939 230.517 28.2707 231.014 28.0562C234.446 26.6292 238.179 25.5409 241.882 26.0329C244.17 26.3457 246.475 27.3068 247.857 29.1965C249.104 30.9053 249.067 32.9888 249.03 35.0752L249.03 35.0786C249.025 35.3739 249.019 35.6692 249.018 35.9636C248.998 37.547 249.08 39.3846 249.859 40.8996C250.908 43.0434 253.5 44.3108 255.798 43.9035L255.788 43.7406C253.373 43.6103 251.156 41.9748 250.7 39.5898C250.421 38.203 250.525 36.8484 250.631 35.4746C250.716 34.3761 250.802 33.2652 250.693 32.1158C250.556 29.2324 248.529 26.7595 245.924 25.655C241.429 23.5874 236.634 25.3895 232.277 27.0269L232.277 27.0272C231.787 27.2113 231.302 27.3933 230.825 27.5675C229.913 27.8846 228.922 28.2195 227.885 28.537C227.154 28.4084 226.423 28.2885 225.692 28.1736C222.672 27.7143 219.635 27.4138 216.59 27.2202C218.436 26.7881 220.259 26.263 222.045 25.6291C226.585 23.974 231.169 21.6086 234.063 17.5947C235.918 15.0794 236.629 10.9156 233.072 9.52437C227.921 7.94303 221.898 12.9107 217.735 17.4907C219.463 13.4813 220.508 9.06589 219.339 4.75773C218.286 0.779602 214.234 -1.778 210.864 1.49638C207.255 5.36374 207.519 11.9777 208.096 16.8811C208.444 19.5844 209.03 22.2527 209.752 24.8784C209.645 24.803 209.536 24.7293 209.426 24.6572C207.971 21.0456 206.278 17.527 204.246 14.1997C202.381 11.1306 197.117 3.74126 192.967 5.19763C190.255 6.70938 192.1 10.9579 193.283 12.991C195.578 16.7835 198.686 19.9294 202.15 22.6623C201.798 22.6868 201.447 22.7295 201.099 22.7914C200.464 22.9009 199.855 23.0944 199.276 23.3549C195.434 22.2777 191.513 21.5357 187.517 21.3773C185.339 21.361 180.518 21.4978 180.029 24.2313C179.935 26.9844 184.394 28.3821 186.588 28.9425C188.801 29.4453 191.04 29.7328 193.29 29.8508C192.849 30.6594 192.435 31.4832 192.022 32.3058C191.568 33.2091 191.116 34.111 190.628 34.9897C187.307 40.8575 183.939 45.572 176.631 45.9629L176.628 45.9597L176.615 46.1226C181.005 47.1098 185.837 44.8389 188.327 41.1605C189.562 39.3734 190.379 37.3988 191.194 35.4292C191.985 33.5159 192.774 31.6074 193.943 29.8804ZM224.045 29.5353C221.006 29.1814 217.946 28.9492 214.88 28.8136C216.102 29.2203 217.329 29.6156 218.56 29.9966C220.298 30.1291 222.18 29.9179 224.045 29.5353ZM222.66 31.2054C223.436 31.4225 224.214 31.6328 224.992 31.8357L225.39 31.9324L225.707 32.0095C229.744 32.9917 233.876 33.9969 238.031 33.7938C238.397 33.7548 238.763 33.7076 239.063 33.5655C236.873 31.6099 230.545 30.4645 226.773 29.8989C225.43 30.4412 224.059 30.9157 222.66 31.2054ZM211.133 25.281C215.033 19.9707 218.603 13.5467 218.13 6.96672C217.546 0.906668 212.415 -0.745183 210.12 5.57225C208.121 11.5063 209.343 18.9508 210.934 25.2593L210.927 25.2086L211.083 25.1695L211.086 25.1663C211.102 25.2047 211.117 25.243 211.133 25.281ZM209.755 42.3528C209.761 38.2109 210.356 34.0734 211.239 30.0203C211.335 30.1171 211.43 30.2141 211.525 30.3111C212.094 31.6827 212.662 33.0729 213.132 34.3901C214.805 39.1045 216.265 43.9851 216.396 49.0059C216.409 50.2342 216.33 51.4722 216.021 52.6126C215.633 54.1373 214.56 55.7501 213.009 54.3459C210.244 51.6058 209.801 46.1192 209.755 42.3528ZM228.541 20.5758C223.763 23.6826 218.225 25.2586 212.602 26.243C213.552 24.9543 214.447 23.621 215.276 22.2486C219.568 16.8048 225.186 11.2768 230.849 10.7071C233.741 10.5604 234.683 12.701 233.653 15.0729C232.626 17.4089 230.637 19.1618 228.541 20.5758ZM194.594 28.9772C196.433 26.5543 198.407 24.9894 200.708 24.4634C203.234 25.2947 205.72 26.2692 208.162 27.3042C203.697 28.2451 199.139 28.9456 194.594 28.9772ZM195.446 26.4926C196.263 25.425 197.29 24.4607 198.472 23.7702C194.894 22.7321 191.238 22.0234 187.507 21.8725C185.512 21.8497 183.396 21.9409 181.63 22.9118C180.56 23.5015 180.179 24.5539 180.984 25.5215C182.428 27.1506 184.671 27.7924 186.741 28.2779C189.073 28.7372 191.425 28.9499 193.782 28.9756C194.283 28.1163 194.827 27.2817 195.446 26.4926ZM204.645 24.5238C203.821 24.3346 203.037 24.2512 202.287 24.2686C203.653 24.7131 205.008 25.1925 206.353 25.6952C205.779 25.3129 205.209 24.9227 204.645 24.5238ZM209.197 29.6992C203.461 33.5789 197.973 38.0074 194.216 43.8288C193.313 45.308 191.445 48.7615 192.716 50.2342C194.307 51.2801 197.407 48.4162 198.528 47.2596C202.541 43.011 205.374 37.7948 207.903 32.5591C208.312 31.6932 208.757 30.6913 209.197 29.6992ZM212.347 31.156C213.905 34.2967 215.563 37.4044 217.347 40.4045C219.257 43.5681 221.269 46.722 223.811 49.4001C223.91 49.4938 224.011 49.592 224.113 49.6919L224.114 49.6923C224.697 50.2607 225.339 50.8865 226.067 51.0791C226.062 47.8846 221.401 41.7193 219.358 39.1013C217.164 36.3435 214.805 33.7027 212.347 31.156ZM208.318 24.0092C206.141 18.3336 203.409 12.8053 199.177 8.41336C197.736 7.02216 195.275 4.91743 193.189 5.67331C190.923 6.98306 192.82 10.9742 193.857 12.6554C196.473 16.6975 200.064 19.934 204.005 22.6973C205.505 22.8546 206.979 23.3155 208.318 24.0092ZM167.907 111.32C167.849 111.108 167.167 109.614 165.855 106.844L162.862 100.343C159.728 93.5932 157.702 89.4189 156.794 87.8206L156.28 86.9155C156.222 86.988 156.123 87.0954 155.981 87.2346C155.839 87.3767 155.598 87.6088 155.255 87.9279C154.57 88.7111 154.002 89.3145 153.546 89.7409L152.35 90.9651V109.936C152.35 110.54 152.266 110.958 152.095 111.19C151.923 111.419 151.552 111.535 150.983 111.535C150.414 111.535 150.028 111.41 149.828 111.161C149.628 110.911 149.529 110.467 149.529 109.829V93.7354C149.529 91.641 149.613 88.2296 149.784 83.5042L149.956 73.2729C149.956 72.6 150.011 71.9763 150.127 71.4077C150.298 70.9813 150.612 70.7666 151.067 70.7666C151.923 70.7666 152.434 70.8914 152.606 71.1408C152.832 71.3903 152.948 72.0285 152.948 73.0583L152.777 81.9029L152.606 88.3514H152.69C153.772 86.8604 155.311 84.621 157.307 81.636L160.471 76.6785C163.664 71.7413 165.686 69.2727 166.54 69.2727C166.937 69.2727 167.28 69.3452 167.567 69.4845C167.852 69.6266 167.994 69.8239 167.994 70.0704C167.823 70.7463 167.367 71.457 166.627 72.2025L165.771 73.1627C164.801 74.5841 163.376 76.7162 161.495 79.5561C159.214 83.0023 157.989 84.8153 157.818 84.9923C157.76 85.2417 157.789 85.4535 157.902 85.6334C159.043 87.4464 160.323 89.6829 161.748 92.3488C163.173 95.0117 164.34 97.3237 165.254 99.2759C165.948 100.801 166.647 102.344 167.354 103.905L167.361 103.919L168.203 105.777C169.198 107.978 169.898 109.559 170.298 110.52C170.411 110.734 170.47 110.856 170.47 110.894C170.47 111.143 170.313 111.338 169.999 111.48C169.686 111.622 169.329 111.694 168.931 111.694C168.418 111.694 168.075 111.57 167.907 111.32ZM1.70949 110.041C1.70949 110.363 1.84009 110.63 2.0955 110.842H2.0897C2.34801 111.053 2.67307 111.161 3.07359 111.161C6.49257 111.161 8.80284 111.143 9.99862 111.108H10.6836L11.2815 111.056C11.6239 111.056 11.8793 110.958 12.0506 110.763C12.2218 110.569 12.306 110.328 12.306 110.044C12.306 109.403 11.9345 109.084 11.1944 109.084H5.89468C5.20973 109.084 4.83823 109.066 4.78308 109.031C4.61184 109.031 4.52767 108.979 4.52767 108.872L4.01396 102.264C3.67148 98.8901 3.50024 96.4534 3.50024 94.9624L3.07359 85.4245C2.90236 82.1553 2.81819 77.2355 2.81819 70.6622C2.81819 70.1284 2.30737 69.8616 1.27994 69.8616C0.940363 69.8616 0.638518 69.9225 0.383111 70.0472C0.127704 70.172 0 70.3228 0 70.4997C0 72.9509 0.171239 76.664 0.513717 81.636C0.798148 87.1418 0.940363 90.8548 0.940363 92.7723C0.940363 94.8348 1.05356 97.3556 1.28284 100.341C1.56727 103.149 1.70949 105.669 1.70949 107.909V110.041ZM23.0824 110.36C23.2536 110.325 23.4829 110.308 23.7674 110.308L23.7703 110.302C23.9966 110.659 24.7658 110.836 26.0776 110.836C26.4201 110.836 26.9309 110.731 27.6159 110.517C28.2979 110.34 28.8117 110.25 29.1541 110.25C29.6678 110.25 30.1525 110.267 30.6082 110.302C31.0058 110.374 31.4615 110.409 31.9752 110.409C32.5441 110.409 32.9998 110.311 33.3422 110.116C33.6847 109.922 33.8559 109.664 33.8559 109.345C33.8559 108.849 33.0288 108.599 31.3773 108.599H30.0945C29.752 108.634 29.3254 108.651 28.8117 108.651C27.5578 108.651 26.9309 108.471 26.9309 108.118L27.0151 108.01C26.8439 107.833 26.7597 107.337 26.7597 106.519C26.7597 106.128 26.7858 105.809 26.8439 105.559V104.866C26.8439 103.552 26.7597 101.597 26.5884 99.0032C26.3592 96.7318 26.246 94.7941 26.246 93.1957L26.4172 86.8545C26.4724 84.9719 26.5014 82.8572 26.5014 80.5133C26.5014 78.9527 26.4172 78.0099 26.246 77.6908L26.6726 77.5313C27.9235 77.5313 28.7507 77.6357 29.1512 77.8503L31.1161 77.743C31.2874 77.5284 31.3715 77.3891 31.3715 77.3166C31.3715 76.9279 30.8607 76.6233 29.8333 76.4115C28.5214 76.1273 27.2096 75.9677 25.9006 75.9329C23.7325 75.7908 21.5674 75.7182 19.4022 75.7182C19.0597 75.7182 18.6331 75.7908 18.1194 75.9329C17.6057 76.075 17.3503 76.2172 17.3503 76.3593C17.3503 76.9627 17.893 77.2644 18.9756 77.2644C19.3732 77.2644 19.7447 77.247 20.0872 77.2122L21.0275 77.16C22.2262 77.16 23.0795 77.2122 23.5932 77.3195C23.8776 78.7409 24.0199 80.8005 24.0199 83.5012L23.8486 89.6828C23.6774 92.4531 23.5932 94.5301 23.5932 95.9167L23.7645 99.8067L23.9357 101.779C24.1069 103.485 24.1911 105.42 24.1911 107.587L24.1069 108.228L23.9357 108.706L23.5932 108.918H21.1146L20.688 109.185C20.2294 109.365 20.003 109.577 20.003 109.826C20.3455 110.183 21.1436 110.36 22.3974 110.36H23.0824ZM47.3638 110.096L47.2796 108.123C47.2216 107.555 47.1954 106.917 47.1954 106.206C47.1954 105.852 47.2245 105.547 47.2796 105.301L47.3638 104.341C47.3638 103.987 47.2477 103.56 47.0213 103.061C47.0213 100.683 46.734 96.259 46.1651 89.7931C45.5933 83.5418 45.2799 79.295 45.2247 77.0585C41.6897 77.0585 39.3242 77.0062 38.1285 76.8989C36.9878 76.722 36.419 76.4377 36.419 76.0461C36.7034 75.6545 37.2433 75.4601 38.0443 75.4601C39.7538 75.4601 42.2324 75.5326 45.483 75.6719C48.4464 75.8517 50.925 75.9387 52.9218 75.9387H54.7183L56.5149 75.8865C57.5394 75.8865 58.0531 76.1186 58.0531 76.5798C58.0531 76.7945 57.8674 76.9627 57.4988 77.0875C57.1273 77.2122 56.6861 77.2731 56.1724 77.2731C55.0318 77.2731 53.836 77.2383 52.5822 77.1658L48.9049 77.0585C48.6756 77.0585 48.5624 77.1107 48.5624 77.218C48.5044 77.3253 48.4783 77.6618 48.4783 78.2304C48.4783 81.6766 48.8208 86.898 49.5028 93.8977C50.1297 101.144 50.4432 106.351 50.4432 109.51C50.4432 109.759 50.1994 109.989 49.7176 110.203C49.2329 110.415 48.7627 110.522 48.307 110.522L47.3667 110.096H47.3638ZM72.6695 108.123L72.7537 110.096H72.7595L73.6999 110.522C74.1555 110.522 74.6257 110.415 75.1104 110.203C75.5922 109.989 75.836 109.759 75.836 109.51C75.836 106.351 75.5225 101.144 74.8956 93.8977C74.2107 86.898 73.8682 81.6766 73.8682 78.2304C73.8682 77.6618 73.8943 77.3253 73.9524 77.218C73.9524 77.1107 74.0656 77.0585 74.2948 77.0585L77.9721 77.1658C79.2259 77.2383 80.4217 77.2731 81.5623 77.2731C82.0732 77.2731 82.5143 77.2122 82.8858 77.0875C83.2573 76.9627 83.4431 76.7945 83.4431 76.5798C83.4431 76.1186 82.9323 75.8865 81.9048 75.8865L80.1083 75.9387H78.3117C76.3149 75.9387 73.8363 75.8517 70.873 75.6719C67.6223 75.5326 65.1437 75.4601 63.4342 75.4601C62.6332 75.4601 62.0933 75.6545 61.8089 76.0461C61.8089 76.4377 62.3778 76.722 63.5184 76.8989C64.7142 77.0062 67.0796 77.0585 70.6147 77.0585C70.6698 79.295 70.9862 83.5418 71.555 89.7931C72.1268 96.259 72.4112 100.683 72.4112 103.061C72.6376 103.56 72.7537 103.987 72.7537 104.341L72.6695 105.301C72.6144 105.547 72.5854 105.852 72.5854 106.206C72.5854 106.917 72.6115 107.555 72.6695 108.123ZM92.5884 110.308C92.7016 110.096 92.7597 109.507 92.7597 108.55C92.7597 105.281 92.8438 100.433 93.0151 94.0023C93.1863 87.6088 93.2705 82.9907 93.2705 80.1479L93.4417 78.2305L93.6971 76.6321C93.6971 76.3826 93.8974 76.2579 94.295 76.2579C94.5794 76.2579 94.98 76.3101 95.4908 76.4174L95.7462 76.4697C95.7462 77.2529 95.7172 77.9607 95.662 78.6018V86.4891C95.7172 88.1948 95.7462 90.1296 95.7462 92.2966C95.6881 92.4735 95.662 92.8651 95.662 93.4685L95.5778 94.5882C95.5198 95.2989 95.4937 96.027 95.4937 96.7725C95.4937 97.5906 95.5227 98.3361 95.5778 99.012L95.662 101.304L95.4066 101.73L95.4908 101.678C95.4908 101.785 95.4617 101.858 95.4066 101.892V102.104C95.4066 102.389 95.4908 102.638 95.662 102.85L95.4066 107.967V108.286C95.4066 108.889 95.4356 109.246 95.4908 109.351C95.4908 109.53 95.633 109.617 95.9174 109.617L100.364 109.725C101.676 109.725 102.573 109.733 103.057 109.751C103.542 109.768 103.841 109.777 103.954 109.777H104.209C104.494 109.777 104.778 109.876 105.066 110.07C105.35 110.264 105.492 110.47 105.492 110.682C105.492 111.108 105.037 111.338 104.125 111.375C103.156 111.34 100.79 111.323 97.029 111.323L97.2002 111.375C96.6314 111.375 96.0886 111.393 95.5749 111.428C95.1193 111.497 94.6055 111.535 94.0367 111.535C93.2385 111.535 92.7538 111.126 92.5826 110.311L92.5884 110.308ZM113.705 109.722V110.415C113.819 111.161 114.39 111.535 115.415 111.535H122.424C124.932 111.535 126.186 111.216 126.186 110.575C126.186 110.113 125.358 109.881 123.707 109.881C123.08 109.881 122.511 109.899 121.997 109.934L120.459 109.986C119.092 109.986 118.152 109.852 117.638 109.585C117.124 109.319 116.837 108.779 116.782 107.961C116.611 106.505 116.527 105.083 116.527 103.697L116.611 99.9141C116.666 98.777 116.695 97.518 116.695 96.1314C116.695 93.9297 116.637 92.5257 116.524 91.9223V91.7628L116.95 91.4959H117.377L120.114 91.7628C120.57 92.0471 121.225 92.1892 122.082 92.1892C122.65 92.1892 123.08 92.0557 123.364 91.7889C123.649 91.522 123.791 91.1942 123.791 90.8026C123.791 90.1615 122.68 89.8424 120.456 89.8424C119.943 89.8424 119.458 89.8598 119.002 89.8946L117.635 89.9468C116.837 89.9468 116.439 89.4508 116.439 88.4558C116.439 86.9271 116.466 85.5434 116.524 84.2989C116.637 83.0922 116.695 81.7259 116.695 80.1972C116.695 78.9904 116.666 78.2246 116.611 77.9055L117.037 77.5864C118.404 77.5864 120.715 77.9258 123.962 78.5988C125.045 78.2449 125.588 77.891 125.588 77.5342C125.588 77.2151 125.045 76.9482 123.962 76.7365C122.935 76.5247 121.71 76.3652 120.285 76.2579C118.747 76.1534 117.92 76.0809 117.806 76.0461C117.467 75.8343 117.008 75.727 116.439 75.727C115.586 75.727 114.956 75.8459 114.559 76.0751C114.161 76.3072 113.961 76.6872 113.961 77.2209C113.961 78.3929 114.016 79.4575 114.132 80.4176L114.303 83.6143C114.303 85.819 114.187 88.4993 113.961 91.6612C113.79 95.2118 113.705 97.8777 113.705 99.653L113.877 103.169C114.048 104.695 114.132 105.869 114.132 106.685C114.132 107.395 113.903 108.123 113.447 108.869L113.79 109.081C113.79 109.33 113.761 109.545 113.705 109.722ZM197.488 109.774C197.656 110.2 197.842 110.519 198.042 110.734L198.039 110.725C198.239 110.937 198.567 111.045 199.023 111.045L199.879 110.885L199.963 110.937V110.885L201.417 110.673C201.986 110 202.587 105.809 203.214 98.0981C203.841 90.3877 204.154 84.8472 204.154 81.4706L204.581 81.0442V77.4733C204.581 77.0845 204.392 76.7277 204.024 76.4087C203.652 76.0896 203.211 75.93 202.697 75.93C201.899 75.93 201.502 76.3042 201.502 77.0497C201.502 77.334 201.528 77.5661 201.586 77.743L201.67 78.3812C201.67 89.8569 201.014 99.5369 199.702 107.424L199.531 107.584C198.051 105.951 196.768 103.624 195.685 100.604C195.343 99.6443 194.887 98.5449 194.318 97.3004C193.52 95.7369 191.497 92.5576 188.249 87.7625C185.057 83.214 183.005 79.6808 182.094 77.1571C182.038 77.0497 182.009 76.9627 182.009 76.8902L181.838 76.5711C181.838 76.3941 181.722 76.2346 181.496 76.0925C181.211 75.9155 180.953 75.8082 180.727 75.7734L179.87 75.8807L179.615 75.7212C178.59 76.2549 178.077 77.392 178.077 79.1325V79.8258C178.077 80.8585 177.993 82.4221 177.821 84.5165C177.65 86.6486 177.566 88.2295 177.566 89.2593C177.566 90.965 177.65 93.5206 177.821 96.932C177.993 100.34 178.077 102.899 178.077 104.605C178.077 105.243 178.019 105.829 177.906 106.363L177.734 108.068C177.734 109.986 178.335 110.946 179.531 110.946C179.986 110.946 180.373 110.839 180.686 110.627C180.999 110.415 181.156 110.166 181.156 109.881C181.156 109.42 181.04 109.046 180.814 108.762V103.967C180.416 103.363 180.216 100.094 180.216 94.1617H180.471L180.3 92.456C180.184 91.8875 180.129 91.2145 180.129 90.4313C180.129 89.97 180.155 89.5436 180.213 89.152L180.297 87.8727L180.213 85.7957C180.158 85.1924 180.129 84.4817 180.129 83.6636C180.129 82.1349 180.358 80.8933 180.814 79.9332C182.126 80.7512 185.347 86.0974 190.476 95.9718L191.161 97.2511C192.13 98.9916 192.67 99.8995 192.786 99.9692L194.324 102.739C195.804 105.156 196.774 107.198 197.229 108.869L197.145 109.028C197.316 109.24 197.43 109.49 197.488 109.774ZM218.858 110.308C218.573 110.308 218.344 110.325 218.173 110.36H217.488C216.234 110.36 215.436 110.183 215.094 109.826C215.094 109.577 215.32 109.365 215.779 109.185L216.205 108.918H218.684L219.026 108.706L219.197 108.228L219.282 107.587C219.282 105.42 219.197 103.485 219.026 101.779L218.855 99.8067L218.684 95.9167C218.684 94.5301 218.768 92.4531 218.939 89.6828L219.11 83.5012C219.11 80.8005 218.968 78.7409 218.684 77.3195C218.17 77.2122 217.317 77.16 216.118 77.16L215.178 77.2122C214.835 77.247 214.464 77.2644 214.066 77.2644C212.984 77.2644 212.441 76.9627 212.441 76.3593C212.441 76.2172 212.696 76.075 213.21 75.9329C213.724 75.7908 214.15 75.7182 214.493 75.7182C216.658 75.7182 218.823 75.7908 220.991 75.9329C222.3 75.9677 223.612 76.1273 224.924 76.4115C225.951 76.6233 226.462 76.9279 226.462 77.3166C226.462 77.3891 226.378 77.5284 226.207 77.743L224.242 77.8503C223.841 77.6357 223.014 77.5313 221.763 77.5313L221.337 77.6908C221.508 78.0099 221.592 78.9527 221.592 80.5133C221.592 82.8572 221.563 84.9719 221.508 86.8545L221.337 93.1957C221.337 94.7941 221.45 96.7318 221.679 99.0032C221.85 101.597 221.934 103.552 221.934 104.866V105.559C221.876 105.809 221.85 106.128 221.85 106.519C221.85 107.337 221.934 107.833 222.106 108.01L222.021 108.118C222.021 108.471 222.648 108.651 223.902 108.651C224.416 108.651 224.843 108.634 225.185 108.599H226.468C228.119 108.599 228.946 108.849 228.946 109.345C228.946 109.664 228.775 109.922 228.433 110.116C228.09 110.311 227.635 110.409 227.066 110.409C226.552 110.409 226.096 110.374 225.699 110.302C225.243 110.267 224.758 110.25 224.245 110.25C223.902 110.25 223.388 110.34 222.706 110.517C222.021 110.731 221.511 110.836 221.168 110.836C219.856 110.836 219.087 110.659 218.861 110.302L218.858 110.308ZM242.373 108.123L242.457 110.096H242.463L243.403 110.522C243.859 110.522 244.329 110.415 244.814 110.203C245.296 109.989 245.539 109.759 245.539 109.51C245.539 106.351 245.226 101.144 244.599 93.8977C243.914 86.898 243.572 81.6766 243.572 78.2304C243.572 77.6618 243.598 77.3253 243.656 77.218C243.656 77.1107 243.769 77.0585 243.998 77.0585L247.675 77.1658C248.929 77.2383 250.125 77.2731 251.266 77.2731C251.779 77.2731 252.221 77.2122 252.592 77.0875C252.961 76.9627 253.146 76.7945 253.146 76.5798C253.146 76.1186 252.636 75.8865 251.608 75.8865L249.812 75.9387H248.015C246.018 75.9387 243.54 75.8517 240.576 75.6719C237.326 75.5326 234.847 75.4601 233.138 75.4601C232.337 75.4601 231.797 75.6545 231.512 76.0461C231.512 76.4377 232.081 76.722 233.222 76.8989C234.42 77.0062 236.783 77.0585 240.318 77.0585C240.373 79.295 240.689 83.5418 241.258 89.7931C241.827 96.259 242.115 100.683 242.115 103.061C242.341 103.56 242.457 103.987 242.457 104.341L242.373 105.301C242.318 105.547 242.289 105.852 242.289 106.206C242.289 106.917 242.315 107.555 242.373 108.123ZM261.349 111.027C260.78 110.798 260.463 110.52 260.408 110.2L260.835 109.774C261.061 109.774 261.575 109.826 262.373 109.934C263 110.076 263.514 110.145 263.911 110.145C265.165 110.145 266.277 109.835 267.246 109.214C268.216 108.593 268.956 107.784 269.469 106.789C270.268 104.941 270.665 103.201 270.665 101.568C270.665 99.1164 269.469 96.4883 267.075 93.6803C265.592 92.0471 264.451 90.7504 263.656 89.7902C262.858 88.8301 262.144 87.7307 261.52 86.4862C260.78 85.03 260.408 83.626 260.408 82.2771C260.408 80.9978 260.922 79.4894 261.947 77.7489C262.46 76.9309 263.186 76.2666 264.126 75.7502C265.067 75.2339 266.077 74.9786 267.162 74.9786C267.902 74.9786 268.628 75.1382 269.342 75.4573C270.053 75.7764 270.41 76.1158 270.41 76.4697C270.41 76.7539 270.038 76.8961 269.298 76.8961C269.069 76.8961 268.785 76.8439 268.442 76.7365C268.1 76.6292 267.786 76.577 267.502 76.577C266.645 76.577 265.876 76.7916 265.194 77.2181C264.512 77.6445 263.999 78.1956 263.656 78.8715C262.971 80.1856 262.629 81.3953 262.629 82.4947C262.629 83.1706 262.771 83.8639 263.055 84.5746C263.11 84.7863 263.168 84.9662 263.227 85.1083C263.282 85.2505 263.311 85.3578 263.311 85.4274L263.824 86.492L264.251 87.4522L264.936 88.4123C265.107 88.6618 265.29 88.8823 265.493 89.0766C265.694 89.2739 265.879 89.4595 266.048 89.6365L267.075 90.7562C267.301 90.968 267.786 91.4756 268.529 92.2763C269.269 93.074 269.954 93.921 270.581 94.8058C271.15 95.5513 271.577 96.2533 271.864 96.9118C272.148 97.5703 272.404 98.3593 272.633 99.2846C272.804 100.172 272.888 101.15 272.888 102.214C272.888 103.92 272.517 105.519 271.777 107.01C270.749 108.785 269.269 110.029 267.33 110.74C266.248 111.166 264.994 111.378 263.569 111.378L263.142 111.486C262.515 111.413 261.915 111.262 261.346 111.033L261.349 111.027ZM269.983 76.7365C269.983 76.7017 269.954 76.6814 269.899 76.6814V76.7365H269.983ZM297.425 111.59C298.051 111.767 298.635 111.883 299.178 111.935H299.183C299.723 111.99 300.51 112.016 301.534 112.016C303.244 112.016 304.811 111.697 306.236 111.056C307.658 110.418 308.799 109.583 309.655 108.553C311.365 106.421 312.221 104.323 312.221 102.264C312.221 100.738 311.907 99.1395 311.28 97.4687C310.825 96.2271 310.267 95.1074 309.614 94.1124C308.958 93.1203 308.033 91.8585 306.837 90.3297L305.981 89.21L302.988 85.32C302.019 84.0407 301.25 82.6628 300.681 81.1892C300.109 79.7156 299.825 78.2855 299.825 76.8989C299.825 76.0113 300.022 75.1932 300.423 74.4477C300.878 73.563 301.604 72.8146 302.602 72.2112C303.598 71.6078 304.753 71.3061 306.065 71.3061C306.521 71.3061 307.005 71.396 307.519 71.573C308.088 71.7528 308.543 71.8399 308.886 71.8399C309.228 71.8399 309.4 71.6977 309.4 71.4135C309.4 71.0944 308.915 70.7666 307.946 70.4272C306.976 70.0878 306.152 69.9195 305.467 69.9195C303.699 69.9195 302.103 70.3285 300.678 71.1466C299.366 71.9269 298.411 72.861 297.813 73.943C297.216 75.025 296.917 76.1534 296.917 77.3253C296.917 79.1732 297.314 80.8962 298.112 82.4946C298.681 83.7042 299.337 84.8037 300.077 85.7986C300.817 86.7936 301.9 88.1802 303.325 89.9555C304.01 90.7358 304.495 91.3218 304.779 91.7134C306.091 93.277 307.145 94.9479 307.943 96.7232C308.738 98.5014 309.138 100.259 309.138 102C309.138 103.563 308.57 105.356 307.429 107.381C306.857 108.411 306.044 109.243 304.991 109.884C303.934 110.525 302.782 110.844 301.528 110.844C300.902 110.844 300.132 110.702 299.221 110.418C298.252 110.168 297.454 110.044 296.827 110.044C296.2 110.044 295.886 110.258 295.886 110.685C296.229 111.074 296.74 111.375 297.425 111.59ZM329.4 110.096L329.316 108.123C329.257 107.555 329.231 106.917 329.231 106.206C329.231 105.852 329.26 105.547 329.316 105.301L329.4 104.341C329.4 103.987 329.284 103.56 329.057 103.061C329.057 100.683 328.773 96.259 328.201 89.7931C327.629 83.5418 327.316 79.295 327.261 77.0585C323.726 77.0585 321.36 77.0062 320.164 76.8989C319.024 76.722 318.455 76.4377 318.455 76.0461C318.739 75.6545 319.279 75.4601 320.08 75.4601C321.79 75.4601 324.268 75.5326 327.519 75.6719C330.482 75.8517 332.961 75.9387 334.958 75.9387H336.754L338.551 75.8865C339.578 75.8865 340.089 76.1186 340.089 76.5798C340.089 76.7945 339.903 76.9627 339.535 77.0875C339.163 77.2122 338.722 77.2731 338.208 77.2731C337.068 77.2731 335.872 77.2383 334.618 77.1658L330.941 77.0585C330.712 77.0585 330.598 77.1107 330.598 77.218C330.54 77.3253 330.514 77.6618 330.514 78.2304C330.514 81.6766 330.857 86.898 331.542 93.8977C332.169 101.144 332.482 106.351 332.482 109.51C332.482 109.759 332.238 109.989 331.756 110.203C331.272 110.415 330.802 110.522 330.346 110.522L329.405 110.096H329.4ZM348.036 90.3792V92.2444L348.033 92.2473C348.033 105.321 351.365 111.857 358.035 111.857C359.347 111.857 360.458 111.642 361.369 111.216C362.336 110.789 363.149 110.259 363.805 109.617C364.46 108.976 365.044 108.179 365.558 107.218C366.356 105.617 366.925 103.72 367.267 101.515C367.493 100.059 367.61 98.4261 367.61 96.6131L367.525 93.4163C367.47 92.491 367.441 91.4438 367.441 90.2718L367.612 90.005C367.612 87.8003 367.314 85.6537 366.716 83.5564C366.118 81.462 365.218 79.7738 364.022 78.4945C362.94 77.2529 361.857 76.5596 360.775 76.4175C359.007 76.3131 357.21 76.0636 355.388 75.672C354.877 75.5647 354.476 75.5124 354.192 75.5124C350.088 75.5124 348.036 80.467 348.036 90.3792ZM364.623 101.304C364.394 103.363 363.738 105.388 362.655 107.378H362.649C361.567 109.33 359.915 110.308 357.692 110.308C356.552 110.308 355.556 109.881 354.7 109.029C353.847 108.245 353.191 107.305 352.735 106.203C352.279 105.104 351.882 103.752 351.539 102.154C351.081 99.9867 350.854 98.0693 350.854 96.3984L350.77 94.2663C350.715 93.66 350.686 92.9696 350.686 92.1864L350.857 89.683C351.028 88.5488 351.113 87.7133 351.113 87.1796C351.455 86.2223 351.626 84.4267 351.626 81.7985C351.739 80.8036 351.853 80.0406 351.969 79.5069C352.482 77.9462 354.047 77.163 356.671 77.163C358.664 77.163 360.362 77.7316 361.758 78.8687C363.154 80.0058 363.854 81.3547 363.854 82.9183L363.683 83.1851L364.025 83.6115C364.025 84.7139 364.164 86.8112 364.452 89.9005C364.794 92.6737 364.966 94.7681 364.966 96.1895C364.966 97.4659 364.849 99.1716 364.623 101.304ZM391.81 111.48C391.125 111.018 390.385 109.794 389.587 107.804C388.788 105.814 388.048 103.578 387.363 101.089C386.908 99.0641 386.252 97.0567 385.396 95.0668C384.711 93.2915 384.055 92.4038 383.431 92.4038H383.175C381.921 92.4038 381.295 92.6533 381.295 93.1493C381.295 95.7078 381.521 99.5978 381.979 104.819C382.206 108.016 382.464 109.881 382.749 110.415L382.064 111.32H380.868L380.183 110.894C379.272 94.4808 378.816 83.2894 378.816 77.3224C378.816 76.9308 378.859 76.6117 378.944 76.3622C379.028 76.1128 379.214 75.8836 379.501 75.6689C379.727 75.4195 380.128 75.2947 380.697 75.2947C383.605 75.2947 385.941 75.7386 387.709 76.6262C389.473 77.5139 390.359 78.7931 390.359 80.464V84.354C390.359 85.0299 390.002 85.935 389.291 87.0721C388.577 88.2092 387.793 89.2564 386.94 90.2166L385.828 91.5481C386.455 93.3611 387.694 96.6187 389.546 101.327C391.398 106.035 392.411 108.529 392.582 108.814C392.637 108.849 392.709 108.939 392.797 109.081C392.881 109.223 393.066 109.435 393.354 109.722C393.751 110.218 393.952 110.647 393.952 111.001C393.952 111.497 393.638 111.747 393.011 111.747L391.816 111.48H391.81ZM384.629 90.057C385.486 89.384 386.168 88.5109 386.681 87.4463C387.593 85.2794 388.048 83.5563 388.048 82.277C388.048 81.4619 387.976 80.786 387.834 80.2523C387.691 79.7185 387.448 79.1528 387.108 78.5466C386.423 77.3021 384.801 76.6813 382.235 76.6813C381.948 76.6813 381.721 76.8322 381.55 77.1339C381.379 77.4355 381.295 77.7459 381.295 78.065C381.295 80.4466 381.35 82.5961 381.466 84.5136C381.521 86.431 381.55 88.5805 381.55 90.9621L381.721 91.0694C382.804 91.0694 383.773 90.7329 384.629 90.057ZM407.966 111.053C408.024 111.161 408.193 111.285 408.48 111.428L408.474 111.422C408.759 111.564 408.988 111.636 409.159 111.636C410.358 111.636 410.956 110.43 410.956 108.013V103.537C410.901 102.296 410.872 100.892 410.872 99.3283C410.872 98.6524 410.755 97.8372 410.529 96.8771C410.3 95.4557 410.187 94.655 410.187 94.4781C410.187 94.2634 410.271 93.9965 410.442 93.6775C410.613 93.3584 410.697 93.1118 410.697 92.9319C410.697 92.6854 410.555 92.3837 410.271 92.0269C410.271 90.6055 410.613 88.9897 411.298 87.1767C411.867 85.6509 412.578 84.0148 413.434 82.2743C415.144 78.6135 416 76.5191 416 75.9853C416 75.8432 415.884 75.7184 415.658 75.6111C415.428 75.5038 415.173 75.4516 414.888 75.4516C414.145 75.4516 413.405 76.4465 412.665 78.4365C411.983 80.1422 411.269 82.2395 410.529 84.7255C409.847 86.8924 409.275 88.1543 408.82 88.5082L408.991 88.775L408.648 89.7352C408.19 89.6627 407.453 88.5285 406.425 86.3239L405.401 84.2991C404.719 82.7732 403.949 81.2271 403.093 79.6636C402.011 77.4589 401.184 76.3247 400.615 76.2522L399.419 76.8382C399.59 77.4444 399.846 78.1 400.188 78.8107C400.812 80.3046 402.153 82.7384 404.205 86.1121C404.89 87.3217 405.575 88.5111 406.257 89.683C406.939 90.8549 407.453 91.6904 407.795 92.1864L407.54 92.8275L408.053 93.5208L408.48 97.3035C408.651 99.2238 408.735 100.697 408.735 101.727C408.735 107.094 408.48 110.201 407.966 111.053ZM113.205 36.9932V26.0069H121.419V26.5869H114.398V31.0765H120.523V31.6564H114.398V36.4133H121.419V36.9932H113.205ZM123.163 28.7536C123.163 30.5749 125.158 31.3145 127.404 31.9726L127.407 31.9693C128.851 32.3962 130.673 32.9761 130.673 34.4357C130.673 35.6771 129.386 36.6024 127.485 36.6024C125.474 36.6024 124.203 35.5532 124.203 33.9666H123.009C123.009 35.8497 124.737 37.0911 127.345 37.0911C129.953 37.0911 131.726 35.866 131.726 34.061C131.726 32.1127 129.62 31.3764 127.876 30.8583C125.914 30.2751 124.232 29.7571 124.232 28.4083C124.232 27.2614 125.409 26.398 127.153 26.398C129.069 26.398 130.263 27.4504 130.263 29.0371H131.456C131.456 27.1539 129.741 25.9126 127.293 25.9126C124.845 25.9126 123.163 27.0724 123.163 28.7536ZM138.194 26.5869V36.9965H137.014V26.5869H132.617V26.0069H142.592V26.5869H138.194ZM149.206 26.0069H144.681V26.0102V36.9997H149.206C152.567 36.9997 154.796 34.8005 154.796 31.5033C154.796 28.2061 152.567 26.0069 149.206 26.0069ZM153.574 31.5033C153.574 34.4551 151.83 36.4165 149.206 36.4165V36.4198H145.874V26.5901H149.206C151.83 26.5901 153.574 28.5515 153.574 31.5033ZM271.002 37.0099V36.4463L271.252 36.2554C274.468 33.7983 277.423 31.5411 277.42 28.9526C277.42 27.4442 276.397 26.3625 274.812 26.3625C273.228 26.3625 272.159 27.48 272.159 29.1742H271.061C271.061 27.2128 272.583 25.9226 274.829 25.9226C277.091 25.9226 278.551 27.2226 278.554 29.0276C278.554 31.696 275.354 33.9766 272.371 36.0032H278.841V37.0034L271.005 37.0099H271.002ZM289.71 31.5035C289.707 28.1412 287.914 25.9159 285.228 25.9159C282.558 25.9191 280.772 28.1509 280.772 31.51C280.775 34.8691 282.568 37.0944 285.238 37.0944C287.924 37.0944 289.71 34.8626 289.71 31.5035ZM288.547 31.5035C288.547 34.5954 287.23 36.6545 285.251 36.6545C283.256 36.6545 281.916 34.5987 281.916 31.5068C281.916 28.4148 283.25 26.3557 285.245 26.3557C287.223 26.3557 288.547 28.4116 288.547 31.5035ZM294.776 26.0169V26.0006H295.594L295.601 36.9901H294.453L294.447 26.7402L291.761 27.9652L291.54 27.4928L294.773 26.0136L294.776 26.0169ZM305.975 25.9941L298.169 26.0006V27.0008H304.939C303.573 28.7276 301.067 32.4972 301.067 36.9869H302.214C302.129 31.0213 305.975 26.5903 305.975 26.5903V25.9941Z" fill="#484848"/>
</svg>
