<svg width="25" height="25" viewBox="0 0 25 25" fill="none" xmlns="http://www.w3.org/2000/svg">
<g clip-path="url(#clip0_504_1110)">
<path d="M10.2364 18.9052L20.5449 12.953C20.7066 12.86 20.8062 12.687 20.8062 12.5007C20.8062 12.3143 20.7066 12.1413 20.5449 12.0481L10.2364 6.09512C10.0747 6.00182 9.87556 6.00182 9.7138 6.09512C9.55204 6.18841 9.45247 6.36114 9.45247 6.54773V9.31906H0.553896C0.265396 9.31906 0.03125 9.5532 0.03125 9.8417V15.1581C0.03125 15.4466 0.265396 15.6807 0.553896 15.6807H9.45273V18.4518C9.45273 18.6389 9.5523 18.8111 9.71406 18.9044C9.79507 18.9514 9.88522 18.9744 9.97538 18.9744C10.0655 18.9744 10.1557 18.9514 10.2364 18.9052Z" fill="#8A8E99"/>
<path d="M21.1078 0H10.4592C10.1707 0 9.93652 0.234146 9.93652 0.522646V2.09058C9.93652 2.37909 10.1707 2.61323 10.4592 2.61323H21.1078C21.7956 2.61323 22.3546 3.17272 22.3546 3.86V21.14C22.3546 21.8275 21.7951 22.3868 21.1078 22.3868H10.4592C10.1707 22.3868 9.93652 22.6209 9.93652 22.9094V24.4774C9.93652 24.7659 10.1707 25 10.4592 25H21.1078C23.2366 25 24.9678 23.2682 24.9678 21.14V3.86027C24.9678 1.73179 23.2363 0 21.1078 0Z" fill="#8A8E99"/>
</g>
<defs>
<clipPath id="clip0_504_1110">
<rect width="25" height="25" fill="white"/>
</clipPath>
</defs>
</svg>
