<svg width="18" height="12" viewBox="0 0 18 12" fill="none" xmlns="http://www.w3.org/2000/svg">
<path d="M17.8395 10.0253C17.7911 9.94427 17.4918 9.29397 16.0517 7.95737C14.5441 6.55776 14.7466 6.78503 16.5625 4.36498C17.6685 2.89112 18.1106 1.99105 17.9722 1.60627C17.8406 1.23949 17.0272 1.33625 17.0272 1.33625L14.3225 1.352C14.3225 1.352 14.1222 1.325 13.9726 1.41388C13.8274 1.50164 13.734 1.70415 13.734 1.70415C13.734 1.70415 13.3054 2.84499 12.7338 3.81481C11.5289 5.86134 11.0462 5.96935 10.8493 5.84221C10.3914 5.54631 10.5062 4.65187 10.5062 4.01733C10.5062 2.0338 10.8066 1.20687 9.92 0.993101C9.62523 0.922221 9.40921 0.874967 8.65653 0.867092C7.69121 0.856966 6.87327 0.870467 6.41086 1.09661C6.10259 1.24737 5.8652 1.58377 6.01033 1.6029C6.18922 1.62652 6.59425 1.71203 6.80914 2.00455C7.08704 2.38145 7.07691 3.22977 7.07691 3.22977C7.07691 3.22977 7.23668 5.56432 6.70451 5.85459C6.33886 6.05373 5.83819 5.64757 4.76374 3.79006C4.21357 2.83936 3.79729 1.78741 3.79729 1.78741C3.79729 1.78741 3.71741 1.59165 3.57452 1.48701C3.40126 1.35988 3.15824 1.31938 3.15824 1.31938L0.586298 1.33513C0.586298 1.33513 0.200394 1.34638 0.0586335 1.51401C-0.067376 1.66365 0.0485078 1.97192 0.0485078 1.97192C0.0485078 1.97192 2.06241 6.68265 4.34183 9.0577C6.43337 11.2347 8.80729 11.0919 8.80729 11.0919H9.88288C9.88288 11.0919 10.208 11.0558 10.3734 10.877C10.5264 10.7127 10.5208 10.4044 10.5208 10.4044C10.5208 10.4044 10.4994 8.96094 11.17 8.7483C11.8304 8.53904 12.6787 10.1434 13.5777 10.7611C14.2572 11.228 14.7736 11.1256 14.7736 11.1256L17.1779 11.0919C17.1779 11.0919 18.4358 11.0142 17.8395 10.0253Z" fill="#fff"/>
</svg>
