<svg width="24" height="24" viewBox="0 0 24 24" fill="none" xmlns="http://www.w3.org/2000/svg">
<g clip-path="url(#clip0_504_1120)">
<mask id="path-1-inside-1_504_1120" fill="white">
<path d="M4.46836 4.80385C4.46836 3.16316 5.79842 1.8331 7.4391 1.8331C9.07979 1.8331 10.4097 3.16316 10.4097 4.80385V7.29196L10.9838 6.7736C11.0117 6.74808 11.0344 6.71765 11.0509 6.68387H11.1134V4.80385C11.1134 2.77459 9.46836 1.12939 7.4391 1.12939C5.40965 1.12939 3.76465 2.77459 3.76465 4.80385V6.68407H4.46836V4.80385Z"/>
</mask>
<path d="M4.46836 4.80385C4.46836 3.16316 5.79842 1.8331 7.4391 1.8331C9.07979 1.8331 10.4097 3.16316 10.4097 4.80385V7.29196L10.9838 6.7736C11.0117 6.74808 11.0344 6.71765 11.0509 6.68387H11.1134V4.80385C11.1134 2.77459 9.46836 1.12939 7.4391 1.12939C5.40965 1.12939 3.76465 2.77459 3.76465 4.80385V6.68407H4.46836V4.80385Z" fill="#393939"/>
<path d="M10.4097 7.29196H9.40965V9.54212L11.0798 8.0342L10.4097 7.29196ZM10.9838 6.7736L11.6539 7.51586L11.659 7.51119L10.9838 6.7736ZM11.0509 6.68387V5.68387H10.4264L10.1524 6.24504L11.0509 6.68387ZM11.1134 6.68387V7.68387H12.1134V6.68387H11.1134ZM3.76465 6.68407H2.76465V7.68407H3.76465V6.68407ZM4.46836 6.68407V7.68407H5.46836V6.68407H4.46836ZM5.46836 4.80385C5.46836 3.71545 6.3507 2.8331 7.4391 2.8331V0.833105C5.24614 0.833105 3.46836 2.61088 3.46836 4.80385H5.46836ZM7.4391 2.8331C8.52742 2.8331 9.40965 3.71536 9.40965 4.80385H11.4097C11.4097 2.61096 9.63216 0.833105 7.4391 0.833105V2.8331ZM9.40965 4.80385V7.29196H11.4097V4.80385H9.40965ZM11.0798 8.0342L11.6539 7.51584L10.3136 6.03137L9.73951 6.54973L11.0798 8.0342ZM11.659 7.51119C11.7789 7.40148 11.8776 7.26987 11.9495 7.12271L10.1524 6.24504C10.1912 6.16542 10.2444 6.09468 10.3085 6.03602L11.659 7.51119ZM11.0509 7.68387H11.1134V5.68387H11.0509V7.68387ZM12.1134 6.68387V4.80385H10.1134V6.68387H12.1134ZM12.1134 4.80385C12.1134 2.22238 10.0207 0.129395 7.4391 0.129395V2.12939C8.91601 2.12939 10.1134 3.32681 10.1134 4.80385H12.1134ZM7.4391 0.129395C4.85733 0.129395 2.76465 2.22234 2.76465 4.80385H4.76465C4.76465 3.32684 5.96197 2.12939 7.4391 2.12939V0.129395ZM2.76465 4.80385V6.68407H4.76465V4.80385H2.76465ZM3.76465 7.68407H4.46836V5.68407H3.76465V7.68407ZM5.46836 6.68407V4.80385H3.46836V6.68407H5.46836Z" fill="black" mask="url(#path-1-inside-1_504_1120)"/>
<mask id="path-3-inside-2_504_1120" fill="white">
<path d="M17.3037 15.1351C17.1503 15.2545 17.1228 15.4756 17.2422 15.6289L17.5087 15.9712C17.6598 15.7656 17.7855 15.5422 17.8825 15.3061L17.7975 15.1968C17.6781 15.0434 17.457 15.0159 17.3037 15.1351Z"/>
</mask>
<path d="M17.3037 15.1351C17.1503 15.2545 17.1228 15.4756 17.2422 15.6289L17.5087 15.9712C17.6598 15.7656 17.7855 15.5422 17.8825 15.3061L17.7975 15.1968C17.6781 15.0434 17.457 15.0159 17.3037 15.1351Z" fill="#393939"/>
<path d="M17.2422 15.6289L16.4531 16.2432L16.4532 16.2433L17.2422 15.6289ZM17.5087 15.9712L16.7196 16.5855L17.5314 17.6282L18.3143 16.5636L17.5087 15.9712ZM17.8825 15.3061L18.8074 15.6863L19.0278 15.1501L18.672 14.6924L17.8825 15.3061ZM17.7975 15.1968L18.587 14.583L18.5866 14.5825L17.7975 15.1968ZM16.6894 14.3461C16.1 14.8049 15.9947 15.6543 16.4531 16.2432L18.0313 15.0147C18.251 15.2969 18.2006 15.7042 17.918 15.9242L16.6894 14.3461ZM16.4532 16.2433L16.7196 16.5855L18.2977 15.3569L18.0313 15.0146L16.4532 16.2433ZM18.3143 16.5636C18.5136 16.2926 18.6794 15.9978 18.8074 15.6863L16.9576 14.926C16.8916 15.0865 16.8061 15.2386 16.7031 15.3787L18.3143 16.5636ZM18.672 14.6924L18.587 14.583L17.008 15.8105L17.093 15.9199L18.672 14.6924ZM18.5866 14.5825C18.1278 13.9932 17.2788 13.8879 16.69 14.3456L17.9173 15.9247C17.6352 16.1439 17.2284 16.0937 17.0084 15.8111L18.5866 14.5825Z" fill="black" mask="url(#path-3-inside-2_504_1120)"/>
<path d="M7.98464 9.15927L7.79139 9.23939L7.79133 9.23942L7.79137 9.23943L7.99325 9.29358C8.00498 9.24997 8.00258 9.2028 7.98464 9.15927ZM7.98464 9.15927L7.79176 9.23875L7.79143 9.23889L7.79124 9.23897L7.79095 9.23909L7.79064 9.23922L7.79062 9.23923L7.58921 9.1852L7.79045 9.2393L7.59773 9.31871C7.58075 9.27742 7.57698 9.2307 7.58919 9.18519C7.59891 9.14902 7.61779 9.11719 7.64293 9.09194C7.64308 9.09179 7.64322 9.09165 7.64337 9.0915C7.68164 9.05329 7.73431 9.03027 7.79124 9.03027C7.82869 9.03027 7.86453 9.04023 7.89566 9.05812C7.89578 9.05819 7.89591 9.05826 7.89603 9.05833C7.93506 9.08086 7.96664 9.11585 7.98464 9.15927ZM7.79116 9.23949L7.79124 9.23951L7.79131 9.23953L7.79141 9.23956L7.99319 9.2938C7.98383 9.3284 7.96557 9.36076 7.93909 9.38723C7.89891 9.42753 7.84536 9.44848 7.79124 9.44846C7.75543 9.44845 7.71938 9.43926 7.68678 9.42042C7.64579 9.39679 7.61529 9.36092 7.59807 9.31954L7.79099 9.23956L7.79106 9.23953L7.79116 9.23949Z" fill="#393939" stroke="black"/>
<path d="M3.26458 7.18404V6.68404H2.51836C2.19713 6.68266 1.92303 6.91612 1.87336 7.23342M3.26458 7.18404H2.51836H2.51622V7.18403C2.44291 7.18372 2.38034 7.23635 2.36779 7.30806M3.26458 7.18404V8.52519C3.26458 8.99572 3.64591 9.37705 4.11644 9.37705C4.21635 9.37705 4.31224 9.35985 4.40132 9.32826L3.77978 9.94976L3.77977 9.94977C3.2673 10.4622 3.26711 11.2932 3.77977 11.8057C3.7798 11.8057 3.77984 11.8058 3.77988 11.8058L5.22419 13.2501C5.73658 13.7628 6.56776 13.7628 7.08015 13.2501L9.16348 11.1668L7.68012 21.8088H1.65929C1.03723 21.8082 0.528721 21.3181 0.500997 20.701L2.36779 7.30806M3.26458 7.18404H3.76458V8.52519C3.76458 8.71958 3.92205 8.87705 4.11644 8.87705C4.31082 8.87705 4.46829 8.71958 4.46829 8.52519V7.18404H4.96829M2.36779 7.30806L2.36857 7.30245L1.87336 7.23342M2.36779 7.30806C2.36763 7.30896 2.36748 7.30986 2.36734 7.31076L1.87336 7.23342M1.87336 7.23342L9.07073 7.01504L9.43713 6.68404H4.96829V7.18404M4.96829 7.18404V8.52519C4.96829 8.62513 4.95109 8.72104 4.91948 8.81014L6.49017 7.23956L6.49567 7.23406L6.49571 7.23411C6.5139 7.21648 6.53283 7.19978 6.55242 7.18404H4.96829ZM10.0199 8.94434L10.0244 9.85167C10.2706 9.71424 10.5538 9.63699 10.8527 9.638M10.0199 8.94434L10.8518 10.138M10.0199 8.94434C10.1662 9.20276 10.4437 9.37705 10.7616 9.37705C11.2322 9.37705 11.6135 8.99572 11.6135 8.52519V7.18384M10.0199 8.94434L11.6135 7.18384M10.8527 9.638C10.853 9.638 10.8534 9.638 10.8538 9.638L10.8518 10.138M10.8527 9.638H10.8518V10.138M10.8527 9.638H12.8353M10.8518 10.138H12.9049L12.8353 9.638M12.8353 9.638H13.3401L13.4098 10.138L13.0049 7.23342M12.8353 9.638L12.5105 7.30824M12.5105 7.30824C12.5107 7.30918 12.5108 7.31012 12.511 7.31106L13.0049 7.23342M12.5105 7.30824L12.5097 7.30245L13.0049 7.23342M12.5105 7.30824C12.4978 7.23633 12.435 7.18357 12.3615 7.18384L12.3597 7.18385L11.6135 7.18384M13.0049 7.23342C12.955 6.91612 12.6809 6.68266 12.3597 6.68384H11.6135V7.18384M9.67132 11.1478L9.26393 11.0664L9.25882 11.0715L9.67132 11.1478Z" fill="#393939" stroke="black"/>
<path d="M5.11855 10.8778L6.5027 9.4936C6.55125 9.74036 6.67113 9.97587 6.86235 10.1671C7.05354 10.3583 7.28901 10.4782 7.53573 10.5267L6.1516 11.9109L5.11855 10.8778Z" fill="#393939" stroke="black"/>
<path d="M9.29716 22.5469L10.8591 11.3416H19.0977L19.7869 16.287L19.2511 16.2505L18.4463 15.2169C18.5595 14.8615 18.6173 14.4902 18.6169 14.116V14.1164L9.29716 22.5469ZM9.29716 22.5469C9.32323 22.9859 9.68712 23.3324 10.1309 23.3327H19.826C20.1541 23.3324 20.4403 23.1424 20.5766 22.8634C20.4933 22.8026 20.4168 22.7321 20.3488 22.6531C20.3486 22.6529 20.3484 22.6526 20.3482 22.6524L17.8528 19.7633C17.7041 19.5913 17.6302 19.3668 17.6481 19.1397L17.6481 19.1399L18.1466 19.1789L17.6482 19.1392L9.29716 22.5469ZM18.286 17.0355L17.9229 17.3181L17.8027 17.1637L17.8154 17.0002M18.286 17.0355L18.3141 17.0373L18.2864 17.0352M18.286 17.0355L17.8151 17.0048C17.8152 17.0032 17.8153 17.0017 17.8154 17.0002M18.286 17.0355L18.2864 17.0352M18.2864 17.0352L18.3174 17.011L17.822 16.9434L17.8219 16.9439L17.8204 16.9545C17.8191 16.9635 17.8169 16.9799 17.8154 17.0002M18.2864 17.0352L17.8156 16.9983L17.8154 17.0002M19.1055 10.8416H10.8513C10.61 10.8406 10.4042 11.0159 10.3665 11.2541L19.1055 10.8416ZM17.8258 16.3795L17.5083 15.9715C17.4065 16.1105 17.2948 16.2392 17.1748 16.3571L17.4837 16.7539C17.6052 16.6383 17.7196 16.5134 17.8258 16.3795ZM11.3399 14.1164C11.3399 14.1165 11.3399 14.1166 11.3399 14.1166V14.1164Z" fill="#393939" stroke="black"/>
<path d="M20.0941 18.4783C20.1273 18.5167 20.139 18.5674 20.1288 18.6145C20.1288 18.6145 20.1288 18.6146 20.1288 18.6146C20.1241 18.6361 20.1148 18.6567 20.101 18.6752C20.0709 18.7154 20.0243 18.7375 19.9765 18.7379C19.976 18.7379 19.9756 18.7379 19.9751 18.7379C19.9532 18.7379 19.9311 18.7333 19.9101 18.7237C19.889 18.7141 19.8709 18.7002 19.8565 18.6835L19.975 18.5811L19.9751 18.5811L19.9751 18.581L19.9752 18.5809L19.9753 18.5809M20.0941 18.4783C20.0791 18.4609 20.0608 18.4473 20.0404 18.4381C20.0202 18.4289 19.9979 18.424 19.9751 18.4241C19.9245 18.4241 19.8787 18.4482 19.8499 18.4867C19.8498 18.4867 19.8498 18.4868 19.8498 18.4868C19.8366 18.5044 19.8269 18.5251 19.822 18.5478C19.8112 18.5971 19.825 18.647 19.8564 18.6834L19.9749 18.5811L19.975 18.581L19.9751 18.581L19.9752 18.5809L19.9753 18.5808L19.9753 18.5808M20.0941 18.4783L19.9758 18.5804L19.9753 18.5809L19.9753 18.5809M20.0941 18.4783L19.9758 18.5804L19.9753 18.5808M19.9753 18.5808L19.9753 18.5808M19.9753 18.5808L19.9753 18.5808M19.9753 18.5808L19.9753 18.5809" fill="#393939" stroke="black"/>
<path d="M19.9768 19.4416C20.4272 19.441 20.8011 19.093 20.8338 18.6436C20.8363 18.6102 20.8368 18.577 20.8355 18.5443L20.9271 18.6504L20.8339 18.6436L20.9271 18.6504L21.2587 19.0343M19.9768 19.4416L21.2587 19.0343M19.9768 19.4416C19.9554 19.4416 19.934 19.441 19.9126 19.4394M19.9768 19.4416L19.9126 19.4394M21.2587 19.0343C21.0995 19.4853 20.7109 19.8241 20.237 19.9164L21.4149 21.2804L22.4366 20.3982L21.2587 19.0343ZM19.9126 19.4394L19.9057 19.5329L19.9126 19.4394Z" fill="#393939" stroke="black"/>
</g>
<defs>
<clipPath id="clip0_504_1120">
<rect width="23.0769" height="23.0769" fill="white" transform="translate(0 0.923096)"/>
</clipPath>
</defs>
</svg>
