<svg width="15" height="14" viewBox="0 0 15 14" fill="none" xmlns="http://www.w3.org/2000/svg">
<g clip-path="url(#clip0_557_1351)">
<path d="M1.22763 6.75014L4.45199 7.95414L5.70002 11.9697C5.77987 12.2268 6.09421 12.3219 6.30286 12.1512L8.10017 10.6853C8.28857 10.5318 8.55691 10.5241 8.7538 10.6671L11.9955 13.0218C12.2187 13.1841 12.5349 13.0617 12.5909 12.7919L14.9656 1.36364C15.0267 1.06889 14.7372 0.823004 14.4567 0.93155L1.22386 6.0388C0.897296 6.1648 0.900141 6.62736 1.22763 6.75014ZM5.49889 7.31322L11.8005 3.43022C11.9137 3.36064 12.0303 3.51385 11.933 3.6041L6.73236 8.44064C6.54956 8.61088 6.43164 8.8387 6.39824 9.08599L6.22109 10.3995C6.19762 10.5748 5.95139 10.5922 5.90302 10.4225L5.22168 8.02736C5.14364 7.75417 5.25736 7.46236 5.49889 7.31322Z" fill="#FEFEFE"/>
</g>
<defs>
<clipPath id="clip0_557_1351">
<rect width="13.9934" height="14" fill="white" transform="translate(0.980469)"/>
</clipPath>
</defs>
</svg>
