<svg width="25" height="25" viewBox="0 0 25 25" fill="none" xmlns="http://www.w3.org/2000/svg">
<rect width="25" height="25" fill="#FEFEFE"/>
<path d="M12.5 11.7188C15.5203 11.7188 17.9688 9.27031 17.9688 6.25C17.9688 3.22969 15.5203 0.78125 12.5 0.78125C9.47969 0.78125 7.03125 3.22969 7.03125 6.25C7.03125 9.27031 9.47969 11.7188 12.5 11.7188Z" fill="#393939"/>
<path d="M16.3828 13.2812H8.61719C6.954 13.2833 5.35953 13.9449 4.18348 15.121C3.00743 16.297 2.34582 17.8915 2.34375 19.5547V23.4375C2.34375 23.6447 2.42606 23.8434 2.57257 23.9899C2.71909 24.1364 2.9178 24.2188 3.125 24.2188H21.875C22.0822 24.2188 22.2809 24.1364 22.4274 23.9899C22.5739 23.8434 22.6562 23.6447 22.6562 23.4375V19.5547C22.6542 17.8915 21.9926 16.297 20.8165 15.121C19.6405 13.9449 18.046 13.2833 16.3828 13.2812Z" fill="#393939"/>
</svg>
