<svg width="32" height="32" viewBox="0 0 32 32" fill="none" xmlns="http://www.w3.org/2000/svg">
<path d="M16.0013 2.66602C8.6413 2.66602 2.66797 8.63935 2.66797 15.9993C2.66797 23.3593 8.6413 29.3327 16.0013 29.3327C23.3613 29.3327 29.3346 23.3593 29.3346 15.9993C29.3346 8.63935 23.3613 2.66602 16.0013 2.66602ZM22.188 11.7327C21.988 13.8393 21.1213 18.9593 20.6813 21.3193C20.4946 22.3193 20.1213 22.6527 19.7746 22.6927C19.0013 22.7593 18.4146 22.186 17.668 21.6927C16.4946 20.9193 15.828 20.4393 14.6946 19.6927C13.3746 18.826 14.228 18.346 14.988 17.5727C15.188 17.3727 18.6013 14.266 18.668 13.986C18.6772 13.9436 18.676 13.8996 18.6644 13.8578C18.6528 13.8159 18.6311 13.7776 18.6013 13.746C18.5213 13.6793 18.4146 13.706 18.3213 13.7193C18.2013 13.746 16.3346 14.986 12.6946 17.4393C12.1613 17.7993 11.6813 17.986 11.2546 17.9727C10.7746 17.9593 9.86797 17.706 9.18797 17.4793C8.34797 17.2127 7.69463 17.066 7.74797 16.5993C7.77463 16.3593 8.10797 16.1193 8.73464 15.866C12.628 14.1727 15.2146 13.0527 16.508 12.5193C20.2146 10.9727 20.9746 10.706 21.4813 10.706C21.588 10.706 21.8413 10.7327 22.0013 10.866C22.1346 10.9727 22.1746 11.1193 22.188 11.226C22.1746 11.306 22.2013 11.546 22.188 11.7327Z" fill="#484848"/>
</svg>
