<svg width="416" height="113" viewBox="0 0 416 113" fill="none" xmlns="http://www.w3.org/2000/svg">
<path fill-rule="evenodd" clip-rule="evenodd" d="M193.944 29.8804C198.734 30.0624 203.564 29.497 208.284 28.6238C202.388 32.5025 196.823 37.0813 193.027 43.1055C191.99 44.8649 191.026 46.8165 190.99 48.9407C191.074 52.3161 194.102 52.1956 196.263 50.6838C201.465 47.038 204.963 40.2091 207.547 34.5563C208.273 32.9003 209.013 31.148 209.648 29.3954C209.757 29.3224 209.866 29.2495 209.975 29.1768C208.944 33.4905 208.287 37.9111 208.323 42.3561C208.395 46.2039 208.812 50.3189 210.836 53.7138C212.046 55.8185 214.637 57.3335 216.348 54.8411C218.512 51.2051 217.186 45.2558 216.172 41.395C215.831 40.1547 215.439 38.9344 215.01 37.7289C216.664 41.0037 218.482 44.1937 220.595 47.2107C221.713 48.7583 222.873 50.3124 224.379 51.5472C225.608 52.6224 227.355 52.782 227.338 50.749C227.142 48.6306 226.097 46.7438 225.09 44.9241C224.996 44.754 224.902 44.5844 224.809 44.4153C221.817 39.382 218.101 34.8406 214.105 30.5811C214.076 30.2979 214.013 30.0177 213.922 29.7418C215.136 30.5763 216.58 31.1235 217.992 31.3436C219.021 31.5206 220.035 31.5426 221.037 31.4503C222.276 31.8624 223.52 32.2541 224.77 32.6209L225.084 32.7086C228.616 33.6964 236.903 36.0142 239.793 34.5921C240.054 34.4324 240.311 34.1718 240.373 33.8166C240.553 32.4622 238.571 31.6053 237.367 31.085C237.239 31.0296 237.12 30.978 237.013 30.93C234.519 29.9625 231.932 29.3108 229.318 28.8026L229.506 28.7191L229.506 28.719L229.506 28.7189L229.506 28.7188L229.507 28.7187C230.012 28.4937 230.513 28.2705 231.01 28.0562C234.442 26.6292 238.174 25.5409 241.877 26.0329C244.165 26.3457 246.469 27.3068 247.851 29.1965C249.098 30.9053 249.061 32.9888 249.024 35.0752L249.024 35.0786C249.019 35.3739 249.013 35.6692 249.012 35.9636C248.992 37.547 249.074 39.3846 249.853 40.8996C250.902 43.0434 253.493 44.3108 255.791 43.9035L255.781 43.7406C253.366 43.6103 251.15 41.9748 250.694 39.5898C250.415 38.203 250.519 36.8484 250.625 35.4746V35.4744V35.4742V35.474V35.4738V35.4736V35.4734V35.4731V35.4729C250.71 34.3749 250.796 33.2646 250.687 32.1158C250.55 29.2324 248.523 26.7595 245.919 25.655C241.424 23.5874 236.63 25.3895 232.273 27.0269L232.273 27.027C231.783 27.2112 231.299 27.3932 230.821 27.5675C229.91 27.8846 228.919 28.2195 227.881 28.537C227.151 28.4084 226.42 28.2885 225.689 28.1736C222.67 27.7143 219.633 27.4138 216.589 27.2202C218.434 26.7881 220.257 26.263 222.042 25.6291C226.582 23.974 231.165 21.6086 234.059 17.5947C235.914 15.0794 236.625 10.9156 233.068 9.52437C227.918 7.94303 221.895 12.9107 217.733 17.4907C219.461 13.4813 220.506 9.0659 219.337 4.75773C218.284 0.779602 214.233 -1.778 210.862 1.49638C207.254 5.36374 207.518 11.9777 208.095 16.8811C208.443 19.5844 209.029 22.2527 209.751 24.8784C209.644 24.803 209.535 24.7293 209.425 24.6572C207.97 21.0456 206.278 17.527 204.246 14.1997C202.381 11.1306 197.117 3.74126 192.968 5.19763C190.256 6.70938 192.101 10.9579 193.284 12.991C195.578 16.7835 198.686 19.9294 202.15 22.6623C201.798 22.6868 201.447 22.7295 201.099 22.7914C200.464 22.9009 199.855 23.0944 199.276 23.3549C195.435 22.2777 191.514 21.5357 187.519 21.3773C185.341 21.361 180.521 21.4978 180.032 24.2313C179.937 26.9844 184.396 28.3821 186.59 28.9425C188.803 29.4453 191.041 29.7328 193.291 29.8508C192.85 30.6594 192.436 31.4832 192.023 32.3058C191.57 33.2091 191.117 34.111 190.63 34.9897C187.309 40.8575 183.942 45.572 176.634 45.963L176.631 45.9597L176.618 46.1226C181.008 47.1098 185.839 44.8389 188.329 41.1605C189.564 39.3734 190.38 37.3988 191.195 35.4293C191.986 33.5159 192.775 31.6074 193.944 29.8804ZM224.042 29.5353C221.004 29.1814 217.944 28.9492 214.879 28.8136C216.1 29.2203 217.327 29.6156 218.558 29.9966C220.295 30.1291 222.178 29.9179 224.042 29.5353ZM222.657 31.2054C223.434 31.4225 224.211 31.6328 224.989 31.8357C225.22 31.8918 225.452 31.9483 225.684 32.0048L225.7 32.0085L225.704 32.0095C229.741 32.9917 233.872 33.9969 238.026 33.7938C238.392 33.7548 238.759 33.7076 239.058 33.5655C236.869 31.6099 230.541 30.4645 226.77 29.8989C225.427 30.4412 224.056 30.9157 222.657 31.2054ZM211.131 25.281C215.031 19.9707 218.601 13.5467 218.128 6.96672C217.544 0.906668 212.414 -0.745183 210.119 5.57225C208.121 11.5063 209.342 18.9507 210.933 25.2593L210.926 25.2086L211.082 25.1695L211.085 25.1663C211.1 25.2047 211.116 25.243 211.131 25.281ZM209.754 42.3528C209.76 38.2109 210.355 34.0734 211.238 30.0203C211.333 30.1171 211.429 30.2141 211.524 30.3111C212.093 31.6827 212.661 33.0729 213.131 34.3901C214.803 39.1045 216.263 43.9851 216.394 49.0059C216.407 50.2342 216.328 51.4722 216.019 52.6126C215.631 54.1373 214.559 55.7501 213.007 54.3459C210.243 51.6058 209.8 46.1192 209.754 42.3528ZM228.538 20.5758C223.76 23.6826 218.223 25.2586 212.601 26.243C213.551 24.9543 214.446 23.6211 215.274 22.2486C219.565 16.8049 225.183 11.2768 230.846 10.7071C233.737 10.5604 234.679 12.701 233.649 15.0729C232.622 17.4089 230.634 19.1618 228.538 20.5758ZM194.595 28.9772C196.434 26.5543 198.408 24.9894 200.708 24.4634C203.234 25.2947 205.719 26.2692 208.162 27.3042C203.697 28.2451 199.14 28.9456 194.595 28.9772ZM195.447 26.4926C196.264 25.425 197.29 24.4607 198.472 23.7702C194.895 22.7321 191.239 22.0234 187.509 21.8725C185.514 21.8497 183.399 21.9409 181.632 22.9118C180.563 23.5015 180.182 24.5539 180.987 25.5215C182.431 27.1506 184.673 27.7924 186.743 28.2779C189.075 28.7372 191.427 28.9499 193.783 28.9756C194.284 28.1163 194.828 27.2817 195.447 26.4926ZM204.645 24.5238C203.821 24.3346 203.037 24.2512 202.287 24.2686C203.653 24.7131 205.008 25.1925 206.353 25.6952C205.779 25.3129 205.209 24.9227 204.645 24.5238ZM209.197 29.6992C203.461 33.5789 197.973 38.0074 194.216 43.8288C193.314 45.308 191.446 48.7616 192.717 50.2342C194.308 51.2801 197.407 48.4162 198.529 47.2596C202.541 43.011 205.373 37.7948 207.903 32.5591C208.311 31.6932 208.756 30.6913 209.197 29.6992ZM212.346 31.156C213.904 34.2967 215.561 37.4044 217.345 40.4045C219.255 43.5682 221.266 46.722 223.809 49.4001C223.907 49.4937 224.008 49.5917 224.11 49.6914L224.111 49.6923C224.694 50.2607 225.336 50.8865 226.064 51.0791C226.059 47.8846 221.399 41.7193 219.356 39.1013C217.162 36.3435 214.803 33.7027 212.346 31.156ZM208.317 24.0092C206.141 18.3336 203.408 12.8053 199.177 8.41336C197.737 7.02216 195.276 4.91743 193.19 5.67331C190.924 6.98306 192.821 10.9742 193.858 12.6554C196.474 16.6975 200.064 19.934 204.005 22.6973C205.505 22.8546 206.979 23.3155 208.317 24.0092ZM167.911 111.32C167.853 111.108 167.171 109.614 165.859 106.844L162.867 100.343C159.733 93.5932 157.708 89.4189 156.799 87.8206L156.286 86.9155C156.228 86.988 156.129 87.0954 155.987 87.2346C155.845 87.3767 155.604 87.6088 155.261 87.9279C154.576 88.7111 154.008 89.3145 153.552 89.7409L152.356 90.9651V109.936C152.356 110.54 152.272 110.958 152.101 111.19C151.93 111.419 151.558 111.535 150.99 111.535C150.421 111.535 150.035 111.41 149.835 111.161C149.634 110.911 149.536 110.467 149.536 109.829V93.7354C149.536 91.641 149.62 88.2296 149.791 83.5042L149.962 73.2729C149.962 72.6 150.017 71.9763 150.133 71.4077C150.305 70.9813 150.618 70.7666 151.074 70.7666C151.93 70.7666 152.44 70.8914 152.612 71.1408C152.838 71.3903 152.954 72.0285 152.954 73.0583L152.783 81.9029L152.612 88.3514H152.696C153.778 86.8604 155.316 84.621 157.313 81.636L160.476 76.6785C163.668 71.7413 165.691 69.2727 166.544 69.2727C166.942 69.2727 167.284 69.3452 167.571 69.4845C167.856 69.6266 167.998 69.8239 167.998 70.0704C167.827 70.7463 167.371 71.457 166.631 72.2025L165.775 73.1627C164.806 74.5841 163.381 76.7162 161.501 79.5561C159.22 83.0023 157.995 84.8153 157.824 84.9923C157.766 85.2417 157.795 85.4535 157.908 85.6334C159.048 87.4464 160.328 89.6829 161.753 92.3488C163.178 95.0117 164.344 97.3237 165.259 99.2759C165.953 100.803 166.653 102.348 167.361 103.911L168.207 105.777C169.202 107.978 169.902 109.559 170.302 110.52C170.415 110.734 170.473 110.856 170.473 110.894C170.473 111.143 170.317 111.338 170.003 111.48C169.69 111.622 169.333 111.694 168.935 111.694C168.422 111.694 168.079 111.57 167.911 111.32ZM1.73466 110.041C1.73466 110.363 1.86525 110.63 2.12063 110.842H2.11482C2.3731 111.053 2.69812 111.161 3.0986 111.161C6.51714 111.161 8.82713 111.143 10.0227 111.108H10.7076L11.3054 111.056C11.6479 111.056 11.9032 110.958 12.0745 110.763C12.2457 110.569 12.3298 110.328 12.3298 110.044C12.3298 109.403 11.9584 109.084 11.2184 109.084H5.91933C5.23446 109.084 4.86301 109.066 4.80787 109.031C4.63665 109.031 4.5525 108.979 4.5525 108.872L4.03884 102.264C3.69641 98.8901 3.52519 96.4534 3.52519 94.9624L3.0986 85.4245C2.92738 82.1553 2.84322 77.2355 2.84322 70.6622C2.84322 70.1284 2.33247 69.8616 1.30517 69.8616C0.965635 69.8616 0.663828 69.9225 0.408453 70.0472C0.153078 70.172 0.0253906 70.3228 0.0253906 70.4997C0.0253906 72.9509 0.196608 76.664 0.539043 81.636C0.823438 87.1418 0.965635 90.8548 0.965635 92.7723C0.965635 94.8348 1.07881 97.3556 1.30807 100.341C1.59247 103.149 1.73466 105.669 1.73466 107.909V110.041ZM23.1049 110.36C23.2761 110.325 23.5054 110.308 23.7898 110.308L23.7927 110.302C24.019 110.659 24.788 110.836 26.0997 110.836C26.4422 110.836 26.9529 110.731 27.6378 110.517C28.3198 110.34 28.8334 110.25 29.1758 110.25C29.6895 110.25 30.1741 110.267 30.6297 110.302C31.0273 110.374 31.4829 110.409 31.9966 110.409C32.5654 110.409 33.021 110.311 33.3634 110.116C33.7059 109.922 33.8771 109.664 33.8771 109.345C33.8771 108.849 33.05 108.599 31.3988 108.599H30.1161C29.7737 108.634 29.3471 108.651 28.8334 108.651C27.5798 108.651 26.9529 108.471 26.9529 108.118L27.0371 108.01C26.8659 107.833 26.7817 107.337 26.7817 106.519C26.7817 106.128 26.8078 105.809 26.8659 105.559V104.866C26.8659 103.552 26.7817 101.597 26.6105 99.0032C26.3812 96.7318 26.2681 94.7941 26.2681 93.1957L26.4393 86.8545C26.4944 84.9719 26.5234 82.8572 26.5234 80.5133C26.5234 78.9527 26.4393 78.0099 26.2681 77.6908L26.6946 77.5313C27.9454 77.5313 28.7725 77.6357 29.1729 77.8504L31.1376 77.743C31.3088 77.5284 31.393 77.3891 31.393 77.3166C31.393 76.9279 30.8822 76.6233 29.8549 76.4115C28.5432 76.1273 27.2315 75.9677 25.9227 75.9329C23.7549 75.7908 21.59 75.7182 19.4252 75.7182C19.0827 75.7182 18.6561 75.7908 18.1425 75.9329C17.6288 76.0751 17.3735 76.2172 17.3735 76.3593C17.3735 76.9627 17.9161 77.2644 18.9986 77.2644C19.3961 77.2644 19.7676 77.247 20.11 77.2122L21.0503 77.16C22.2488 77.16 23.102 77.2122 23.6156 77.3195C23.9 78.7409 24.0422 80.8005 24.0422 83.5012L23.871 89.6828C23.6998 92.4531 23.6156 94.5301 23.6156 95.9167L23.7869 99.8067L23.9581 101.779C24.1293 103.485 24.2134 105.42 24.2134 107.587L24.1293 108.228L23.9581 108.706L23.6156 108.918H21.1373L20.7107 109.185C20.2522 109.365 20.0259 109.577 20.0259 109.826C20.3683 110.183 21.1664 110.36 22.42 110.36H23.1049ZM47.3832 110.096L47.299 108.123C47.241 107.555 47.2149 106.917 47.2149 106.206C47.2149 105.852 47.2439 105.547 47.299 105.301L47.3832 104.341C47.3832 103.987 47.2671 103.56 47.0408 103.061C47.0408 100.683 46.7535 96.259 46.1847 89.7931C45.613 83.5418 45.2996 79.295 45.2444 77.0585C41.7098 77.0585 39.3447 77.0062 38.1491 76.8989C37.0086 76.722 36.4398 76.4377 36.4398 76.0461C36.7242 75.6545 37.264 75.4601 38.0649 75.4601C39.7742 75.4601 42.2525 75.5326 45.5027 75.6719C48.4656 75.8517 50.9439 75.9387 52.9405 75.9387H54.7368L56.5332 75.8865C57.5576 75.8865 58.0712 76.1186 58.0712 76.5798C58.0712 76.7945 57.8855 76.9627 57.5169 77.0875C57.1455 77.2122 56.7044 77.2731 56.1907 77.2731C55.0503 77.2731 53.8546 77.2383 52.601 77.1658L48.9242 77.0585C48.6949 77.0585 48.5817 77.1107 48.5817 77.218C48.5237 77.3253 48.4976 77.6618 48.4976 78.2304C48.4976 81.6766 48.84 86.898 49.522 93.8977C50.1488 101.144 50.4622 106.351 50.4622 109.51C50.4622 109.759 50.2184 109.989 49.7367 110.203C49.2521 110.415 48.782 110.522 48.3263 110.522L47.3861 110.096H47.3832ZM72.6858 108.123L72.7699 110.096H72.7757L73.716 110.522C74.1716 110.522 74.6417 110.415 75.1263 110.203C75.6081 109.989 75.8518 109.759 75.8518 109.51C75.8518 106.351 75.5384 101.144 74.9116 93.8977C74.2267 86.898 73.8843 81.6766 73.8843 78.2304C73.8843 77.6618 73.9104 77.3253 73.9684 77.218C73.9684 77.1107 74.0816 77.0585 74.3109 77.0585L77.9877 77.1658C79.2414 77.2383 80.437 77.2731 81.5775 77.2731C82.0882 77.2731 82.5293 77.2122 82.9008 77.0875C83.2722 76.9627 83.458 76.7945 83.458 76.5798C83.458 76.1186 82.9472 75.8865 81.9199 75.8865L80.1236 75.9387H78.3272C76.3307 75.9387 73.8524 75.8517 70.8894 75.6719C67.6392 75.5326 65.1609 75.4601 63.4516 75.4601C62.6507 75.4601 62.1109 75.6545 61.8265 76.0461C61.8265 76.4377 62.3953 76.722 63.5358 76.8989C64.7314 77.0062 67.0965 77.0585 70.6312 77.0585C70.6863 79.295 71.0026 83.5418 71.5714 89.7931C72.1431 96.259 72.4275 100.683 72.4275 103.061C72.6538 103.56 72.7699 103.987 72.7699 104.341L72.6858 105.301C72.6306 105.547 72.6016 105.852 72.6016 106.206C72.6016 106.917 72.6277 107.555 72.6858 108.123ZM92.6021 110.308C92.7153 110.096 92.7734 109.507 92.7734 108.55C92.7734 105.281 92.8575 100.433 93.0287 94.0023C93.2 87.6088 93.2841 82.9907 93.2841 80.1479L93.4553 78.2305L93.7107 76.6321C93.7107 76.3826 93.9109 76.2579 94.3085 76.2579C94.5929 76.2579 94.9934 76.3101 95.5041 76.4174L95.7595 76.4697C95.7595 77.2529 95.7305 77.9607 95.6753 78.6018V86.4891C95.7305 88.1948 95.7595 90.1296 95.7595 92.2966C95.7015 92.4735 95.6753 92.8651 95.6753 93.4685L95.5912 94.5882C95.5331 95.2989 95.507 96.027 95.507 96.7725C95.507 97.5906 95.536 98.3361 95.5912 99.012L95.6753 101.304L95.42 101.73L95.5041 101.678C95.5041 101.785 95.4751 101.858 95.42 101.892V102.104C95.42 102.389 95.5041 102.638 95.6753 102.85L95.42 107.967V108.286C95.42 108.889 95.449 109.246 95.5041 109.351C95.5041 109.53 95.6463 109.617 95.9307 109.617L100.377 109.725C101.688 109.725 102.585 109.733 103.07 109.751C103.554 109.768 103.853 109.777 103.966 109.777H104.222C104.506 109.777 104.79 109.876 105.078 110.07C105.362 110.264 105.504 110.47 105.504 110.682C105.504 111.108 105.049 111.338 104.138 111.375C103.168 111.34 100.803 111.323 97.0422 111.323L97.2134 111.375C96.6446 111.375 96.1019 111.393 95.5883 111.428C95.1327 111.497 94.619 111.535 94.0502 111.535C93.2522 111.535 92.7675 111.126 92.5963 110.311L92.6021 110.308ZM113.716 109.722V110.415C113.83 111.161 114.401 111.535 115.426 111.535H122.434C124.941 111.535 126.195 111.216 126.195 110.575C126.195 110.113 125.368 109.881 123.717 109.881C123.09 109.881 122.521 109.899 122.007 109.934L120.469 109.986C119.103 109.986 118.162 109.852 117.649 109.585C117.135 109.319 116.848 108.779 116.793 107.961C116.621 106.505 116.537 105.083 116.537 103.697L116.621 99.9141C116.677 98.777 116.706 97.518 116.706 96.1314C116.706 93.9297 116.648 92.5257 116.534 91.9223V91.7628L116.961 91.4959H117.388L120.124 91.7628C120.58 92.0471 121.236 92.1892 122.092 92.1892C122.66 92.1892 123.09 92.0557 123.374 91.7889C123.659 91.522 123.801 91.1942 123.801 90.8026C123.801 90.1615 122.689 89.8424 120.467 89.8424C119.953 89.8424 119.468 89.8598 119.013 89.8946L117.646 89.9468C116.848 89.9468 116.45 89.4508 116.45 88.4558C116.45 86.9271 116.476 85.5434 116.534 84.2989C116.648 83.0922 116.706 81.7259 116.706 80.1972C116.706 78.9904 116.677 78.2246 116.621 77.9055L117.048 77.5864C118.415 77.5864 120.725 77.9258 123.972 78.5988C125.055 78.2449 125.597 77.891 125.597 77.5342C125.597 77.2151 125.055 76.9482 123.972 76.7365C122.945 76.5247 121.72 76.3652 120.295 76.2579C118.757 76.1534 117.93 76.0809 117.817 76.0461C117.477 75.8343 117.019 75.727 116.45 75.727C115.597 75.727 114.967 75.8459 114.57 76.0751C114.172 76.3072 113.972 76.6872 113.972 77.2209C113.972 78.3929 114.027 79.4575 114.143 80.4176L114.314 83.6143C114.314 85.819 114.198 88.4993 113.972 91.6612C113.801 95.2118 113.716 97.8777 113.716 99.653L113.888 103.169C114.059 104.695 114.143 105.869 114.143 106.685C114.143 107.395 113.914 108.123 113.458 108.869L113.801 109.081C113.801 109.33 113.772 109.545 113.716 109.722ZM197.488 109.774C197.657 110.2 197.842 110.519 198.042 110.734L198.04 110.725C198.24 110.937 198.568 111.045 199.023 111.045L199.879 110.885L199.964 110.937V110.885L201.418 110.673C201.986 110 202.587 105.809 203.214 98.0981C203.841 90.3877 204.154 84.8472 204.154 81.4706L204.581 81.0442V77.4733C204.581 77.0845 204.392 76.7277 204.024 76.4087C203.652 76.0896 203.211 75.93 202.697 75.93C201.899 75.93 201.502 76.3042 201.502 77.0497C201.502 77.334 201.528 77.5661 201.586 77.743L201.67 78.3812C201.67 89.8569 201.014 99.5369 199.702 107.424L199.531 107.584C198.051 105.951 196.769 103.624 195.686 100.604C195.344 99.6443 194.888 98.5449 194.319 97.3004C193.521 95.7369 191.499 92.5575 188.251 87.7625C185.059 83.214 183.007 79.6808 182.096 77.1571C182.041 77.0497 182.012 76.9627 182.012 76.8902L181.841 76.5711C181.841 76.3941 181.725 76.2346 181.498 76.0925C181.214 75.9155 180.956 75.8082 180.729 75.7734L179.873 75.8807L179.618 75.7212C178.593 76.2549 178.08 77.392 178.08 79.1325V79.8258C178.08 80.8585 177.996 82.4221 177.824 84.5165C177.653 86.6486 177.569 88.2295 177.569 89.2593C177.569 90.965 177.653 93.5206 177.824 96.932C177.996 100.34 178.08 102.899 178.08 104.605C178.08 105.243 178.022 105.829 177.908 106.363L177.737 108.068C177.737 109.986 178.338 110.946 179.534 110.946C179.989 110.946 180.375 110.839 180.689 110.627C181.002 110.415 181.159 110.166 181.159 109.881C181.159 109.42 181.043 109.046 180.816 108.762V103.967C180.419 103.363 180.218 100.094 180.218 94.1617H180.474L180.303 92.456C180.187 91.8875 180.131 91.2145 180.131 90.4313C180.131 89.97 180.158 89.5436 180.216 89.152L180.3 87.8727L180.216 85.7957C180.16 85.1924 180.131 84.4817 180.131 83.6636C180.131 82.1349 180.361 80.8933 180.816 79.9332C182.128 80.7512 185.349 86.0974 190.477 95.9718L191.162 97.2511C192.131 98.9916 192.671 99.8995 192.787 99.9692L194.325 102.739C195.805 105.156 196.774 107.198 197.23 108.869L197.146 109.028C197.317 109.24 197.43 109.49 197.488 109.774ZM218.856 110.308C218.571 110.308 218.342 110.325 218.171 110.36H217.486C216.232 110.36 215.434 110.183 215.092 109.826C215.092 109.577 215.318 109.365 215.777 109.185L216.203 108.918H218.682L219.024 108.706L219.195 108.228L219.279 107.587C219.279 105.42 219.195 103.485 219.024 101.779L218.853 99.8067L218.682 95.9167C218.682 94.5301 218.766 92.4531 218.937 89.6828L219.108 83.5012C219.108 80.8005 218.966 78.7409 218.682 77.3195C218.168 77.2122 217.315 77.16 216.116 77.16L215.176 77.2122C214.834 77.247 214.462 77.2644 214.065 77.2644C212.982 77.2644 212.439 76.9627 212.439 76.3593C212.439 76.2172 212.695 76.0751 213.208 75.9329C213.722 75.7908 214.149 75.7182 214.491 75.7182C216.656 75.7182 218.821 75.7908 220.989 75.9329C222.297 75.9677 223.609 76.1273 224.921 76.4115C225.948 76.6233 226.459 76.9279 226.459 77.3166C226.459 77.3891 226.375 77.5284 226.204 77.743L224.239 77.8504C223.838 77.6357 223.011 77.5313 221.761 77.5313L221.334 77.6908C221.505 78.0099 221.589 78.9527 221.589 80.5133C221.589 82.8572 221.56 84.9719 221.505 86.8545L221.334 93.1957C221.334 94.7941 221.447 96.7318 221.676 99.0032C221.848 101.597 221.932 103.552 221.932 104.866V105.559C221.874 105.809 221.848 106.128 221.848 106.519C221.848 107.337 221.932 107.833 222.103 108.01L222.019 108.118C222.019 108.471 222.646 108.651 223.899 108.651C224.413 108.651 224.84 108.634 225.182 108.599H226.465C228.116 108.599 228.943 108.849 228.943 109.345C228.943 109.664 228.772 109.922 228.429 110.116C228.087 110.311 227.631 110.409 227.063 110.409C226.549 110.409 226.093 110.374 225.696 110.302C225.24 110.267 224.755 110.25 224.242 110.25C223.899 110.25 223.386 110.34 222.704 110.517C222.019 110.731 221.508 110.836 221.166 110.836C219.854 110.836 219.085 110.659 218.859 110.302L218.856 110.308ZM242.368 108.123L242.452 110.096H242.458L243.398 110.522C243.854 110.522 244.324 110.415 244.808 110.203C245.29 109.989 245.534 109.759 245.534 109.51C245.534 106.351 245.22 101.144 244.594 93.8977C243.909 86.898 243.566 81.6766 243.566 78.2304C243.566 77.6618 243.592 77.3253 243.65 77.218C243.65 77.1107 243.764 77.0585 243.993 77.0585L247.67 77.1658C248.923 77.2383 250.119 77.2731 251.259 77.2731C251.773 77.2731 252.214 77.2122 252.586 77.0875C252.954 76.9627 253.14 76.7945 253.14 76.5798C253.14 76.1186 252.629 75.8865 251.602 75.8865L249.805 75.9387H248.009C246.013 75.9387 243.534 75.8517 240.571 75.6719C237.321 75.5326 234.843 75.4601 233.134 75.4601C232.333 75.4601 231.793 75.6545 231.508 76.0461C231.508 76.4377 232.077 76.722 233.218 76.8989C234.416 77.0062 236.778 77.0585 240.313 77.0585C240.368 79.295 240.685 83.5418 241.253 89.7931C241.822 96.259 242.109 100.683 242.109 103.061C242.336 103.56 242.452 103.987 242.452 104.341L242.368 105.301C242.313 105.547 242.284 105.852 242.284 106.206C242.284 106.917 242.31 107.555 242.368 108.123ZM261.341 111.027C260.772 110.798 260.456 110.52 260.401 110.2L260.828 109.774C261.054 109.774 261.568 109.826 262.366 109.934C262.992 110.076 263.506 110.145 263.904 110.145C265.157 110.145 266.269 109.835 267.238 109.214C268.207 108.593 268.947 107.784 269.461 106.789C270.259 104.941 270.657 103.201 270.657 101.568C270.657 99.1164 269.461 96.4883 267.067 93.6803C265.584 92.0471 264.443 90.7504 263.648 89.7902C262.85 88.8301 262.136 87.7307 261.512 86.4862C260.772 85.03 260.401 83.626 260.401 82.2771C260.401 80.9978 260.915 79.4894 261.939 77.7489C262.453 76.9309 263.178 76.2666 264.118 75.7502C265.059 75.2339 266.069 74.9786 267.154 74.9786C267.894 74.9786 268.619 75.1382 269.333 75.4573C270.044 75.7764 270.401 76.1158 270.401 76.4697C270.401 76.7539 270.03 76.8961 269.29 76.8961C269.06 76.8961 268.776 76.8439 268.434 76.7365C268.091 76.6292 267.778 76.577 267.493 76.577C266.637 76.577 265.868 76.7916 265.186 77.2181C264.504 77.6445 263.991 78.1956 263.648 78.8715C262.963 80.1856 262.621 81.3953 262.621 82.4947C262.621 83.1706 262.763 83.8639 263.048 84.5746C263.103 84.7863 263.161 84.9662 263.219 85.1083C263.274 85.2505 263.303 85.3578 263.303 85.4274L263.817 86.492L264.243 87.4522L264.928 88.4123C265.099 88.6618 265.282 88.8823 265.485 89.0766C265.685 89.2739 265.871 89.4595 266.039 89.6365L267.067 90.7562C267.293 90.968 267.778 91.4756 268.521 92.2763C269.261 93.074 269.946 93.921 270.572 94.8058C271.141 95.5513 271.568 96.2533 271.855 96.9118C272.139 97.5703 272.395 98.3593 272.624 99.2846C272.795 100.172 272.879 101.15 272.879 102.214C272.879 103.92 272.508 105.519 271.768 107.01C270.741 108.785 269.261 110.029 267.322 110.74C266.24 111.166 264.986 111.378 263.561 111.378L263.135 111.486C262.508 111.413 261.907 111.262 261.338 111.033L261.341 111.027ZM269.975 76.7365C269.975 76.7017 269.946 76.6814 269.89 76.6814V76.7365H269.975ZM297.412 111.59C298.039 111.767 298.623 111.883 299.165 111.935H299.171C299.711 111.99 300.497 112.016 301.522 112.016C303.231 112.016 304.798 111.697 306.223 111.056C307.645 110.418 308.785 109.583 309.641 108.553C311.351 106.421 312.207 104.323 312.207 102.264C312.207 100.738 311.893 99.1395 311.267 97.4687C310.811 96.2271 310.254 95.1074 309.601 94.1124C308.945 93.1203 308.019 91.8585 306.824 90.3297L305.967 89.21L302.976 85.32C302.006 84.0407 301.237 82.6628 300.668 81.1892C300.097 79.7156 299.812 78.2855 299.812 76.8989C299.812 76.0113 300.01 75.1932 300.41 74.4477C300.866 73.563 301.591 72.8145 302.59 72.2112C303.585 71.6078 304.74 71.3061 306.052 71.3061C306.507 71.3061 306.992 71.396 307.506 71.573C308.074 71.7528 308.53 71.8399 308.872 71.8399C309.215 71.8399 309.386 71.6977 309.386 71.4134C309.386 71.0944 308.901 70.7666 307.932 70.4272C306.963 70.0878 306.139 69.9195 305.454 69.9195C303.687 69.9195 302.09 70.3285 300.666 71.1466C299.354 71.9269 298.399 72.861 297.801 73.943C297.203 75.025 296.905 76.1534 296.905 77.3253C296.905 79.1732 297.302 80.8962 298.1 82.4946C298.669 83.7042 299.325 84.8037 300.065 85.7986C300.805 86.7936 301.887 88.1802 303.312 89.9555C303.997 90.7358 304.482 91.3218 304.766 91.7134C306.078 93.277 307.131 94.9478 307.929 96.7232C308.724 98.5014 309.125 100.259 309.125 102C309.125 103.563 308.556 105.356 307.416 107.381C306.844 108.411 306.031 109.243 304.978 109.884C303.922 110.525 302.77 110.844 301.516 110.844C300.889 110.844 300.12 110.702 299.209 110.418C298.24 110.168 297.441 110.044 296.815 110.044C296.188 110.044 295.874 110.258 295.874 110.685C296.217 111.074 296.728 111.375 297.412 111.59ZM329.384 110.096L329.299 108.123C329.241 107.555 329.215 106.917 329.215 106.206C329.215 105.852 329.244 105.547 329.299 105.301L329.384 104.341C329.384 103.987 329.268 103.56 329.041 103.061C329.041 100.683 328.757 96.259 328.185 89.7931C327.613 83.5418 327.3 79.295 327.245 77.0585C323.71 77.0585 321.345 77.0062 320.149 76.8989C319.009 76.722 318.44 76.4377 318.44 76.0461C318.725 75.6545 319.264 75.4601 320.065 75.4601C321.775 75.4601 324.253 75.5326 327.503 75.6719C330.466 75.8517 332.944 75.9387 334.941 75.9387H336.737L338.534 75.8865C339.561 75.8865 340.072 76.1186 340.072 76.5798C340.072 76.7945 339.886 76.9627 339.517 77.0875C339.146 77.2122 338.705 77.2731 338.191 77.2731C337.051 77.2731 335.855 77.2383 334.601 77.1658L330.925 77.0585C330.695 77.0585 330.582 77.1107 330.582 77.218C330.524 77.3253 330.498 77.6618 330.498 78.2304C330.498 81.6766 330.84 86.898 331.525 93.8977C332.152 101.144 332.466 106.351 332.466 109.51C332.466 109.759 332.222 109.989 331.74 110.203C331.255 110.415 330.785 110.522 330.33 110.522L329.389 110.096H329.384ZM348.018 90.3792V92.2444L348.015 92.2473C348.015 105.321 351.346 111.857 358.015 111.857C359.327 111.857 360.438 111.642 361.349 111.216C362.316 110.789 363.128 110.259 363.784 109.617C364.44 108.976 365.023 108.179 365.537 107.218C366.335 105.617 366.904 103.72 367.246 101.515C367.473 100.059 367.589 98.4261 367.589 96.613L367.505 93.4163C367.449 92.491 367.42 91.4438 367.42 90.2718L367.592 90.005C367.592 87.8003 367.293 85.6537 366.695 83.5564C366.097 81.462 365.197 79.7738 364.002 78.4945C362.919 77.2529 361.837 76.5596 360.754 76.4175C358.987 76.3131 357.191 76.0636 355.368 75.672C354.858 75.5647 354.457 75.5124 354.173 75.5124C350.069 75.5124 348.018 80.467 348.018 90.3792ZM364.603 101.304C364.373 103.363 363.717 105.388 362.635 107.378H362.629C361.547 109.33 359.896 110.308 357.673 110.308C356.532 110.308 355.537 109.881 354.681 109.029C353.827 108.245 353.172 107.305 352.716 106.203C352.26 105.104 351.863 103.752 351.52 102.154C351.062 99.9867 350.835 98.0693 350.835 96.3984L350.751 94.2663C350.696 93.66 350.667 92.9696 350.667 92.1864L350.838 89.683C351.01 88.5488 351.094 87.7133 351.094 87.1796C351.436 86.2223 351.607 84.4267 351.607 81.7985C351.721 80.8036 351.834 80.0406 351.95 79.5069C352.463 77.9462 354.028 77.163 356.651 77.163C358.645 77.163 360.342 77.7316 361.738 78.8687C363.134 80.0058 363.833 81.3547 363.833 82.9183L363.662 83.1851L364.005 83.6115C364.005 84.7139 364.144 86.8112 364.431 89.9005C364.774 92.6737 364.945 94.7681 364.945 96.1895C364.945 97.4659 364.829 99.1716 364.603 101.304ZM391.786 111.48C391.101 111.018 390.361 109.794 389.563 107.804C388.765 105.814 388.025 103.578 387.34 101.089C386.884 99.0641 386.228 97.0567 385.372 95.0668C384.688 93.2915 384.032 92.4038 383.408 92.4038H383.152C381.899 92.4038 381.272 92.6533 381.272 93.1493C381.272 95.7078 381.498 99.5978 381.957 104.819C382.183 108.016 382.441 109.881 382.726 110.415L382.041 111.32H380.845L380.16 110.894C379.249 94.4808 378.794 83.2894 378.794 77.3224C378.794 76.9308 378.837 76.6117 378.921 76.3622C379.005 76.1128 379.191 75.8836 379.478 75.6689C379.705 75.4195 380.105 75.2947 380.674 75.2947C383.582 75.2947 385.918 75.7386 387.685 76.6262C389.45 77.5139 390.335 78.7931 390.335 80.464V84.354C390.335 85.0299 389.978 85.935 389.267 87.0721C388.553 88.2092 387.769 89.2564 386.916 90.2166L385.805 91.5481C386.432 93.3611 387.671 96.6187 389.522 101.327C391.374 106.035 392.387 108.529 392.558 108.814C392.613 108.849 392.685 108.939 392.772 109.081C392.857 109.223 393.042 109.435 393.33 109.722C393.727 110.218 393.927 110.647 393.927 111.001C393.927 111.497 393.614 111.747 392.987 111.747L391.792 111.48H391.786ZM384.606 90.057C385.462 89.384 386.144 88.5109 386.658 87.4463C387.569 85.2794 388.025 83.5563 388.025 82.277C388.025 81.4619 387.952 80.786 387.81 80.2523C387.668 79.7185 387.424 79.1528 387.085 78.5466C386.4 77.3021 384.777 76.6813 382.212 76.6813C381.925 76.6813 381.698 76.8322 381.527 77.1339C381.356 77.4355 381.272 77.7459 381.272 78.065C381.272 80.4466 381.327 82.5961 381.443 84.5136C381.498 86.431 381.527 88.5805 381.527 90.9621L381.698 91.0694C382.781 91.0694 383.75 90.7329 384.606 90.057ZM407.94 111.053C407.998 111.161 408.167 111.285 408.454 111.428L408.448 111.422C408.733 111.564 408.962 111.636 409.133 111.636C410.332 111.636 410.929 110.43 410.929 108.013V103.537C410.874 102.296 410.845 100.892 410.845 99.3283C410.845 98.6524 410.729 97.8372 410.503 96.8771C410.273 95.4557 410.16 94.655 410.16 94.4781C410.16 94.2634 410.245 93.9965 410.416 93.6775C410.587 93.3584 410.671 93.1118 410.671 92.9319C410.671 92.6854 410.529 92.3837 410.244 92.0269C410.244 90.6055 410.587 88.9897 411.272 87.1767C411.841 85.6509 412.552 84.0148 413.408 82.2743C415.117 78.6135 415.973 76.5191 415.973 75.9853C415.973 75.8432 415.857 75.7184 415.631 75.6111C415.401 75.5038 415.146 75.4516 414.862 75.4516C414.119 75.4516 413.379 76.4465 412.639 78.4365C411.957 80.1422 411.243 82.2395 410.503 84.7255C409.821 86.8924 409.249 88.1543 408.793 88.5082L408.965 88.775L408.622 89.7352C408.164 89.6627 407.427 88.5285 406.399 86.3239L405.375 84.2991C404.693 82.7732 403.924 81.2271 403.068 79.6636C401.985 77.4589 401.158 76.3247 400.59 76.2522L399.394 76.8382C399.565 77.4444 399.821 78.1 400.163 78.8107C400.787 80.3046 402.128 82.7384 404.179 86.1121C404.864 87.3217 405.549 88.5111 406.231 89.683C406.913 90.8549 407.427 91.6904 407.769 92.1864L407.514 92.8275L408.027 93.5208L408.454 97.3035C408.625 99.2238 408.709 100.697 408.709 101.727C408.709 107.094 408.454 110.201 407.94 111.053ZM113.216 36.9932V26.0069H121.429V26.5869H114.409V31.0765H120.533V31.6564H114.409V36.4133H121.429V36.9932H113.216ZM123.173 28.7536C123.173 30.5749 125.167 31.3145 127.413 31.9726L127.416 31.9693C128.86 32.3962 130.682 32.9761 130.682 34.4357C130.682 35.6771 129.395 36.6024 127.495 36.6024C125.483 36.6024 124.212 35.5532 124.212 33.9666H123.019C123.019 35.8497 124.747 37.0911 127.354 37.0911C129.962 37.0911 131.735 35.866 131.735 34.061C131.735 32.1127 129.629 31.3764 127.886 30.8583C125.923 30.2751 124.242 29.7571 124.242 28.4083C124.242 27.2614 125.418 26.398 127.162 26.398C129.079 26.398 130.272 27.4504 130.272 29.0371H131.464C131.464 27.1539 129.75 25.9126 127.302 25.9126C124.854 25.9126 123.173 27.0724 123.173 28.7536ZM138.202 26.5869V36.9965H137.022V26.5869H132.625V26.0069H142.599V26.5869H138.202ZM149.212 26.0069H144.688V26.0102V36.9997H149.212C152.573 36.9997 154.802 34.8005 154.802 31.5033C154.802 28.2061 152.573 26.0069 149.212 26.0069ZM153.58 31.5033C153.58 34.4551 151.836 36.4165 149.212 36.4165V36.4198H145.881V26.5901H149.212C151.836 26.5901 153.58 28.5515 153.58 31.5033ZM270.993 37.0099V36.4463L271.243 36.2554C274.459 33.7983 277.414 31.5411 277.41 28.9526C277.41 27.4442 276.387 26.3625 274.803 26.3625C273.219 26.3625 272.15 27.48 272.15 29.1742H271.052C271.052 27.2128 272.574 25.9226 274.82 25.9226C277.081 25.9226 278.541 27.2226 278.545 29.0276C278.545 31.696 275.344 33.9766 272.362 36.0032H278.831V37.0034L270.997 37.0099H270.993ZM289.699 31.5035C289.696 28.1412 287.903 25.9159 285.218 25.9159C282.548 25.9191 280.762 28.1509 280.762 31.51C280.765 34.8691 282.558 37.0944 285.227 37.0944C287.913 37.0944 289.699 34.8626 289.699 31.5035ZM288.536 31.5035C288.536 34.5954 287.219 36.6545 285.24 36.6545C283.246 36.6545 281.906 34.5987 281.906 31.5068C281.906 28.4148 283.239 26.3557 285.234 26.3557C287.212 26.3557 288.536 28.4116 288.536 31.5035ZM294.764 26.0169V26.0006H295.582L295.589 36.9901H294.442L294.435 26.7402L291.75 27.9652L291.528 27.4928L294.761 26.0136L294.764 26.0169ZM305.962 25.9941L298.157 26.0006V27.0008H304.926C303.56 28.7276 301.054 32.4972 301.054 36.9869H302.201C302.117 31.0213 305.962 26.5903 305.962 26.5903V25.9941Z" fill="#484848"/>
</svg>
