<svg width="247" height="28" viewBox="0 0 247 28" fill="none" xmlns="http://www.w3.org/2000/svg">
<path d="M0.00784373 22.6254C3.52154 22.4369 5.14048 20.1642 6.73747 17.3355C7.49287 15.9691 8.07743 14.4864 9.05381 13.2393C9.71517 12.3723 10.6633 11.6467 11.7714 11.4551C13.4107 11.1629 15.166 11.7566 16.3962 12.8247C17.1265 13.4702 18.1358 14.477 18.0246 15.534H17.9462C17.697 14.4094 15.6925 13.1419 14.6864 12.7022C11.9704 11.5022 10.0976 12.377 8.43319 14.7251C7.21233 16.4418 6.8362 18.5622 5.63102 20.3103C4.43366 22.0835 2.11104 23.1782 0 22.7023L0.00627499 22.6238L0.00784373 22.6254Z" fill="black"/>
<path d="M16.221 13.6254C15.8621 14.7987 15.3606 16.008 14.8716 17.1263C13.6288 19.8514 11.9472 23.1434 9.44591 24.9009C8.40685 25.6297 6.9509 25.6878 6.91016 24.0607C6.9274 23.0366 7.39129 22.0958 7.88967 21.2477C9.94585 17.976 13.0818 15.5887 16.3087 13.572L16.3213 14.1296C13.1398 12.2228 9.96466 9.96428 8.01347 6.73036C7.44457 5.75029 6.55753 3.70219 7.86146 2.97342C9.85652 2.27135 12.3876 5.83353 13.284 7.31306C14.5785 9.43812 15.5863 11.7249 16.4216 14.0636L16.0376 14.0196C16.7162 12.9045 17.4387 11.8145 18.2286 10.7684C19.9698 8.44077 23.9129 4.065 27.1429 5.05921C28.8527 5.72987 28.5111 7.73713 27.6194 8.94965C26.2277 10.8847 24.0242 12.0249 21.841 12.8228C19.9792 13.4856 18.0311 13.9018 16.0768 14.1484L16.3119 13.4432C18.8727 16.0049 21.3129 18.7441 23.1716 21.8791C23.6935 22.8324 24.2843 23.8156 24.3878 24.9324C24.3956 25.9124 23.5556 25.8355 22.9647 25.3172C22.2407 24.7219 21.6827 23.9727 21.1452 23.2267C19.7582 21.2414 18.6361 19.1006 17.6174 16.9127C17.2491 16.1258 16.862 15.2432 16.5235 14.4374C16.4216 14.1987 16.2899 13.8814 16.2179 13.627L16.221 13.6254ZM16.2194 13.5469C16.3526 13.7683 16.5266 14.139 16.6426 14.384C17.5453 16.2719 18.517 18.1488 19.5827 19.9456C20.5011 21.4707 21.468 22.9911 22.6905 24.2821C23.0164 24.5915 23.38 25.0015 23.8047 25.0988C23.8016 25.0973 23.7938 25.102 23.7812 25.1083C23.7577 25.1271 23.7671 25.1271 23.775 25.0941C23.775 23.5549 21.5323 20.5801 20.5496 19.3174C18.8978 17.2363 17.0532 15.2934 15.1349 13.4464C18.5577 12.9972 22.0542 12.2841 24.9645 10.3868C25.9722 9.70512 26.9282 8.86013 27.4219 7.73399C27.9171 6.59057 27.4642 5.55867 26.0741 5.62935C22.2281 6.01729 18.4261 11.1737 16.4028 14.2489L16.1583 14.6259L16.0188 14.2034C14.8356 10.7433 13.4157 7.19683 10.847 4.52363C10.1543 3.85297 8.97105 2.83834 7.96803 3.20273C6.87881 3.83412 7.79093 5.75814 8.2893 6.56858C10.2906 9.669 13.4784 11.7862 16.6426 13.5657L17.1174 13.8264C13.8545 15.9295 10.5837 18.2996 8.4617 21.5963C8.02759 22.3094 7.12956 23.9743 7.74078 24.6842C8.50558 25.1884 9.99601 23.8078 10.5351 23.2502C12.4644 21.2021 13.8263 18.6875 15.0424 16.1635C15.417 15.3672 15.8558 14.3322 16.221 13.5469H16.2194Z" fill="black"/>
<path d="M16.2431 13.6719C16.6694 14.4116 17.0972 15.3289 17.442 16.1064C18.0532 17.5121 18.6112 18.9382 19.0186 20.424C19.506 22.2852 20.1439 25.1532 19.1033 26.906C18.2805 28.1075 17.0345 27.3772 16.4531 26.3625C15.4799 24.726 15.2793 22.7423 15.2448 20.8873C15.2244 18.412 15.6491 15.9524 16.2823 13.5698L16.6788 13.9782C12.7968 14.7996 8.71105 15.3132 4.79457 14.4211C3.73984 14.1509 1.59589 13.4771 1.64134 12.1499C1.87642 10.8322 4.19433 10.7662 5.24123 10.7741C9.22979 10.9327 13.0648 12.3039 16.7211 13.8164L16.4139 14.0897C15.8482 12.3039 15.3748 10.4725 15.1351 8.60661C14.8577 6.24282 14.7307 3.05444 16.4656 1.19011C18.0861 -0.388369 20.0342 0.844573 20.5404 2.76231C21.2331 5.32243 20.3084 7.96108 19.1456 10.2149C18.3964 11.6049 17.5031 12.9211 16.5111 14.1415L16.1945 13.463C18.6691 13.5211 21.1438 13.6766 23.5949 14.0504C25.4379 14.341 27.2873 14.6975 29.0394 15.3792C29.5738 15.6195 30.7508 16.0482 30.6552 16.7707C30.6254 16.9419 30.5016 17.0676 30.3762 17.1445C28.9438 17.8513 24.7531 16.6419 23.1529 16.1943C21.0874 15.5865 19.0515 14.8373 17.0549 14.0347C16.8073 13.9373 16.4829 13.8022 16.2447 13.6719H16.2431ZM16.1851 13.6185C16.4421 13.6813 16.8371 13.8227 17.0988 13.9153C19.1221 14.6221 21.1861 15.2739 23.2579 15.8158C25.3079 16.3137 27.4111 16.8634 29.5268 16.7597C29.718 16.7393 29.9092 16.7142 30.0597 16.6309C30.0894 16.6105 30.0753 16.6058 30.0597 16.6545C30.055 16.7048 30.0659 16.7001 30.044 16.6686C28.8811 15.5943 25.1355 15.0226 23.4915 14.7917C20.7958 14.4415 18.0611 14.2986 15.3357 14.286L15.8654 13.6185C17.9952 10.8934 20.216 7.40822 19.959 3.82719C19.6784 0.905827 17.2116 0.10952 16.1083 3.15496C15.005 6.43915 15.9422 10.683 16.8465 13.9562L16.9844 14.4336L16.5393 14.2295C12.9629 12.6368 9.18592 11.173 5.23653 11.0128C4.27739 11.0018 3.26027 11.0458 2.41084 11.5138C1.89679 11.7981 1.71343 12.3054 2.10053 12.7719C2.79481 13.5572 3.87305 13.8666 4.86823 14.1007C8.91635 14.9001 13.0883 14.1494 17.0518 13.2054L16.9248 13.7394C16.3512 16.0734 15.9359 18.478 15.9328 20.8858C15.9547 22.7014 16.1679 25.3463 17.4969 26.6672C18.2429 27.3442 18.7585 26.5667 18.945 25.8317C19.0939 25.282 19.1315 24.6851 19.1252 24.093C19.0625 21.6727 18.3604 19.3199 17.5564 17.0472C17.1599 15.9336 16.6192 14.7116 16.1835 13.6201L16.1851 13.6185Z" fill="black"/>
<path d="M16.5729 12.6006C17.0039 13.7079 18.0335 14.4461 19.1478 14.7524C21.2166 15.3476 24.0454 14.4618 26.0624 13.7581C28.3349 12.9273 30.9176 11.7273 33.3217 12.8362C34.5739 13.3686 35.5487 14.5607 35.6146 15.9507C35.7321 17.1978 35.3763 18.3507 35.6177 19.5538C35.8371 20.7035 36.9028 21.4919 38.0641 21.5547L38.0688 21.6333C36.9639 21.8296 35.718 21.2186 35.2134 20.1852C34.8388 19.4548 34.7996 18.569 34.809 17.8057C34.8153 16.6607 34.936 15.4843 34.2511 14.5435C33.5866 13.6325 32.4786 13.1692 31.3784 13.0184C29.598 12.7812 27.8036 13.3058 26.1533 13.9937C24.2037 14.8372 22.1146 15.9617 19.8938 15.5785C18.3454 15.3366 16.7202 14.2749 16.4961 12.621L16.5713 12.6022L16.5729 12.6006Z" fill="black"/>
<path d="M47.0758 23.7357C46.953 23.6336 46.8902 23.5049 46.8902 23.3497V22.3219C46.8902 21.2423 46.8219 20.0271 46.6851 18.6735C46.5749 17.2345 46.5205 16.0193 46.5205 15.025C46.5205 14.1007 46.4521 12.3107 46.3153 9.65657C46.1507 7.25972 46.0684 5.46976 46.0684 4.28812C46.0684 4.20281 46.1298 4.1301 46.2525 4.06997C46.3753 4.00984 46.5205 3.98047 46.6837 3.98047C47.1777 3.98047 47.4233 4.10912 47.4233 4.36643C47.4233 7.5352 47.4637 9.90689 47.546 11.4829L47.7512 16.0808C47.7512 16.7996 47.8335 17.9743 47.9981 19.6006L48.2451 22.7861C48.2451 22.8379 48.2856 22.8631 48.3679 22.8631C48.3944 22.8798 48.573 22.8882 48.9023 22.8882H51.4503C51.8061 22.8882 51.9847 23.0421 51.9847 23.3511C51.9847 23.4881 51.9442 23.6042 51.8619 23.6979C51.7796 23.7916 51.6568 23.8391 51.4921 23.8391L51.2047 23.8643H50.8754C50.3005 23.8811 49.1898 23.8895 47.546 23.8895C47.3535 23.8895 47.1972 23.8377 47.073 23.7357H47.0758Z" fill="black"/>
<path d="M57.4953 23.4792C57.3586 23.4792 57.2483 23.4876 57.166 23.5044H56.8367C56.2339 23.5044 55.8502 23.4191 55.6855 23.2471C55.6855 23.1268 55.7944 23.0247 56.0148 22.938L56.2199 22.8094H57.4116L57.5762 22.7073L57.6586 22.4766L57.699 22.1675C57.699 21.1229 57.6586 20.1902 57.5762 19.3679L57.4939 18.417L57.4116 16.5417C57.4116 15.8733 57.452 14.8721 57.5344 13.5366L57.6167 10.5566C57.6167 9.25468 57.5483 8.26182 57.4116 7.5766C57.1646 7.52486 56.7544 7.49969 56.1781 7.49969L55.726 7.52486C55.5613 7.54165 55.3827 7.55003 55.1916 7.55003C54.6711 7.55003 54.4102 7.4046 54.4102 7.11373C54.4102 7.04521 54.5329 6.97669 54.7799 6.90817C55.0269 6.83965 55.232 6.80469 55.3967 6.80469C56.4376 6.80469 57.4786 6.83965 58.5209 6.90817C59.1502 6.92495 59.7809 7.00186 60.4116 7.13891C60.9056 7.24099 61.1512 7.38782 61.1512 7.57521C61.1512 7.61017 61.1107 7.67729 61.0284 7.78077L60.0837 7.83251C59.8911 7.72903 59.4935 7.67869 58.8921 7.67869L58.6869 7.7556C58.7693 7.90942 58.8097 8.36391 58.8097 9.11624C58.8097 10.2462 58.7958 11.2656 58.7693 12.1731L58.6869 15.2301C58.6869 16.0006 58.7414 16.9347 58.8516 18.0296C58.9339 19.2798 58.9744 20.2223 58.9744 20.8558V21.19C58.9465 21.3103 58.9339 21.4641 58.9339 21.6529C58.9339 22.0472 58.9744 22.2864 59.0567 22.3717L59.0163 22.4234C59.0163 22.594 59.3176 22.6807 59.9204 22.6807C60.1674 22.6807 60.3725 22.6723 60.5372 22.6556H61.1539C61.9479 22.6556 62.3456 22.7758 62.3456 23.0149C62.3456 23.1688 62.2633 23.2932 62.0986 23.3869C61.934 23.4806 61.7149 23.5282 61.4414 23.5282C61.1944 23.5282 60.9753 23.5114 60.7842 23.4764C60.5651 23.4596 60.3321 23.4512 60.0851 23.4512C59.9204 23.4512 59.6735 23.4946 59.3456 23.5799C59.0163 23.6834 58.7707 23.7337 58.606 23.7337C57.9753 23.7337 57.6055 23.6484 57.4967 23.4764L57.4953 23.4792Z" fill="black"/>
<path d="M68.84 23.3766L68.7996 22.4257C68.7717 22.1516 68.7591 21.8439 68.7591 21.5013C68.7591 21.3307 68.7731 21.1839 68.7996 21.065L68.84 20.6022C68.84 20.4316 68.7842 20.226 68.6754 19.9855C68.6754 18.8388 68.5372 16.7062 68.2638 13.5892C67.9889 10.5756 67.8382 8.52837 67.8117 7.45021C66.1121 7.45021 64.9749 7.42504 64.4 7.37329C63.8516 7.28799 63.5781 7.15095 63.5781 6.96216C63.7149 6.77338 63.9744 6.67969 64.3595 6.67969C65.1814 6.67969 66.373 6.71465 67.9358 6.78177C69.3605 6.86847 70.5522 6.91042 71.5122 6.91042H72.3759L73.2396 6.88525C73.7322 6.88525 73.9792 6.99712 73.9792 7.21947C73.9792 7.32295 73.8899 7.40406 73.7126 7.46419C73.534 7.52432 73.3219 7.55369 73.075 7.55369C72.5266 7.55369 71.9517 7.53691 71.3489 7.50195L69.581 7.45021C69.4707 7.45021 69.4163 7.47538 69.4163 7.52712C69.3884 7.57886 69.3759 7.74107 69.3759 8.01516C69.3759 9.67646 69.5405 12.1936 69.8684 15.5679C70.1698 19.0611 70.3205 21.5713 70.3205 23.0941C70.3205 23.2144 70.2033 23.3248 69.9717 23.4283C69.7387 23.5304 69.5126 23.5821 69.2935 23.5821L68.8414 23.3766H68.84Z" fill="black"/>
<path d="M81.0451 23.3766L81.0047 22.4257C80.9767 22.1516 80.9642 21.8439 80.9642 21.5013C80.9642 21.3307 80.9781 21.1839 81.0047 21.065L81.0451 20.6022C81.0451 20.4316 80.9893 20.226 80.8805 19.9855C80.8805 18.8388 80.7437 16.7062 80.4688 13.5892C80.1953 10.5756 80.0432 8.52837 80.0167 7.45021C78.3172 7.45021 77.18 7.42504 76.6051 7.37329C76.0567 7.28799 75.7832 7.15095 75.7832 6.96216C75.9199 6.77338 76.1795 6.67969 76.5646 6.67969C77.3865 6.67969 78.5781 6.71465 80.1409 6.78177C81.5656 6.86847 82.7572 6.91042 83.7172 6.91042H84.581L85.4447 6.88525C85.9387 6.88525 86.1842 6.99712 86.1842 7.21947C86.1842 7.32295 86.0949 7.40406 85.9163 7.46419C85.7377 7.52432 85.5256 7.55369 85.28 7.55369C84.7317 7.55369 84.1568 7.53691 83.554 7.50195L81.7861 7.45021C81.6758 7.45021 81.6214 7.47538 81.6214 7.52712C81.5935 7.57886 81.5809 7.74107 81.5809 8.01516C81.5809 9.67646 81.7456 12.1936 82.0749 15.5679C82.3763 19.0611 82.527 21.5713 82.527 23.0941C82.527 23.2144 82.4098 23.3248 82.1782 23.4283C81.9451 23.5304 81.7191 23.5821 81.5 23.5821L81.0479 23.3766H81.0451Z" fill="black"/>
<path d="M90.5809 23.4789C90.6353 23.3768 90.6632 23.0929 90.6632 22.6314C90.6632 21.0554 90.7037 18.7187 90.786 15.6185C90.8684 12.5364 90.9088 10.3101 90.9088 8.93971L90.9912 8.01537L91.1139 7.24485C91.1139 7.12459 91.2102 7.06445 91.4014 7.06445C91.5381 7.06445 91.7307 7.08962 91.9763 7.14137L92.0991 7.16654C92.0991 7.54411 92.0851 7.88531 92.0586 8.19436V11.9966C92.0851 12.8189 92.0991 13.7516 92.0991 14.7962C92.0712 14.8815 92.0586 15.0703 92.0586 15.3612L92.0181 15.9009C91.9902 16.2436 91.9777 16.5946 91.9777 16.9539C91.9777 17.3483 91.9916 17.7077 92.0181 18.0335L92.0586 19.1382L91.9358 19.3438L91.9763 19.3186C91.9763 19.3704 91.9623 19.4053 91.9358 19.4221V19.5242C91.9358 19.6612 91.9763 19.7815 92.0586 19.8836L91.9358 22.3504V22.5042C91.9358 22.7951 91.9498 22.9671 91.9763 23.0174C91.9763 23.1041 92.0447 23.1461 92.1814 23.1461L94.3191 23.1978C94.9498 23.1978 95.381 23.202 95.614 23.2104C95.847 23.2188 95.9907 23.223 96.0452 23.223H96.168C96.3047 23.223 96.4414 23.2705 96.5796 23.3642C96.7163 23.4579 96.7847 23.5572 96.7847 23.6593C96.7847 23.8648 96.5656 23.9753 96.1275 23.9935C95.6614 23.9767 94.5242 23.9683 92.7158 23.9683L92.7981 23.9935C92.5247 23.9935 92.2637 24.0019 92.0167 24.0187C91.7977 24.0522 91.5507 24.0704 91.2772 24.0704C90.8935 24.0704 90.6605 23.8732 90.5781 23.4803L90.5809 23.4789Z" fill="black"/>
<path d="M100.736 23.5307V23.1964C100.762 23.1111 100.776 23.0077 100.776 22.8874L100.611 22.7853C100.83 22.4259 100.941 22.0749 100.941 21.7323C100.941 21.3394 100.9 20.773 100.818 20.0375L100.736 18.3426C100.736 17.4868 100.776 16.2016 100.858 14.49C100.967 12.9657 101.023 11.6736 101.023 10.6108L100.941 9.06981C100.885 8.60694 100.858 8.09372 100.858 7.52877C100.858 7.27146 100.955 7.08827 101.146 6.9764C101.337 6.86593 101.64 6.80859 102.05 6.80859C102.323 6.80859 102.544 6.86033 102.707 6.96242C102.762 6.9792 103.159 7.01416 103.899 7.0645C104.584 7.11624 105.173 7.19315 105.667 7.29524C106.187 7.39732 106.448 7.52597 106.448 7.6798C106.448 7.8518 106.187 8.0224 105.667 8.19301C104.105 7.86858 102.995 7.70497 102.337 7.70497L102.132 7.85879C102.159 8.01262 102.173 8.38179 102.173 8.96353C102.173 9.70048 102.145 10.3591 102.09 10.9409C102.063 11.5408 102.05 12.2078 102.05 12.9448C102.05 13.4244 102.241 13.6635 102.625 13.6635L103.282 13.6384C103.501 13.6216 103.734 13.6132 103.981 13.6132C105.05 13.6132 105.584 13.767 105.584 14.0761C105.584 14.2649 105.516 14.4229 105.379 14.5515C105.243 14.6802 105.036 14.7445 104.763 14.7445C104.351 14.7445 104.036 14.676 103.816 14.5389L102.501 14.4103H102.296L102.09 14.5389V14.6159C102.145 14.9067 102.173 15.5836 102.173 16.6449C102.173 17.3134 102.159 17.9203 102.132 18.4685L102.092 20.292C102.092 20.9604 102.132 21.6456 102.215 22.3476C102.241 22.742 102.379 23.0021 102.626 23.1307C102.873 23.2594 103.325 23.3237 103.983 23.3237L104.722 23.2985C104.969 23.2817 105.243 23.2734 105.544 23.2734C106.338 23.2734 106.736 23.3852 106.736 23.6076C106.736 23.9166 106.133 24.0704 104.927 24.0704H101.557C101.065 24.0704 100.79 23.89 100.736 23.5307Z" fill="black"/>
<path d="M126.792 23.9671C126.765 23.865 126.437 23.1448 125.806 21.8093L124.367 18.6755C122.86 15.4214 121.886 13.4092 121.45 12.6386L121.203 12.2023C121.175 12.2373 121.127 12.289 121.059 12.3562C120.991 12.4247 120.875 12.5366 120.71 12.6904C120.381 13.0679 120.107 13.3588 119.888 13.5644L119.313 14.1545V23.3C119.313 23.5909 119.273 23.7923 119.191 23.9041C119.108 24.0146 118.93 24.0706 118.656 24.0706C118.383 24.0706 118.197 24.0104 118.101 23.8902C118.004 23.7699 117.957 23.5559 117.957 23.2483V15.49C117.957 14.4803 117.997 12.8358 118.08 10.5578L118.162 5.62566C118.162 5.30123 118.189 5.00057 118.244 4.72649C118.327 4.52092 118.477 4.41744 118.697 4.41744C119.108 4.41744 119.354 4.47757 119.436 4.59783C119.545 4.7181 119.601 5.02574 119.601 5.52218L119.518 9.7859L119.436 12.8945H119.477C119.997 12.1758 120.737 11.0962 121.697 9.65725L123.218 7.26738C124.752 4.8873 125.725 3.69727 126.135 3.69727C126.326 3.69727 126.491 3.73223 126.629 3.79935C126.766 3.86787 126.834 3.96296 126.834 4.08183C126.752 4.40765 126.533 4.75026 126.177 5.10965L125.765 5.57252C125.299 6.25773 124.614 7.28556 123.71 8.65459C122.613 10.3159 122.025 11.1899 121.942 11.2752C121.914 11.3955 121.928 11.4975 121.983 11.5842C122.531 12.4582 123.146 13.5364 123.832 14.8215C124.517 16.1053 125.078 17.2198 125.517 18.1609C125.983 19.1887 126.455 20.2333 126.935 21.2947C127.413 22.3561 127.75 23.1182 127.942 23.5811C127.997 23.6846 128.025 23.7433 128.025 23.7615C128.025 23.8818 127.949 23.9755 127.799 24.044C127.648 24.1125 127.476 24.1475 127.285 24.1475C127.038 24.1475 126.873 24.0873 126.792 23.9671Z" fill="black"/>
<path d="M141.28 23.6853C141.184 23.5819 141.094 23.428 141.013 23.2225C140.985 23.0854 140.931 22.9652 140.849 22.8631L140.889 22.7862C140.67 21.9807 140.204 20.9962 139.492 19.8313L138.753 18.4959C138.697 18.4623 138.437 18.0246 137.971 17.1856L137.642 16.5689C135.177 11.8087 133.628 9.23147 132.997 8.83712C132.778 9.29999 132.668 9.8985 132.668 10.6355C132.668 11.0298 132.682 11.3724 132.708 11.6633L132.749 12.6645L132.708 13.2812C132.68 13.47 132.668 13.6756 132.668 13.8979C132.668 14.2755 132.694 14.5999 132.75 14.874L132.832 15.6963H132.71C132.71 18.556 132.806 20.132 132.997 20.4229V22.7344C133.106 22.8715 133.162 23.0519 133.162 23.2742C133.162 23.4112 133.086 23.5315 132.936 23.6336C132.785 23.7357 132.599 23.7874 132.38 23.7874C131.805 23.7874 131.516 23.3245 131.516 22.4002L131.599 21.5779C131.653 21.3206 131.681 21.0382 131.681 20.7305C131.681 19.9083 131.641 18.6749 131.558 17.0317C131.476 15.3872 131.436 14.1552 131.436 13.333C131.436 12.8365 131.476 12.0744 131.558 11.0466C131.641 10.0369 131.681 9.28321 131.681 8.78538V8.45116C131.681 7.61212 131.928 7.06395 132.421 6.80664L132.543 6.88355L132.955 6.83181C133.064 6.84859 133.188 6.90033 133.325 6.98564C133.434 7.05416 133.49 7.13107 133.49 7.21637L133.572 7.3702C133.572 7.40516 133.586 7.44711 133.612 7.49885C134.05 8.71546 135.037 10.4187 136.572 12.6114C138.133 14.923 139.106 16.4556 139.49 17.2093C139.763 17.8093 139.982 18.3392 140.147 18.8021C140.667 20.2579 141.284 21.3794 141.996 22.1667L142.078 22.0898C142.709 18.2875 143.024 13.621 143.024 8.08897L142.984 7.78133C142.956 7.69602 142.943 7.58415 142.943 7.44711C142.943 7.08772 143.134 6.90733 143.518 6.90733C143.765 6.90733 143.977 6.98424 144.156 7.13806C144.333 7.29188 144.424 7.46389 144.424 7.65127V9.3727L144.218 9.57827C144.218 11.206 144.068 13.877 143.766 17.5939C143.465 21.3108 143.176 23.3315 142.903 23.656L142.204 23.758V23.7832L142.163 23.758L141.751 23.835C141.532 23.835 141.375 23.7832 141.278 23.6811L141.28 23.6853Z" fill="black"/>
<path d="M151.288 23.4792C151.152 23.4792 151.041 23.4876 150.959 23.5044H150.63C150.027 23.5044 149.643 23.4191 149.478 23.2471C149.478 23.1268 149.587 23.0247 149.808 22.938L150.013 22.8094H151.205L151.369 22.7073L151.452 22.4766L151.492 22.1675C151.492 21.1229 151.452 20.1902 151.369 19.3679L151.287 18.417L151.205 16.5417C151.205 15.8733 151.245 14.8721 151.327 13.5366L151.41 10.5566C151.41 9.25468 151.341 8.26182 151.205 7.5766C150.958 7.52486 150.547 7.49969 149.971 7.49969L149.519 7.52486C149.354 7.54165 149.176 7.55003 148.985 7.55003C148.464 7.55003 148.203 7.4046 148.203 7.11373C148.203 7.04521 148.326 6.97669 148.573 6.90817C148.82 6.83965 149.025 6.80469 149.19 6.80469C150.231 6.80469 151.272 6.83965 152.314 6.90817C152.943 6.92495 153.574 7.00186 154.205 7.13891C154.699 7.24099 154.944 7.38782 154.944 7.57521C154.944 7.61017 154.904 7.67729 154.821 7.78077L153.877 7.83251C153.684 7.72903 153.286 7.67869 152.685 7.67869L152.48 7.7556C152.562 7.90942 152.603 8.36391 152.603 9.11624C152.603 10.2462 152.589 11.2656 152.562 12.1731L152.48 15.2301C152.48 16.0006 152.534 16.9347 152.645 18.0296C152.727 19.2798 152.767 20.2223 152.767 20.8558V21.19C152.739 21.3103 152.727 21.4641 152.727 21.6529C152.727 22.0472 152.767 22.2864 152.85 22.3717L152.809 22.4234C152.809 22.594 153.111 22.6807 153.713 22.6807C153.96 22.6807 154.166 22.6723 154.33 22.6556H154.947C155.741 22.6556 156.139 22.7758 156.139 23.0149C156.139 23.1688 156.056 23.2932 155.892 23.3869C155.727 23.4806 155.508 23.5282 155.234 23.5282C154.987 23.5282 154.768 23.5114 154.577 23.4764C154.358 23.4596 154.125 23.4512 153.878 23.4512C153.713 23.4512 153.466 23.4946 153.139 23.5799C152.809 23.6834 152.564 23.7337 152.399 23.7337C151.768 23.7337 151.399 23.6484 151.29 23.4764L151.288 23.4792Z" fill="black"/>
<path d="M162.633 23.3766L162.593 22.4257C162.565 22.1516 162.552 21.8439 162.552 21.5013C162.552 21.3307 162.566 21.1839 162.593 21.065L162.633 20.6022C162.633 20.4316 162.577 20.226 162.468 19.9855C162.468 18.8388 162.33 16.7062 162.057 13.5892C161.783 10.5756 161.631 8.52837 161.605 7.45021C159.905 7.45021 158.769 7.42504 158.193 7.37329C157.645 7.28799 157.371 7.15095 157.371 6.96216C157.508 6.77338 157.767 6.67969 158.153 6.67969C158.974 6.67969 160.166 6.71465 161.729 6.78177C163.153 6.86847 164.345 6.91042 165.305 6.91042H166.169L167.033 6.88525C167.527 6.88525 167.772 6.99712 167.772 7.21947C167.772 7.32295 167.683 7.40406 167.506 7.46419C167.327 7.52432 167.115 7.55369 166.868 7.55369C166.32 7.55369 165.745 7.53691 165.142 7.50195L163.374 7.45021C163.264 7.45021 163.209 7.47538 163.209 7.52712C163.181 7.57886 163.169 7.74107 163.169 8.01516C163.169 9.67646 163.333 12.1936 163.663 15.5679C163.964 19.0611 164.115 21.5713 164.115 23.0941C164.115 23.2144 163.998 23.3248 163.766 23.4283C163.533 23.5304 163.307 23.5821 163.088 23.5821L162.636 23.3766H162.633Z" fill="black"/>
<path d="M171.716 23.8271C171.442 23.7167 171.29 23.5824 171.264 23.4286L171.469 23.223C171.578 23.223 171.825 23.2482 172.208 23.2999C172.51 23.3685 172.757 23.402 172.948 23.402C173.551 23.402 174.085 23.2524 174.551 22.9531C175.017 22.6539 175.373 22.2637 175.62 21.7841C176.004 20.8933 176.195 20.0543 176.195 19.267C176.195 18.0853 175.62 16.8184 174.469 15.4647C173.756 14.6774 173.207 14.0523 172.825 13.5894C172.441 13.1266 172.098 12.5966 171.798 11.9967C171.442 11.2947 171.264 10.6178 171.264 9.96759C171.264 9.3509 171.511 8.62373 172.003 7.78469C172.25 7.39034 172.599 7.07011 173.051 6.82119C173.503 6.57228 173.989 6.44922 174.511 6.44922C174.867 6.44922 175.215 6.52613 175.559 6.67995C175.9 6.83378 176.072 6.99739 176.072 7.168C176.072 7.30504 175.893 7.37356 175.538 7.37356C175.427 7.37356 175.291 7.34839 175.126 7.29665C174.961 7.24491 174.811 7.21974 174.674 7.21974C174.262 7.21974 173.893 7.32322 173.565 7.52878C173.237 7.73435 172.99 8.00004 172.825 8.32587C172.496 8.95935 172.331 9.54248 172.331 10.0725C172.331 10.3983 172.399 10.7325 172.536 11.0751C172.563 11.1772 172.591 11.2639 172.619 11.3324C172.645 11.401 172.659 11.4527 172.659 11.4863L172.906 11.9995L173.111 12.4623L173.44 12.9252C173.523 13.0455 173.611 13.1518 173.708 13.2454C173.805 13.3405 173.894 13.43 173.975 13.5153L174.469 14.0551C174.578 14.1572 174.811 14.4019 175.168 14.7879C175.524 15.1724 175.853 15.5808 176.154 16.0073C176.428 16.3667 176.633 16.7051 176.771 17.0225C176.908 17.34 177.031 17.7203 177.141 18.1664C177.223 18.5943 177.264 19.0656 177.264 19.5788C177.264 20.4011 177.085 21.1716 176.729 21.8904C176.235 22.7462 175.524 23.3461 174.592 23.6887C174.071 23.8943 173.468 23.9963 172.783 23.9963L172.578 24.0481C172.277 24.0131 171.988 23.9404 171.714 23.8299L171.716 23.8271ZM175.867 7.29665C175.867 7.27987 175.853 7.27008 175.827 7.27008V7.29665H175.867Z" fill="black"/>
<path d="M189.905 24.2622C189.644 24.2371 189.363 24.1811 189.062 24.0958C188.733 23.9924 188.487 23.8469 188.322 23.6595C188.322 23.454 188.473 23.3505 188.774 23.3505C189.076 23.3505 189.459 23.4106 189.926 23.5309C190.364 23.6679 190.733 23.7364 191.035 23.7364C191.638 23.7364 192.192 23.5826 192.7 23.2736C193.206 22.9645 193.597 22.5632 193.872 22.0668C194.42 21.0907 194.693 20.2265 194.693 19.4727C194.693 18.6337 194.501 17.7863 194.119 16.929C193.735 16.0732 193.228 15.2677 192.598 14.514C192.461 14.3252 192.228 14.0427 191.899 13.6666C191.213 12.8107 190.693 12.1423 190.337 11.6627C189.981 11.183 189.666 10.653 189.393 10.0699C189.009 9.29936 188.818 8.46871 188.818 7.57793C188.818 7.01297 188.961 6.469 189.249 5.94739C189.536 5.42579 189.995 4.9755 190.626 4.59934C191.311 4.20499 192.079 4.00781 192.928 4.00781C193.258 4.00781 193.654 4.08892 194.12 4.25253C194.586 4.41615 194.819 4.57416 194.819 4.72799C194.819 4.86503 194.737 4.93355 194.572 4.93355C194.407 4.93355 194.188 4.8916 193.915 4.8049C193.668 4.7196 193.435 4.67625 193.216 4.67625C192.585 4.67625 192.03 4.82168 191.551 5.11255C191.071 5.40342 190.722 5.7642 190.503 6.19072C190.311 6.5501 190.216 6.94445 190.216 7.37236C190.216 8.0408 190.353 8.73021 190.627 9.4406C190.901 10.151 191.271 10.8152 191.737 11.4319L193.175 13.3072L193.587 13.847C194.162 14.5839 194.607 15.1922 194.922 15.6705C195.236 16.1501 195.504 16.6899 195.723 17.2884C196.025 18.0939 196.175 18.8644 196.175 19.6C196.175 20.5928 195.764 21.6039 194.942 22.6317C194.53 23.1281 193.982 23.5309 193.298 23.8385C192.613 24.1476 191.86 24.3014 191.038 24.3014C190.545 24.3014 190.167 24.2888 189.907 24.2622H189.905Z" fill="black"/>
<path d="M204.434 23.3766L204.393 22.4257C204.365 22.1516 204.353 21.8439 204.353 21.5013C204.353 21.3307 204.367 21.1839 204.393 21.065L204.434 20.6022C204.434 20.4316 204.378 20.226 204.269 19.9855C204.269 18.8388 204.132 16.7062 203.858 13.5892C203.583 10.5756 203.432 8.52837 203.405 7.45021C201.706 7.45021 200.569 7.42504 199.994 7.37329C199.445 7.28799 199.172 7.15095 199.172 6.96216C199.309 6.77338 199.568 6.67969 199.953 6.67969C200.775 6.67969 201.967 6.71465 203.53 6.78177C204.954 6.86847 206.146 6.91042 207.106 6.91042H207.97L208.833 6.88525C209.327 6.88525 209.573 6.99712 209.573 7.21947C209.573 7.32295 209.484 7.40406 209.306 7.46419C209.128 7.52432 208.916 7.55369 208.669 7.55369C208.12 7.55369 207.545 7.53691 206.943 7.50195L205.175 7.45021C205.064 7.45021 205.01 7.47538 205.01 7.52712C204.982 7.57886 204.97 7.74107 204.97 8.01516C204.97 9.67646 205.134 12.1936 205.464 15.5679C205.765 19.0611 205.916 21.5713 205.916 23.0941C205.916 23.2144 205.798 23.3248 205.567 23.4283C205.334 23.5304 205.108 23.5821 204.889 23.5821L204.437 23.3766H204.434Z" fill="black"/>
<path d="M213.394 14.7711V13.8719C213.394 9.09354 214.38 6.70508 216.354 6.70508C216.49 6.70508 216.683 6.73025 216.928 6.78199C217.805 6.97077 218.668 7.09104 219.518 7.14138C220.039 7.2099 220.559 7.54412 221.08 8.14263C221.655 8.75933 222.087 9.5732 222.375 10.5828C222.662 11.5939 222.806 12.6287 222.806 13.6915L222.723 13.8201C222.723 14.3851 222.737 14.8899 222.764 15.336L222.804 16.877C222.804 17.751 222.748 18.5383 222.64 19.2403C222.475 20.3031 222.202 21.2177 221.818 21.9896C221.571 22.4525 221.29 22.837 220.975 23.1461C220.66 23.4551 220.269 23.711 219.804 23.9166C219.366 24.1222 218.832 24.2256 218.201 24.2256C214.994 24.2256 213.393 21.075 213.393 14.7724L213.394 14.7711ZM220.422 22.0665C220.943 21.1072 221.258 20.1311 221.368 19.1383C221.477 18.1104 221.533 17.2882 221.533 16.6729C221.533 15.9877 221.451 14.978 221.286 13.6411C221.148 12.1518 221.081 11.1408 221.081 10.6094L220.916 10.4038L220.999 10.2752C220.999 9.52146 220.662 8.8712 219.991 8.32303C219.32 7.77485 218.504 7.50077 217.545 7.50077C216.284 7.50077 215.532 7.87834 215.285 8.63068C215.229 8.88798 215.174 9.25576 215.12 9.73541C215.12 11.0024 215.038 11.868 214.873 12.3294C214.873 12.5867 214.833 12.9895 214.75 13.5363L214.668 14.7431C214.668 15.1206 214.682 15.4535 214.708 15.7457L214.749 16.7736C214.749 17.579 214.858 18.5034 215.078 19.548C215.243 20.3185 215.434 20.9702 215.653 21.5002C215.872 22.0315 216.187 22.4846 216.598 22.8622C217.009 23.2733 217.488 23.4789 218.036 23.4789C219.105 23.4789 219.899 23.0076 220.42 22.0665H220.422Z" fill="black"/>
<path d="M234.438 24.0433C234.109 23.8209 233.753 23.2308 233.37 22.2715C232.986 21.3122 232.63 20.234 232.301 19.0342C232.082 18.0581 231.766 17.0904 231.355 16.1311C231.025 15.2753 230.71 14.8474 230.41 14.8474H230.287C229.684 14.8474 229.383 14.9676 229.383 15.2068C229.383 16.4402 229.492 18.3154 229.712 20.8325C229.821 22.3736 229.945 23.2727 230.082 23.53L229.753 23.9663H229.178L228.849 23.7608C228.41 15.8486 228.191 10.4536 228.191 7.57709C228.191 7.38831 228.212 7.23448 228.253 7.11422C228.293 6.99396 228.383 6.88348 228.521 6.78C228.63 6.65974 228.822 6.59961 229.096 6.59961C230.494 6.59961 231.617 6.81356 232.467 7.24147C233.315 7.66938 233.741 8.28608 233.741 9.09156V10.9668C233.741 11.2926 233.569 11.7289 233.227 12.2771C232.884 12.8253 232.507 13.3301 232.097 13.793L231.563 14.4348C231.864 15.3088 232.46 16.8792 233.35 19.1489C234.24 21.4185 234.727 22.6211 234.81 22.7581C234.836 22.7749 234.871 22.8183 234.913 22.8868C234.953 22.9553 235.043 23.0574 235.181 23.1958C235.372 23.4349 235.468 23.6419 235.468 23.8125C235.468 24.0516 235.318 24.1719 235.016 24.1719L234.441 24.0433H234.438ZM230.986 13.7161C231.398 13.3916 231.726 12.9707 231.973 12.4575C232.411 11.4129 232.63 10.5823 232.63 9.96556C232.63 9.57261 232.595 9.24678 232.527 8.98947C232.458 8.73217 232.341 8.45948 232.178 8.16721C231.849 7.5673 231.069 7.26804 229.835 7.26804C229.697 7.26804 229.588 7.34076 229.506 7.48619C229.424 7.63163 229.383 7.78126 229.383 7.93508C229.383 9.08317 229.41 10.1194 229.465 11.0437C229.492 11.9681 229.506 13.0043 229.506 14.1524L229.588 14.2041C230.109 14.2041 230.575 14.0419 230.986 13.7161Z" fill="black"/>
<path d="M242.454 24.0187C242.316 23.9502 242.235 23.8901 242.207 23.8383C242.454 23.4272 242.577 21.9295 242.577 19.3425C242.577 18.8461 242.536 18.1357 242.454 17.2099L242.249 15.3864L242.002 15.0522L242.125 14.7432C241.96 14.504 241.713 14.1013 241.385 13.5363C241.057 12.9714 240.728 12.398 240.399 11.8149C239.412 10.1886 238.767 9.0153 238.467 8.29513C238.303 7.95252 238.18 7.63648 238.098 7.34422L238.673 7.06174C238.946 7.0967 239.344 7.64347 239.864 8.70626C240.276 9.46 240.646 10.2053 240.974 10.9409L241.466 11.917C241.96 12.9798 242.314 13.5265 242.535 13.5615L242.7 13.0986L242.617 12.97C242.836 12.7994 243.111 12.1911 243.439 11.1465C243.795 9.94804 244.138 8.937 244.466 8.11474C244.822 7.15543 245.178 6.67578 245.535 6.67578C245.672 6.67578 245.794 6.70095 245.905 6.75269C246.014 6.80443 246.069 6.86457 246.069 6.93309C246.069 7.19039 245.658 8.20004 244.836 9.96482C244.424 10.8039 244.082 11.5926 243.809 12.3281C243.48 13.2021 243.315 13.981 243.315 14.6662C243.452 14.8382 243.52 14.9837 243.52 15.1025C243.52 15.1892 243.48 15.3081 243.397 15.4619C243.315 15.6158 243.274 15.7444 243.274 15.8479C243.274 15.9332 243.329 16.3191 243.439 17.0044C243.548 17.4672 243.604 17.8602 243.604 18.186C243.604 18.9397 243.618 19.6166 243.644 20.2151V22.3728C243.644 23.5377 243.357 24.1194 242.781 24.1194C242.698 24.1194 242.588 24.0845 242.451 24.0159L242.454 24.0187Z" fill="black"/>
</svg>
