<svg width="32" height="32" viewBox="0 0 32 32" fill="none" xmlns="http://www.w3.org/2000/svg">
<path d="M5.86602 32C4.98602 32 4.23242 31.6864 3.60522 31.0592C2.97802 30.432 2.66495 29.6789 2.66602 28.8V9.6C2.66602 8.72 2.97962 7.9664 3.60682 7.3392C4.23402 6.712 4.98708 6.39893 5.86602 6.4H9.06602C9.06602 4.64 9.69269 3.13333 10.946 1.88C12.1994 0.626667 13.706 0 15.466 0C17.226 0 18.7327 0.626667 19.986 1.88C21.2394 3.13333 21.866 4.64 21.866 6.4H25.066C25.946 6.4 26.6996 6.7136 27.3268 7.3408C27.954 7.968 28.2671 8.72107 28.266 9.6V28.8C28.266 29.68 27.9524 30.4336 27.3252 31.0608C26.698 31.688 25.945 32.0011 25.066 32H5.86602ZM5.86602 28.8H25.066V9.6H21.866V12.8C21.866 13.2533 21.7124 13.6336 21.4052 13.9408C21.098 14.248 20.7183 14.4011 20.266 14.4C19.8127 14.4 19.4324 14.2464 19.1252 13.9392C18.818 13.632 18.665 13.2523 18.666 12.8V9.6H12.266V12.8C12.266 13.2533 12.1124 13.6336 11.8052 13.9408C11.498 14.248 11.1183 14.4011 10.666 14.4C10.2127 14.4 9.83242 14.2464 9.52522 13.9392C9.21802 13.632 9.06495 13.2523 9.06602 12.8V9.6H5.86602V28.8ZM12.266 6.4H18.666C18.666 5.52 18.3524 4.7664 17.7252 4.1392C17.098 3.512 16.345 3.19893 15.466 3.2C14.586 3.2 13.8324 3.5136 13.2052 4.1408C12.578 4.768 12.265 5.52107 12.266 6.4Z" fill="#484848"/>
<svg width="32" height="32" viewBox="0 0 32 32" fill="none" xmlns="http://www.w3.org/2000/svg">
<path d="M5.86602 32C4.98602 32 4.23242 31.6864 3.60522 31.0592C2.97802 30.432 2.66495 29.6789 2.66602 28.8V9.6C2.66602 8.72 2.97962 7.9664 3.60682 7.3392C4.23402 6.712 4.98708 6.39893 5.86602 6.4H9.06602C9.06602 4.64 9.69269 3.13333 10.946 1.88C12.1994 0.626666 13.706 0 15.466 0C17.226 0 18.7327 0.626666 19.986 1.88C21.2394 3.13333 21.866 4.64 21.866 6.4H25.066C25.946 6.4 26.6996 6.7136 27.3268 7.3408C27.954 7.968 28.2671 8.72107 28.266 9.6V28.8C28.266 29.68 27.9524 30.4336 27.3252 31.0608C26.698 31.688 25.945 32.0011 25.066 32H5.86602ZM12.266 6.4H18.666C18.666 5.52 18.3524 4.7664 17.7252 4.1392C17.098 3.512 16.345 3.19893 15.466 3.2C14.586 3.2 13.8324 3.5136 13.2052 4.1408C12.578 4.768 12.265 5.52107 12.266 6.4Z" class="pressed"/>
</svg>

</svg>
