<svg width="24" height="24" viewBox="0 0 24 24" fill="green" xmlns="http://www.w3.org/2000/svg">
<path d="M4.74569 20.524V2.74569H4.74569V20.524ZM3.92198 23.8875C3.46437 24.0705 3.02963 24.0302 2.61778 23.7667C2.20593 23.504 2 23.121 2 22.6176V2.74569C2 1.99062 2.26908 1.34401 2.80723 0.805859C3.34447 0.268619 3.99062 0 4.74569 0H18.4741C19.2292 0 19.8758 0.268619 20.4139 0.805859C20.9512 1.34401 21.2198 1.99062 21.2198 2.74569V22.6176C21.2198 23.121 21.0139 23.504 20.602 23.7667C20.1902 24.0302 19.7554 24.0705 19.2978 23.8875L11.6099 20.5926L3.92198 23.8875ZM4.74569 2.74569H18.4741H11.6099H4.74569Z" fill="#484848" class="pressed"/>
</svg>


