<svg width="25" height="24" viewBox="0 0 25 24" fill="none" xmlns="http://www.w3.org/2000/svg">
<path d="M12.0763 21.1601C12.0763 22.3067 11.1468 23.2363 10.0001 23.2363C8.85348 23.2363 7.92396 22.3067 7.92396 21.1601C7.92396 20.0134 8.85349 19.0839 10.0001 19.0839C11.1468 19.0839 12.0763 20.0134 12.0763 21.1601ZM18.4068 19.0839C17.2601 19.0839 16.3306 20.0135 16.3306 21.1601C16.3306 22.3067 17.2601 23.2363 18.4068 23.2363C19.5534 23.2363 20.483 22.3067 20.483 21.1601C20.4829 20.0134 19.5534 19.0839 18.4068 19.0839ZM24.8514 9.33739L22.2967 16.9305C22.2967 16.9305 22.0852 18.0574 21.0078 18.0574C19.9303 18.0574 9.39348 18.0574 8.10764 18.0574C6.8218 18.0574 6.76776 16.645 6.76776 16.645C6.76776 16.645 5.39703 6.47551 5.3291 5.86114C5.26117 5.24677 4.47548 4.7914 4.47548 4.7914L1.09491 3.21227C-0.755903 2.24441 0.0853742 0.40285 1.09491 0.825809C5.38158 2.84796 7.37287 3.84361 7.501 4.64012C7.63067 5.43818 7.85603 7.36001 7.85603 7.36001V7.37235C7.88228 7.36464 7.90079 7.36001 7.90079 7.36001C7.90079 7.36001 21.0464 7.36001 23.7014 7.36001C25.6094 7.36001 24.8514 9.34049 24.8514 9.33739ZM21.156 13.5654L21.1297 13.5669H8.62322L8.881 15.6107H20.5478L21.156 13.5654ZM22.3739 9.44391H8.1061L8.38087 11.6282C11.1177 11.6282 19.1323 11.6282 21.7287 11.6282L22.3739 9.44391Z" fill="#FEFEFE"/>
</svg>
