<svg width="25" height="24" viewBox="0 0 25 24" fill="none" xmlns="http://www.w3.org/2000/svg">
<path d="M12.0763 21.16C12.0763 22.3067 11.1468 23.2362 10.0001 23.2362C8.85348 23.2362 7.92396 22.3067 7.92396 21.16C7.92396 20.0134 8.85349 19.0838 10.0001 19.0838C11.1468 19.0838 12.0763 20.0134 12.0763 21.16ZM18.4068 19.0839C17.2601 19.0839 16.3306 20.0134 16.3306 21.16C16.3306 22.3067 17.2601 23.2362 18.4068 23.2362C19.5534 23.2362 20.483 22.3067 20.483 21.16C20.4829 20.0134 19.5534 19.0839 18.4068 19.0839ZM24.8514 9.33735L22.2967 16.9305C22.2967 16.9305 22.0852 18.0573 21.0078 18.0573C19.9303 18.0573 9.39348 18.0573 8.10764 18.0573C6.8218 18.0573 6.76776 16.6449 6.76776 16.6449C6.76776 16.6449 5.39703 6.47546 5.3291 5.86109C5.26117 5.24672 4.47548 4.79135 4.47548 4.79135L1.09491 3.21222C-0.755903 2.24436 0.0853742 0.402804 1.09491 0.825763C5.38158 2.84792 7.37287 3.84357 7.501 4.64008C7.63067 5.43813 7.85603 7.35996 7.85603 7.35996V7.37231C7.88228 7.36459 7.90079 7.35996 7.90079 7.35996C7.90079 7.35996 21.0464 7.35996 23.7014 7.35996C25.6094 7.35996 24.8514 9.34045 24.8514 9.33735ZM21.156 13.5654L21.1297 13.5669H8.62322L8.881 15.6107H20.5478L21.156 13.5654ZM22.3739 9.44387H8.1061L8.38087 11.6281C11.1177 11.6281 19.1323 11.6281 21.7287 11.6281L22.3739 9.44387Z" fill="#393939"/>
</svg>
