<svg width="32" height="32" viewBox="0 0 32 32" fill="none" xmlns="http://www.w3.org/2000/svg">
<path d="M14.4436 18.2036C14.9903 18.7236 14.9903 19.5769 14.4436 20.0969C13.9236 20.6169 13.0703 20.6169 12.5503 20.0969C11.3014 18.8462 10.6 17.151 10.6 15.3836C10.6 13.6162 11.3014 11.921 12.5503 10.6703L17.2703 5.95026C18.521 4.70143 20.2162 4 21.9836 4C23.751 4 25.4462 4.70143 26.6969 5.95026C27.9458 7.20096 28.6472 8.89615 28.6472 10.6636C28.6472 12.431 27.9458 14.1262 26.6969 15.3769L24.7103 17.3636C24.7236 16.2703 24.5503 15.1769 24.1769 14.1369L24.8036 13.4969C25.1774 13.1272 25.4741 12.687 25.6766 12.2018C25.8791 11.7166 25.9834 11.196 25.9834 10.6703C25.9834 10.1445 25.8791 9.62394 25.6766 9.13875C25.4741 8.65355 25.1774 8.21334 24.8036 7.84359C24.4338 7.4698 23.9936 7.17307 23.5084 6.97055C23.0232 6.76803 22.5027 6.66375 21.9769 6.66375C21.4512 6.66375 20.9306 6.76803 20.4454 6.97055C19.9602 7.17307 19.52 7.4698 19.1503 7.84359L14.4436 12.5503C14.0698 12.92 13.7731 13.3602 13.5705 13.8454C13.368 14.3306 13.2638 14.8512 13.2638 15.3769C13.2638 15.9027 13.368 16.4232 13.5705 16.9084C13.7731 17.3936 14.0698 17.8338 14.4436 18.2036ZM18.2036 12.5503C18.7236 12.0303 19.5769 12.0303 20.0969 12.5503C21.3458 13.801 22.0472 15.4962 22.0472 17.2636C22.0472 19.031 21.3458 20.7262 20.0969 21.9769L15.3769 26.6969C14.1262 27.9458 12.431 28.6472 10.6636 28.6472C8.89615 28.6472 7.20096 27.9458 5.95026 26.6969C4.70143 25.4462 4 23.751 4 21.9836C4 20.2162 4.70143 18.521 5.95026 17.2703L7.93692 15.2836C7.92359 16.3769 8.09692 17.4703 8.47026 18.5236L7.84359 19.1503C7.4698 19.52 7.17307 19.9602 6.97055 20.4454C6.76803 20.9306 6.66375 21.4512 6.66375 21.9769C6.66375 22.5027 6.76803 23.0232 6.97055 23.5084C7.17307 23.9936 7.4698 24.4338 7.84359 24.8036C8.21334 25.1774 8.65355 25.4741 9.13875 25.6766C9.62394 25.8791 10.1445 25.9834 10.6703 25.9834C11.196 25.9834 11.7166 25.8791 12.2018 25.6766C12.687 25.4741 13.1272 25.1774 13.4969 24.8036L18.2036 20.0969C18.5774 19.7272 18.8741 19.287 19.0766 18.8018C19.2791 18.3166 19.3834 17.796 19.3834 17.2703C19.3834 16.7445 19.2791 16.2239 19.0766 15.7387C18.8741 15.2536 18.5774 14.8133 18.2036 14.4436C18.0741 14.3222 17.9709 14.1756 17.9003 14.0128C17.8297 13.85 17.7933 13.6744 17.7933 13.4969C17.7933 13.3195 17.8297 13.1439 17.9003 12.9811C17.9709 12.8182 18.0741 12.6716 18.2036 12.5503Z" fill="#484848"/>
</svg>
