<svg width="25" height="25" viewBox="0 0 25 25" fill="none" xmlns="http://www.w3.org/2000/svg">
<g clip-path="url(#clip0_792_8162)">
<path d="M12.5 5.04883C7.72348 5.04883 3.39189 7.6621 0.195612 11.9068C-0.0652041 12.2545 -0.0652041 12.7404 0.195612 13.0881C3.39189 17.3379 7.72348 19.9512 12.5 19.9512C17.2765 19.9512 21.6081 17.3379 24.8044 13.0932C25.0652 12.7455 25.0652 12.2596 24.8044 11.9119C21.6081 7.66211 17.2765 5.04883 12.5 5.04883ZM12.8426 17.747C9.67193 17.9464 7.05354 15.3332 7.25299 12.1573C7.41664 9.53896 9.53897 7.41663 12.1574 7.25298C15.3281 7.05353 17.9465 9.66681 17.747 12.8426C17.5782 15.4559 15.4559 17.5782 12.8426 17.747ZM12.6841 15.3229C10.976 15.4303 9.56454 14.024 9.67705 12.3159C9.76399 10.9044 10.9095 9.76398 12.321 9.67192C14.0291 9.56453 15.4406 10.9709 15.3281 12.679C15.236 14.0956 14.0905 15.236 12.6841 15.3229Z" fill="#757575"/>
</g>
<defs>
<clipPath id="clip0_792_8162">
<rect width="25" height="25" fill="white"/>
</clipPath>
</defs>
</svg>
