<svg width="25" height="25" viewBox="0 0 25 25" fill="none" xmlns="http://www.w3.org/2000/svg">
<path d="M23.2282 3.51562C22.0469 2.36214 20.4149 1.78564 18.3313 1.78564C17.7547 1.78564 17.1663 1.88562 16.5665 2.08547C15.9665 2.28547 15.4083 2.5553 14.8926 2.89476C14.3762 3.23411 13.9324 3.5528 13.5601 3.85034C13.1883 4.14797 12.8348 4.46426 12.5 4.79898C12.1651 4.46426 11.8117 4.14797 11.4398 3.85034C11.0676 3.5528 10.6236 3.23431 10.1073 2.89476C9.59114 2.55515 9.03306 2.28552 8.43321 2.08547C7.83341 1.88567 7.24504 1.78564 6.66845 1.78564C4.58504 1.78564 2.95289 2.36229 1.77175 3.51562C0.590617 4.66885 0 6.26846 0 8.31458C0 8.93774 0.109455 9.57972 0.327925 10.2397C0.546395 10.9001 0.795356 11.4628 1.07432 11.9278C1.35323 12.3927 1.66953 12.846 2.02296 13.2878C2.37639 13.7296 2.63469 14.0341 2.79726 14.2015C2.95997 14.3689 3.0879 14.4899 3.18089 14.5644L11.8861 22.9629C12.0536 23.1303 12.2582 23.2142 12.5 23.2142C12.7417 23.2142 12.9465 23.1303 13.1138 22.9629L21.8052 14.592C23.9351 12.4625 25 10.3699 25 8.31439C25 6.26812 24.4094 4.66866 23.2282 3.51562ZM20.5915 13.2809L12.5 21.0793L4.39471 13.2668C2.65546 11.528 1.78597 9.87691 1.78597 8.31439C1.78597 7.56115 1.88595 6.89607 2.0858 6.31957C2.2858 5.74298 2.54155 5.28478 2.85311 4.94533C3.16471 4.60577 3.54365 4.3293 3.99007 4.11523C4.43674 3.90135 4.87382 3.75715 5.30158 3.68278C5.72933 3.60851 6.18499 3.57132 6.66869 3.57132C7.15225 3.57132 7.67318 3.68977 8.23121 3.927C8.78913 4.16414 9.30299 4.46177 9.77262 4.81979C10.2423 5.17806 10.6446 5.51283 10.9796 5.82429C11.3143 6.13604 11.5932 6.42184 11.8165 6.68229C11.9838 6.88698 12.2118 6.9893 12.5 6.9893C12.7883 6.9893 13.0161 6.88698 13.1837 6.68229C13.4069 6.42184 13.686 6.13589 14.0207 5.82429C14.3556 5.51283 14.7578 5.17821 15.2274 4.81979C15.6971 4.46177 16.211 4.16414 16.7692 3.927C17.327 3.68982 17.8481 3.57132 18.3317 3.57132C18.8153 3.57132 19.2708 3.60851 19.6988 3.68278C20.1267 3.7571 20.5638 3.90135 21.0103 4.11523C21.4567 4.32925 21.8357 4.60592 22.1472 4.94533C22.4587 5.28478 22.7146 5.74298 22.9146 6.31957C23.1142 6.89607 23.2142 7.56115 23.2142 8.31439C23.2141 9.87691 22.34 11.5326 20.5915 13.2809Z" fill="#393939"/>
</svg>
