<svg width="40" height="38" viewBox="0 0 40 38" fill="none" xmlns="http://www.w3.org/2000/svg">
<g filter="url(#filter0_d_265_13300)">
<path d="M33.7321 4.50013C32.2201 3.02368 30.131 2.28577 27.4641 2.28577C26.726 2.28577 25.9728 2.41374 25.2051 2.66955C24.4371 2.92555 23.7227 3.27092 23.0625 3.70543C22.4016 4.13981 21.8335 4.54773 21.357 4.92857C20.881 5.30954 20.4285 5.7144 20 6.14283C19.5713 5.7144 19.1189 5.30954 18.6429 4.92857C18.1665 4.54773 17.5982 4.14006 16.9374 3.70543C16.2767 3.27074 15.5623 2.92561 14.7945 2.66955C14.0268 2.4138 13.2736 2.28577 12.5356 2.28577C9.86885 2.28577 7.7797 3.02387 6.26784 4.50013C4.75599 5.97627 4 8.02377 4 10.6428C4 11.4405 4.1401 12.2622 4.41974 13.107C4.69939 13.9522 5.01806 14.6726 5.37513 15.2677C5.73214 15.8627 6.137 16.443 6.58939 17.0086C7.04178 17.5741 7.3724 17.9638 7.58049 18.1781C7.78877 18.3923 7.95251 18.5473 8.07154 18.6426L19.2142 29.3926C19.4286 29.6069 19.6905 29.7144 19.9999 29.7144C20.3094 29.7144 20.5715 29.6069 20.7857 29.3926L31.9107 18.6779C34.6369 15.9522 35.9999 13.2736 35.9999 10.6426C36 8.02333 35.2441 5.97602 33.7321 4.50013ZM30.3571 16.9996L20 26.9817L9.62523 16.9816C7.39898 14.7559 6.28604 12.6426 6.28604 10.6426C6.28604 9.67842 6.41401 8.82711 6.66983 8.08919C6.92582 7.35115 7.25319 6.76466 7.65198 6.33016C8.05083 5.89553 8.53588 5.54165 9.10729 5.26763C9.67902 4.99387 10.2385 4.8093 10.786 4.7141C11.3335 4.61903 11.9168 4.57144 12.5359 4.57144C13.1549 4.57144 13.8217 4.72305 14.5359 5.02671C15.2501 5.33024 15.9078 5.71121 16.5089 6.16948C17.1102 6.62806 17.6251 7.05656 18.0538 7.45523C18.4823 7.85427 18.8393 8.2201 19.1251 8.55347C19.3393 8.81547 19.6312 8.94644 20.0001 8.94644C20.3691 8.94644 20.6607 8.81547 20.8751 8.55347C21.1608 8.2201 21.518 7.85408 21.9465 7.45523C22.3751 7.05656 22.89 6.62825 23.491 6.16948C24.0923 5.71121 24.75 5.33024 25.4646 5.02671C26.1786 4.72311 26.8456 4.57144 27.4646 4.57144C28.0836 4.57144 28.6666 4.61903 29.2144 4.7141C29.7621 4.80924 30.3216 4.99387 30.8931 5.26763C31.4646 5.54158 31.9497 5.89572 32.3484 6.33016C32.7472 6.76466 33.0747 7.35115 33.3307 8.08919C33.5862 8.82711 33.7142 9.67842 33.7142 10.6426C33.7141 12.6426 32.5953 14.7618 30.3571 16.9996Z" fill="black"/>
</g>
<defs>
<filter id="filter0_d_265_13300" x="0" y="0" width="40" height="40" filterUnits="userSpaceOnUse" color-interpolation-filters="sRGB">
<feFlood flood-opacity="0" result="BackgroundImageFix"/>
<feColorMatrix in="SourceAlpha" type="matrix" values="0 0 0 0 0 0 0 0 0 0 0 0 0 0 0 0 0 0 127 0" result="hardAlpha"/>
<feOffset dy="4"/>
<feGaussianBlur stdDeviation="2"/>
<feComposite in2="hardAlpha" operator="out"/>
<feColorMatrix type="matrix" values="0 0 0 0 0 0 0 0 0 0 0 0 0 0 0 0 0 0 0.25 0"/>
<feBlend mode="normal" in2="BackgroundImageFix" result="effect1_dropShadow_265_13300"/>
<feBlend mode="normal" in="SourceGraphic" in2="effect1_dropShadow_265_13300" result="shape"/>
</filter>
</defs>
</svg>
