<svg width="28" height="28" viewBox="0 0 28 28" fill="none" xmlns="http://www.w3.org/2000/svg">
<path d="M17.6923 9.5V7.25C17.6923 6.65326 17.4492 6.08097 17.0164 5.65901C16.5836 5.23705 15.9967 5 15.3846 5H4.30769C3.69565 5 3.10868 5.23705 2.67591 5.65901C2.24313 6.08097 2 6.65326 2 7.25V20.75C2 21.3467 2.24313 21.919 2.67591 22.341C3.10868 22.7629 3.69565 23 4.30769 23H15.3846C15.9967 23 16.5836 22.7629 17.0164 22.341C17.4492 21.919 17.6923 21.3467 17.6923 20.75V18.5M21.3846 9.5L26 14M26 14L21.3846 18.5M26 14H10.25" stroke="#484848" stroke-width="2" stroke-linecap="round" stroke-linejoin="round"/>
</svg>
