<svg width="22" height="24" viewBox="0 0 22 24" fill="none" xmlns="http://www.w3.org/2000/svg">
<path d="M22 17.4C22 17.856 21.7433 18.252 21.3522 18.456L11.6967 23.784C11.5011 23.928 11.2567 24 11 24C10.7433 24 10.4989 23.928 10.3033 23.784L0.647782 18.456C0.451835 18.3549 0.287853 18.203 0.17365 18.0168C0.0594465 17.8307 -0.000610097 17.6173 4.67285e-06 17.4V6.6C4.67285e-06 6.144 0.256671 5.748 0.647782 5.544L10.3033 0.216C10.4989 0.0720001 10.7433 0 11 0C11.2567 0 11.5011 0.0720001 11.6967 0.216L21.3522 5.544C21.7433 5.748 22 6.144 22 6.6V17.4ZM11 2.58L8.69 3.864L15.8889 7.932L18.2844 6.6L11 2.58ZM3.71556 6.6L11 10.62L13.3956 9.3L6.20889 5.22L3.71556 6.6ZM2.44445 16.692L9.77778 20.748V12.696L2.44445 8.652V16.692ZM19.5556 16.692V8.652L12.2222 12.696V20.748L19.5556 16.692Z" fill="#484848"/>
</svg>
