<svg width="24" height="24" viewBox="0 0 24 24" fill="none" xmlns="http://www.w3.org/2000/svg">
<g clip-path="url(#clip0_935_10593)">
<path d="M23.4375 5.92388L18.0749 0.562488C17.8966 0.38416 17.685 0.2427 17.452 0.146188C17.219 0.0496749 16.9693 0 16.7172 0C16.465 0 16.2153 0.0496749 15.9823 0.146188C15.7494 0.2427 15.5377 0.38416 15.3594 0.562488L0.562788 15.3591C0.38373 15.5368 0.241769 15.7482 0.145155 15.9812C0.0485416 16.2142 -0.000796096 16.464 9.71357e-06 16.7163V22.0789C9.71357e-06 22.5881 0.202287 23.0764 0.562343 23.4365C0.922399 23.7965 1.41074 23.9988 1.91994 23.9988H7.28253C7.53475 23.9996 7.78462 23.9503 8.0176 23.8536C8.25059 23.757 8.46204 23.6151 8.63968 23.436L18.6797 13.3972L19.0973 15.0651L14.6814 19.4798C14.5013 19.6597 14.4001 19.9039 14.4 20.1585C14.3998 20.4131 14.5009 20.6574 14.6808 20.8375C14.8608 21.0176 15.105 21.1189 15.3596 21.119C15.6142 21.1191 15.8585 21.0181 16.0386 20.8381L20.8384 16.0383C20.9558 15.9211 21.0408 15.7755 21.0852 15.6157C21.1296 15.4559 21.1318 15.2873 21.0916 15.1263L20.2636 11.8133L23.4375 8.63938C23.6158 8.46109 23.7573 8.24942 23.8538 8.01646C23.9503 7.78349 24 7.5338 24 7.28163C24 7.02947 23.9503 6.77977 23.8538 6.5468C23.7573 6.31384 23.6158 6.10217 23.4375 5.92388ZM1.91994 18.6362L5.3626 22.0789H1.91994V18.6362ZM7.67972 21.6817L2.31712 16.3191L12.4795 6.15667L17.8421 11.5193L7.67972 21.6817ZM19.1993 10.1621L13.8379 4.79953L16.7178 1.91964L22.0792 7.28223L19.1993 10.1621Z" fill="#484848"/>
</g>
<defs>
<clipPath id="clip0_935_10593">
<rect width="24" height="24" fill="white"/>
</clipPath>
</defs>
</svg>
