<svg width="20" height="21" viewBox="0 0 20 21" fill="none" xmlns="http://www.w3.org/2000/svg">
<path d="M10 16.2617C10.5393 16.2617 10.9766 15.8245 10.9766 15.2852C10.9766 14.7458 10.5393 14.3086 10 14.3086C9.46066 14.3086 9.02344 14.7458 9.02344 15.2852C9.02344 15.8245 9.46066 16.2617 10 16.2617Z" fill="#545353"/>
<path d="M10 0.5C4.47328 0.5 0 4.97254 0 10.5C0 16.0267 4.47254 20.5 10 20.5C15.5267 20.5 20 16.0275 20 10.5C20 4.97328 15.5275 0.5 10 0.5ZM10 18.9375C5.33684 18.9375 1.5625 15.1638 1.5625 10.5C1.5625 5.83684 5.33621 2.0625 10 2.0625C14.6632 2.0625 18.4375 5.83621 18.4375 10.5C18.4375 15.1632 14.6638 18.9375 10 18.9375Z" fill="#545353"/>
<path d="M10 5.51953C8.27688 5.51953 6.875 6.92141 6.875 8.64453C6.875 9.07602 7.22477 9.42578 7.65625 9.42578C8.08773 9.42578 8.4375 9.07602 8.4375 8.64453C8.4375 7.78297 9.13844 7.08203 10 7.08203C10.8616 7.08203 11.5625 7.78297 11.5625 8.64453C11.5625 9.50609 10.8616 10.207 10 10.207C9.56852 10.207 9.21875 10.5568 9.21875 10.9883V12.9414C9.21875 13.3729 9.56852 13.7227 10 13.7227C10.4315 13.7227 10.7812 13.3729 10.7812 12.9414V11.6707C12.1276 11.3229 13.125 10.098 13.125 8.64453C13.125 6.92141 11.7231 5.51953 10 5.51953Z" fill="#545353"/>
</svg>
