<svg width="32" height="33" viewBox="0 0 32 33" fill="none" xmlns="http://www.w3.org/2000/svg">
<path d="M30.6871 15.2406L19.9726 4.80603C19.8228 4.66002 19.632 4.56053 19.4241 4.52016C19.2163 4.47979 19.0009 4.50034 18.805 4.57923C18.6092 4.65811 18.4418 4.79177 18.324 4.96332C18.2061 5.13487 18.1432 5.33659 18.1431 5.54297V10.8059C14.6689 11.0955 10.8318 12.7519 7.67505 15.3593C3.87408 18.5001 1.50752 22.5474 1.01063 26.7551C0.971803 27.0822 1.03991 27.4129 1.20527 27.7002C1.37062 27.9874 1.6248 28.2166 1.93162 28.355C2.23844 28.4934 2.58228 28.5341 2.9142 28.4712C3.24612 28.4083 3.54921 28.245 3.78033 28.0046C5.25357 26.4773 10.4956 21.6474 18.1431 21.2222V26.4121C18.1432 26.6184 18.2061 26.8202 18.324 26.9917C18.4418 27.1632 18.6092 27.2969 18.805 27.3758C19.0009 27.4547 19.2163 27.4752 19.4241 27.4349C19.632 27.3945 19.8228 27.295 19.9726 27.149L30.6871 16.7145C30.8875 16.5188 31 16.2538 31 15.9775C31 15.7012 30.8875 15.4362 30.6871 15.2406ZM20.286 23.8934V20.1513C20.286 19.8746 20.1731 19.6092 19.9722 19.4135C19.7712 19.2178 19.4987 19.1079 19.2146 19.1079C15.4538 19.1079 11.7908 20.0639 8.32729 21.9513C6.56334 22.9168 4.91983 24.0775 3.42943 25.4103C4.20623 22.3008 6.1643 19.344 9.06123 16.9505C12.1711 14.3823 15.9667 12.8471 19.2146 12.8471C19.4987 12.8471 19.7712 12.7372 19.9722 12.5415C20.1731 12.3458 20.286 12.0804 20.286 11.8037V8.06291L28.4143 15.9775L20.286 23.8934Z" fill="#FEFEFE"/>

<path d="M30.6871 14.7406L19.9726 4.30603C19.8228 4.16002 19.632 4.06053 19.4241 4.02016C19.2163 3.97979 19.0009 4.00034 18.805 4.07923C18.6092 4.15811 18.4418 4.29177 18.324 4.46332C18.2061 4.63487 18.1432 4.83659 18.1431 5.04297V10.3059C14.6689 10.5955 10.8318 12.2519 7.67505 14.8593C3.87408 18.0001 1.50752 22.0474 1.01063 26.2551C0.971803 26.5822 1.03991 26.9129 1.20527 27.2002C1.37062 27.4874 1.6248 27.7166 1.93162 27.855C2.23844 27.9934 2.58228 28.0341 2.9142 27.9712C3.24612 27.9083 3.54921 27.745 3.78033 27.5046C5.25357 25.9773 10.4956 21.1474 18.1431 20.7222V25.9121C18.1432 26.1184 18.2061 26.3202 18.324 26.4917C18.4418 26.6632 18.6092 26.7969 18.805 26.8758C19.0009 26.9547 19.2163 26.9752 19.4241 26.9349C19.632 26.8945 19.8228 26.795 19.9726 26.649L30.6871 16.2145C30.8875 16.0188 31 15.7538 31 15.4775C31 15.2012 30.8875 14.9362 30.6871 14.7406Z" fill="none" class="pressed"/>
</svg>
