<svg width="25" height="25" viewBox="0 0 32 32" fill="none" xmlns="http://www.w3.org/2000/svg">
<path d="M16.6617 1.59961C17.5319 1.74622 18.4143 1.83547 19.2598 2.05857C23.4748 3.18049 26.5975 5.66017 28.1156 9.97571C28.4983 11.0657 28.6093 12.2642 28.8624 13.4689C30.2386 13.9088 30.4114 14.1765 30.399 15.9614C30.399 17.0004 30.0287 17.4466 28.9981 17.759C28.6464 19.155 28.3131 20.5064 27.9675 21.8578C27.6158 23.2538 27.2517 24.6434 26.8876 26.0331C26.2087 28.6466 24.0364 30.3996 21.4198 30.3996C17.7355 30.3996 14.0512 30.3996 10.367 30.3805C7.58988 30.3677 5.49163 28.6339 4.8313 25.8355C4.28206 23.5088 3.73281 21.1821 3.20825 18.849C3.1342 18.5175 3.19591 18.1606 3.19591 17.81C1.77034 17.3255 1.4988 16.8538 1.6284 15.0626C1.69011 14.1893 2.23319 13.6602 3.23911 13.4881C3.38105 12.5829 3.43042 11.6586 3.6711 10.7916C4.93622 6.2275 7.99101 3.51833 12.2862 2.18606C13.1626 1.91196 14.1006 1.85459 15.0078 1.69523C15.125 1.6761 15.2423 1.63148 15.3534 1.59961H16.6617ZM27.1282 13.4944C27.0233 8.54782 22.4566 3.77969 16.3963 3.60758C10.1263 3.42909 5.1337 8.20359 4.9609 13.4944H27.1344H27.1282ZM16.0075 17.2554C17.0567 17.2554 18.112 17.2554 19.1611 17.2554C22.3023 17.2554 25.4373 17.2554 28.5785 17.2554C29.0907 17.2554 29.5597 17.1406 29.7757 16.6498C30.0719 15.9805 30.0781 15.2538 29.7572 14.5908C29.4795 14.0108 28.9241 14.0235 28.381 14.0235C20.1423 14.0235 11.9098 14.0235 3.6711 14.0235C3.49213 14.0235 3.28848 13.9789 3.12802 14.0426C2.85032 14.151 2.51089 14.2594 2.35661 14.4889C1.91228 15.1327 1.98633 15.8912 2.22701 16.5861C2.44301 17.2044 3.01694 17.2618 3.59704 17.2554C7.73182 17.2426 11.8666 17.2554 16.0075 17.2554ZM28.3255 13.5008C28.3255 13.2968 28.3378 13.112 28.3255 12.9335C28.1342 9.78447 26.8073 7.20917 24.4931 5.21395C21.1914 2.3518 17.3591 1.453 13.1811 2.36455C9.41041 3.18686 6.51607 5.30957 4.73874 8.89841C4.02904 10.3263 3.6711 11.8626 3.7143 13.4944H4.44868C4.72022 8.01236 9.53384 3.35897 15.7792 3.20598C18.4575 3.13586 20.9508 3.86893 23.1539 5.48806C25.8261 7.4514 27.3751 10.1032 27.6405 13.5008H28.3193H28.3255ZM21.8147 27.7797L20.0004 25.7908L18.2416 27.7159L20.0497 29.6729L21.8147 27.7797ZM21.8271 23.394L20.0127 21.3924L18.2169 23.3367L20.0436 25.3064L21.8271 23.394ZM5.25712 23.292L7.07766 25.3638L8.87968 23.4068L6.99126 21.4116L5.25712 23.292ZM22.1418 23.5853L20.3892 25.5359L22.1603 27.5247L24.0117 25.5614L22.1418 23.5916V23.5853ZM13.5699 27.5183L15.3904 25.6315L13.5267 23.6426L11.7432 25.5422L13.576 27.5247L13.5699 27.5183ZM13.5575 19.1996L11.7493 21.1693L13.5637 23.1008L15.4028 21.1693L13.5575 19.1996ZM20.3645 21.1183L22.1974 23.1263L23.987 21.1821L22.1171 19.1932L20.3645 21.112V21.1183ZM17.5565 23.3685L15.699 21.3924L13.9093 23.2602L15.699 25.3829L17.5504 23.3749L17.5565 23.3685ZM11.015 21.2203L9.23145 19.1805L7.42942 21.0418L9.21293 23.1327L11.015 21.2203ZM17.538 27.8052L15.6805 25.7335L13.897 27.6394L15.7298 29.7367L17.538 27.8052ZM7.36154 25.5167L9.16356 27.5183L10.9532 25.5614L9.19442 23.547L7.35537 25.5167H7.36154ZM11.4284 25.7653L9.58321 27.7478L11.3914 29.6729L13.1687 27.7287L11.4284 25.7653ZM17.8404 27.5247L19.6116 25.5677L17.9021 23.5725L16.0507 25.5677L17.8342 27.5247H17.8404ZM13.2058 23.3749L11.4223 21.3542L9.58938 23.3494L11.3914 25.3255L13.1996 23.3749H13.2058ZM17.8219 23.1199L19.6239 21.1821L17.9021 19.1869L16.0693 21.1821L17.8219 23.1199ZM24.3697 21.3542L22.5306 23.2538L24.3511 25.3446L26.184 23.3749L24.3697 21.3542ZM26.4802 23.1327C27.443 22.3167 27.6158 22.0363 27.8256 20.8889C27.8503 20.7486 27.8194 20.5446 27.733 20.4363C27.3689 19.9773 26.9801 19.5438 26.5913 19.0912L24.6659 21.1948L26.4802 23.1327ZM18.149 18.8809L20.0436 20.9398L21.9443 18.9574C20.8088 17.4211 19.4758 17.1598 18.149 18.8809ZM13.8538 18.8618L15.773 20.9271L17.5997 18.9319C16.5506 17.3701 15.0078 17.2044 13.8538 18.8618ZM7.10852 20.9462L8.95374 18.9C7.77502 17.1789 6.14579 17.3829 5.23244 18.9L7.10852 20.9462ZM24.3326 20.9653L26.2149 18.9C25.0732 17.1789 23.4563 17.3829 22.4812 18.8873L24.3326 20.9653ZM11.3729 20.9653L13.2737 18.9319C12.1258 17.2171 10.583 17.3574 9.4783 18.9638L11.3729 20.9653ZM22.5244 27.6267L24.0858 29.4243L25.9433 27.5502L24.3573 25.7335L22.5244 27.6203V27.6267ZM4.9609 19.1932C4.17715 19.7223 3.70813 20.2833 4.13395 21.2522C4.28823 21.6028 4.2944 22.0171 4.424 22.3869C4.51657 22.661 4.70171 22.8968 4.8745 23.2028L6.78761 21.2012L4.9609 19.1932ZM7.07766 25.7462L5.61506 27.257L7.49114 29.3223L8.93522 27.6841L7.07766 25.7526V25.7462ZM19.6239 29.9853L17.9392 28.0538L15.9705 29.9853H19.6239ZM26.147 27.206C26.4185 26.2498 26.6284 25.4084 26.8937 24.5861C27.048 24.1016 26.9246 23.8084 26.5234 23.6171L24.6782 25.5996L26.1408 27.206H26.147ZM15.3781 29.9725L13.5205 28.0219L11.6568 29.9725H15.3781ZM20.2719 30.0108C21.4568 30.0681 22.5923 30.0936 23.5365 29.5518L22.1295 27.9518L20.2657 30.0108H20.2719ZM7.85525 29.3797C8.91054 29.947 9.972 30.0873 10.9779 29.9661L9.23145 27.9518L7.85525 29.3797ZM4.93005 23.5853L4.72022 23.6554L5.51015 26.9255L6.74441 25.6315L4.93622 23.5789L4.93005 23.5853ZM27.9737 20.3088C28.165 19.5757 28.344 18.9765 28.4736 18.3645C28.5106 18.1988 28.4551 17.8801 28.3563 17.8418C28.1897 17.7717 27.8996 17.7845 27.7639 17.8928C27.3751 18.1988 27.0295 18.5749 26.6962 18.9L27.9737 20.3088ZM4.67085 19.0339L3.64024 17.9757C3.33785 18.6323 3.75133 19.1869 3.81921 19.8689L4.67085 19.0339ZM27.4059 17.8163H25.8014L26.4926 18.798L27.4059 17.8163ZM21.3642 17.81L22.222 18.7853L22.9996 17.81H21.3642ZM14.4092 17.8291H12.7306L13.5699 18.8108L14.4092 17.8291ZM8.25638 17.8036L9.15739 18.6769L10.0275 17.8036H8.26255H8.25638ZM4.15863 17.8163L4.88068 18.7215L5.76934 17.8163H4.15863ZM17.7293 18.6132L18.7353 17.8291H17.0196L17.7232 18.6132H17.7293Z" fill="#393939"/>
</svg>
