<svg width="25" height="25" viewBox="0 0 24 24" fill="none" xmlns="http://www.w3.org/2000/svg">
<path d="M16.5706 7.36943C16.5706 9.74811 14.559 11.7389 11.9992 11.7389C9.4393 11.7389 7.42773 9.74811 7.42773 7.36943C7.42773 4.99075 9.4393 3 11.9992 3C14.559 3 16.5706 4.99075 16.5706 7.36943Z" stroke="#484848" stroke-width="2" stroke-linecap="round" stroke-linejoin="round"
fill="none" class="head"/>
<mask id="path-2-inside-1_741_8478" fill="white">
<path d="M3 21.0009C3 16.8706 6.42857 12.7402 12 12.7402C17.5714 12.7402 21 16.8706 21 21.0009"/>
</mask>

<path d="M1 21.0009C1 22.1055 1.89543 23.0009 3 23.0009C4.10457 23.0009 5 22.1055 5 21.0009H1ZM19 21.0009C19 22.1055 19.8954 23.0009 21 23.0009C22.1046 23.0009 23 22.1055 23 21.0009H19ZM5 21.0009C5 17.9808 7.52743 14.7402 12 14.7402V10.7402C5.32972 10.7402 1 15.7603 1 21.0009H5ZM12 14.7402C16.4726 14.7402 19 17.9808 19 21.0009H23C23 15.7603 18.6703 10.7402 12 10.7402V14.7402Z" fill="#484848" mask="url(#path-2-inside-1_741_8478)"/>

<path d="M3 21.0009C3 16.8706 6.42857 12.7402 12 12.7402C17.5714 12.7402 21 16.8706 21 21.0009" fill="none" class="bottom"/>
</svg>

