<svg width="32" height="32" viewBox="0 0 32 32" fill="none" xmlns="http://www.w3.org/2000/svg">
<path d="M21.9275 9.82526C21.9275 12.899 19.3258 15.4845 15.9989 15.4845C12.6719 15.4845 10.0703 12.899 10.0703 9.82526C10.0703 6.75147 12.6719 4.16602 15.9989 4.16602C19.3258 4.16602 21.9275 6.75147 21.9275 9.82526Z" stroke="#484848" stroke-width="3" stroke-linecap="round" stroke-linejoin="round" class="pressed"/>
<mask id="path-2-inside-1_741_8478" fill="white">
<path d="M4 27.9986C4 22.4915 8.57143 16.9844 16 16.9844C23.4286 16.9844 28 22.4915 28 27.9986"/>
</mask>
<path d="M4 27.9986C4 22.4915 8.57143 16.9844 16 16.9844C23.4286 16.9844 28 22.4915 28 27.9986" fill="none" class="pressed"/>

<path d="M1 27.9986C1 29.6554 2.34315 30.9986 4 30.9986C5.65685 30.9986 7 29.6554 7 27.9986H1ZM25 27.9986C25 29.6554 26.3431 30.9986 28 30.9986C29.6569 30.9986 31 29.6554 31 27.9986H25ZM7 27.9986C7 24.1569 10.2197 19.9844 16 19.9844V13.9844C6.92315 13.9844 1 20.8261 1 27.9986H7ZM16 19.9844C21.7803 19.9844 25 24.1569 25 27.9986H31C31 20.8261 25.0769 13.9844 16 13.9844V19.9844Z" fill="#484848" mask="url(#path-2-inside-1_741_8478)"/>
</svg>


