<svg width="25" height="25" viewBox="0 0 26 29" fill="none" xmlns="http://www.w3.org/2000/svg">
<path d="M19.3003 6.9153C19.3003 10.3041 16.5531 13.0513 13.1643 13.0513C9.7755 13.0513 7.02832 10.3041 7.02832 6.9153C7.02832 3.52648 9.7755 0.779297 13.1643 0.779297C16.5531 0.779297 19.3003 3.52648 19.3003 6.9153Z" stroke="black"/>
<path d="M3.4258 18.0332C4.75918 16.6998 6.56693 15.9497 8.4526 15.9473H17.8751C19.7608 15.9497 21.5685 16.6998 22.9019 18.0332C24.2353 19.3667 24.9855 21.1745 24.9878 23.0603V27.7713C24.9878 27.8901 24.9406 28.004 24.8566 28.088C24.7726 28.1721 24.6587 28.2193 24.5398 28.2193H1.78784C1.66903 28.2193 1.55508 28.1721 1.47106 28.088C1.38704 28.004 1.33984 27.8901 1.33984 27.7713V23.06C1.34227 21.1743 2.09242 19.3666 3.4258 18.0332Z" stroke="black"/>
</svg>
