<svg width="32" height="32" viewBox="0 0 32 32" fill="none" xmlns="http://www.w3.org/2000/svg">
<path d="M16.0026 3.51653C17.8305 1.83482 20.2157 0.936527 22.668 1.00625C25.1203 1.07597 27.4535 2.10841 29.1881 3.89141C30.9212 5.67242 31.9259 8.06732 31.9961 10.5852C32.0663 13.1031 31.1967 15.5532 29.5657 17.4332L15.9994 31.396L2.43644 17.4332C0.803464 15.5522 -0.0669061 13.1 0.00401752 10.5801C0.0749412 8.06019 1.08178 5.66381 2.81782 3.88291C4.55386 2.10202 6.88738 1.07174 9.33931 1.00361C11.7912 0.935473 14.1755 1.83465 16.0026 3.51653ZM26.9228 6.2147C25.7671 5.02778 24.2132 4.34042 22.5801 4.29364C20.9469 4.24686 19.3582 4.84421 18.14 5.96313L16.0042 7.93291L13.8669 5.96478C12.648 4.84451 11.0579 4.24651 9.42328 4.2936C7.78869 4.34069 6.23369 5.0293 5.07769 6.21799C3.93265 7.39476 3.26426 8.97394 3.20726 10.6372C3.15026 12.3004 3.70889 13.924 4.77053 15.1807L16.001 26.7412L27.2316 15.1823C28.2944 13.9251 28.8536 12.3004 28.7963 10.636C28.739 8.97158 28.0694 7.39151 26.9228 6.2147Z" fill="#484848"/>
<path d="M22.668 1.00625C20.2157 0.936527 17.8305 1.83482 16.0026 3.51653C14.1755 1.83465 11.7912 0.935473 9.33931 1.00361C6.88738 1.07174 4.55386 2.10202 2.81782 3.88291C1.08178 5.66381 0.0749412 8.06019 0.00401752 10.5801C-0.0669061 13.1 0.803464 15.5522 2.43644 17.4332L15.9994 31.396L29.5657 17.4332C31.1967 15.5532 32.0663 13.1031 31.9961 10.5852C31.9259 8.06732 30.9212 5.67242 29.1881 3.89141C27.4535 2.10841 25.1203 1.07597 22.668 1.00625Z" class="pressed"/>
</svg>
