<svg width="18" height="18" viewBox="0 0 18 18" fill="none" xmlns="http://www.w3.org/2000/svg">
<path d="M14.2388 1.84453C12.9998 0.655094 11.2852 0 9.41074 0C6.54746 0 4.78641 1.1737 3.81329 2.15826C2.61399 3.37161 1.92627 4.9827 1.92627 6.57852C1.92627 8.58218 2.76435 10.1201 4.16784 10.6922C4.26206 10.7308 4.35686 10.7502 4.44981 10.7502C4.74589 10.7502 4.98049 10.5565 5.06177 10.2457C5.10914 10.0675 5.21893 9.62763 5.26665 9.43669C5.36882 9.05962 5.28627 8.87826 5.06345 8.61567C4.65753 8.13538 4.4685 7.56743 4.4685 6.82827C4.4685 4.63274 6.10334 2.29933 9.13335 2.29933C11.5375 2.29933 13.031 3.66578 13.031 5.86537C13.031 7.25341 12.732 8.53887 12.189 9.48511C11.8116 10.1426 11.148 10.9263 10.1293 10.9263C9.68882 10.9263 9.29312 10.7454 9.04343 10.4299C8.80755 10.1317 8.72981 9.74642 8.82467 9.34491C8.93184 8.89126 9.07797 8.41806 9.21939 7.96058C9.47733 7.12505 9.72116 6.33591 9.72116 5.7063C9.72116 4.62938 9.0591 3.90578 8.07385 3.90578C6.82171 3.90578 5.84075 5.17753 5.84075 6.80104C5.84075 7.59727 6.05237 8.1928 6.14816 8.42148C5.99042 9.08981 5.05295 13.0632 4.87512 13.8124C4.77231 14.2498 4.15292 17.7044 5.17811 17.9799C6.32999 18.2893 7.35959 14.9248 7.46438 14.5446C7.54932 14.2354 7.8465 13.0662 8.02862 12.3475C8.58467 12.8831 9.48 13.2452 10.3512 13.2452C11.9935 13.2452 13.4705 12.5062 14.5101 11.1644C15.5183 9.86287 16.0736 8.04888 16.0736 6.05678C16.0736 4.49939 15.4048 2.96406 14.2388 1.84453Z" fill="#E0C0C3"/>
</svg>
