<svg width="18" height="18" viewBox="0 0 18 18" fill="none" xmlns="http://www.w3.org/2000/svg">
<path d="M13.4993 0.00374516L11.1651 0C8.54277 0 6.84809 1.73869 6.84809 4.42978V6.4722H4.50118C4.29838 6.4722 4.13416 6.63661 4.13416 6.83942V9.79866C4.13416 10.0015 4.29857 10.1657 4.50118 10.1657H6.84809V17.6328C6.84809 17.8356 7.01231 17.9998 7.21511 17.9998H10.2772C10.48 17.9998 10.6442 17.8354 10.6442 17.6328V10.1657H13.3883C13.5911 10.1657 13.7553 10.0015 13.7553 9.79866L13.7564 6.83942C13.7564 6.74204 13.7176 6.64879 13.6489 6.57988C13.5802 6.51096 13.4866 6.4722 13.3892 6.4722H10.6442V4.74081C10.6442 3.90864 10.8425 3.48618 11.9265 3.48618L13.4989 3.48562C13.7015 3.48562 13.8658 3.32121 13.8658 3.1186V0.370771C13.8658 0.168345 13.7017 0.00411968 13.4993 0.00374516Z" fill="#E0C0C3"/>
</svg>
