<svg width="24" height="24" viewBox="0 0 24 24" fill="none" xmlns="http://www.w3.org/2000/svg">
<path d="M18.2862 6.34599C18.2862 2.87383 15.472 0.0595703 11.9993 0.0595703C8.52665 0.0595703 5.71289 2.87383 5.71289 6.34599C5.71289 11.3206 11.9993 18.682 11.9993 18.682C11.9993 18.682 18.2862 11.295 18.2862 6.34599ZM8.89901 5.97062C8.89901 4.25788 10.2876 2.86982 11.9998 2.86982C13.7121 2.86982 15.1006 4.25788 15.1006 5.97062C15.1006 7.68336 13.7121 9.07142 11.9998 9.07142C10.2876 9.07142 8.89901 7.68336 8.89901 5.97062Z" fill="white"/>
<path d="M11.9992 7.49492C12.8412 7.49492 13.5237 6.81235 13.5237 5.97036C13.5237 5.12837 12.8412 4.4458 11.9992 4.4458C11.1572 4.4458 10.4746 5.12837 10.4746 5.97036C10.4746 6.81235 11.1572 7.49492 11.9992 7.49492Z" fill="white"/>
<path d="M15.5537 16.4951C15.0413 17.2358 14.5606 17.8807 14.1601 18.3986C18.1326 18.6374 20.7361 19.4951 21.7046 20.1329C20.57 20.8811 17.1987 21.9329 12.0003 21.9329C6.8023 21.9329 3.43051 20.8806 2.29587 20.1329C3.2644 19.4951 5.86589 18.6379 9.83435 18.3991C9.43289 17.8812 8.95164 17.2368 8.43877 16.4961C3.55044 16.9774 0 18.4236 0 20.1324C0 22.235 5.37309 23.9403 12.0003 23.9403C18.6279 23.9403 24 22.236 24 20.1324C24.001 18.4226 20.4465 16.9759 15.5537 16.4951Z" fill="white"/>
</svg>
