<svg width="16" height="24" viewBox="0 0 16 24" fill="none" xmlns="http://www.w3.org/2000/svg">
<path d="M9.09117 12.3636C12.4998 12.3636 15.273 9.59047 15.273 6.18182C15.273 2.77316 12.4998 0 9.09117 0C9.07787 0 9.06463 0.000218182 9.05147 0.000727273H4.00172C4.00121 0.000727273 4.00077 0.000654545 4.00034 0.000654545C3.39787 0.000654545 2.90943 0.489091 2.90943 1.09156V1.09164V11.2727V14.5455H1.81845C1.21598 14.5455 0.727539 15.0339 0.727539 15.6364C0.727539 16.2388 1.21598 16.7273 1.81845 16.7273H2.90936V22.9091C2.90936 23.5116 3.39779 24 4.00027 24C4.60274 24 5.09118 23.5116 5.09118 22.9091V16.7273H9.09117C9.69365 16.7273 10.1821 16.2388 10.1821 15.6364C10.1821 15.0339 9.69365 14.5455 9.09117 14.5455H5.09118V12.3636H9.09117ZM9.09117 2.18255C9.10296 2.18255 9.11474 2.18233 9.12637 2.18196C11.3159 2.20087 13.0912 3.98793 13.0912 6.18182C13.0912 8.38742 11.2968 10.1818 9.09117 10.1818H5.09118V2.18255H9.09117Z" fill="white"/>
</svg>

