<svg width="24" height="24" viewBox="0 0 24 24" fill="none" xmlns="http://www.w3.org/2000/svg">
<g clip-path="url(#clip0)">
<path d="M4.64714 4.03578C4.64714 2.32948 6.03041 0.946214 7.73672 0.946214C9.44303 0.946214 10.8261 2.32948 10.8261 4.03578V6.62343L11.4232 6.08433C11.4522 6.05779 11.4759 6.02614 11.493 5.99101H11.5579V4.03578C11.5579 1.92536 9.84714 0.214355 7.73672 0.214355C5.62609 0.214355 3.91528 1.92536 3.91528 4.03578V5.99122H4.64714V4.03578Z" fill="#8A8E99"/>
<path d="M17.9959 14.7802C17.8364 14.9043 17.8078 15.1343 17.932 15.2938L18.2091 15.6497C18.3663 15.4359 18.497 15.2035 18.5978 14.958L18.5094 14.8443C18.3853 14.6848 18.1553 14.6562 17.9959 14.7802Z" fill="#8A8E99"/>
<path d="M8.10234 8.43115C8.00391 8.43115 7.91773 8.49731 7.89221 8.59227C7.86668 8.68743 7.90834 8.78769 7.9937 8.8369C8.07885 8.88611 8.18668 8.87202 8.25611 8.80239C8.31839 8.74011 8.33697 8.64659 8.30348 8.56531C8.26979 8.48404 8.19035 8.43115 8.10234 8.43115Z" fill="#8A8E99"/>
<path d="M10.0582 10.6337C10.1507 10.0279 10.673 9.58109 11.2858 9.58354H13.9462L13.5251 6.56278C13.4732 6.23279 13.1882 5.98999 12.8541 5.99122H11.558V7.90622C11.558 8.10838 11.3943 8.27215 11.1921 8.27215C10.9901 8.27215 10.8262 8.10838 10.8262 7.90622V6.62383L9.89624 7.46372L9.90604 9.41058C9.90645 9.4943 9.87337 9.57476 9.81415 9.63397L6.99555 12.4526C6.66576 12.7826 6.13075 12.7826 5.80097 12.4526L4.29865 10.9503C3.96866 10.6205 3.96866 10.0855 4.29865 9.75547L7.11746 6.93687C7.17729 6.87888 7.25713 6.846 7.34065 6.84519L9.58279 6.85642C9.5981 6.85662 9.61342 6.85785 9.62853 6.8603L10.5903 5.99142H4.64702V7.90622C4.64702 8.10838 4.48325 8.27215 4.28109 8.27215C4.07893 8.27215 3.91516 8.10838 3.91516 7.90622V5.99142H2.61909C2.28502 5.98999 1.99995 6.23279 1.94829 6.56278L0 20.5404C0.0142942 21.4832 0.782093 22.2402 1.7251 22.2412H8.43987L10.0569 10.6399L10.0582 10.6337Z" fill="#8A8E99"/>
<path d="M7.46828 7.47314L4.74218 10.1992C4.65723 10.284 4.65723 10.4218 4.74218 10.5068L6.24429 12.0091C6.32924 12.0938 6.46708 12.0938 6.55202 12.0091L9.27792 9.28299L9.26894 7.48213L7.46828 7.47314ZM8.69982 9.24623C8.36983 9.57622 7.83503 9.57622 7.50504 9.24623C7.17504 8.91624 7.17504 8.38143 7.50504 8.05144C7.83503 7.72145 8.36983 7.72145 8.69982 8.05144C8.85951 8.20909 8.94956 8.42432 8.94956 8.64894C8.94956 8.87336 8.85951 9.08859 8.69982 9.24623Z" fill="#8A8E99"/>
<path d="M21.5569 22.2598L18.9607 19.254C18.8968 19.18 18.8651 19.0837 18.8729 18.9863L19.0471 16.759C19.0477 16.7496 19.0493 16.7406 19.0506 16.7317L18.209 15.6506C17.3751 16.7895 15.9034 17.2628 14.562 16.824C13.2204 16.3849 12.3133 15.1332 12.3139 13.7215V12.0436C12.3139 11.8416 12.4777 11.6777 12.6799 11.6777C12.882 11.6777 13.0458 11.8416 13.0458 12.0436V13.7213C13.0458 15.1199 14.1795 16.2536 15.5779 16.2536C16.9765 16.2536 18.1102 15.1199 18.1102 13.7213V12.0436C18.1102 11.8416 18.274 11.6777 18.4761 11.6777C18.6783 11.6777 18.8421 11.8416 18.8421 12.0436V13.7213C18.8425 14.1456 18.7594 14.5661 18.5978 14.9586L19.7542 16.4437L21.1822 16.5409L20.3744 10.7445C20.3352 10.4968 20.1212 10.3144 19.8702 10.3154H11.2858C11.0348 10.3144 10.8208 10.4968 10.7816 10.7445L9.14819 22.4624C9.16208 23.2192 9.77918 23.8256 10.5362 23.8262H20.6201C21.347 23.8254 21.9504 23.2645 22.0041 22.5396C21.8302 22.4938 21.6741 22.3962 21.5569 22.2598Z" fill="#8A8E99"/>
<path d="M20.7739 18.2012C20.6971 18.2012 20.6309 18.2547 20.6146 18.3298C20.5983 18.4048 20.6364 18.4809 20.7063 18.5128C20.7761 18.5446 20.8588 18.5236 20.9048 18.4623C20.9509 18.4009 20.9478 18.3157 20.8976 18.2575C20.8666 18.2216 20.8214 18.201 20.7739 18.2012Z" fill="#8A8E99"/>
<path d="M23.9603 20.184L21.464 17.2936L19.7487 17.1768L19.6145 18.8908L22.1109 21.7815C22.1699 21.8497 22.273 21.8573 22.3412 21.7983L23.9436 20.4146C24.0118 20.3556 24.0193 20.2524 23.9603 20.184ZM21.6669 18.4293C21.6328 18.8968 21.244 19.2586 20.7756 19.2592C20.7533 19.2592 20.7311 19.2586 20.7088 19.257C20.2157 19.2208 19.8452 18.7918 19.8814 18.2988C19.9175 17.8057 20.3464 17.4353 20.8395 17.4714C21.3325 17.5074 21.7031 17.9364 21.6669 18.4293Z" fill="#8A8E99"/>
</g>
<defs>
<clipPath id="clip0">
<rect width="24" height="24" fill="white"/>
</clipPath>
</defs>
</svg>
