<svg width="24" height="24" viewBox="0 0 24 24" fill="none" xmlns="http://www.w3.org/2000/svg">
<path fill-rule="evenodd" clip-rule="evenodd" d="M3.26917 3.75474C3.13657 3.60034 3.05113 3.41127 3.02299 3.20994C2.99484 3.0086 3.02517 2.80344 3.11038 2.61877C3.19558 2.4341 3.33209 2.27766 3.50373 2.16799C3.67536 2.05832 3.87493 2.00002 4.07878 2H17.25C17.8738 2 18.4915 2.12252 19.0677 2.36057C19.644 2.59862 20.1677 2.94753 20.6088 3.38739C21.0498 3.82725 21.3997 4.34943 21.6384 4.92413C21.8771 5.49883 22 6.11479 22 6.73684C22 7.35889 21.8771 7.97485 21.6384 8.54955C21.3997 9.12425 21.0498 9.64644 20.6088 10.0863C20.1677 10.5262 19.644 10.8751 19.0677 11.1131C18.4915 11.3512 17.8738 11.4737 17.25 11.4737H4.07878C3.87493 11.4737 3.67536 11.4154 3.50373 11.3057C3.33209 11.196 3.19558 11.0396 3.11038 10.8549C3.02517 10.6702 2.99484 10.4651 3.02299 10.2637C3.05113 10.0624 3.13657 9.87334 3.26917 9.71895L4.06506 8.79263C4.55707 8.22027 4.82752 7.49125 4.82752 6.73737C4.82752 5.98348 4.55707 5.25447 4.06506 4.68211L3.26917 3.75474ZM6.23211 4.10526C6.69492 4.9055 6.93855 5.81305 6.93855 6.73684C6.93855 7.66063 6.69492 8.56818 6.23211 9.36842H17.25C17.9499 9.36842 18.6211 9.09117 19.116 8.59765C19.6109 8.10413 19.8889 7.43478 19.8889 6.73684C19.8889 6.0389 19.6109 5.36955 19.116 4.87603C18.6211 4.38252 17.9499 4.10526 17.25 4.10526H6.23211ZM3 17.2632C3 16.0069 3.50044 14.802 4.39124 13.9137C5.28204 13.0254 6.49022 12.5263 7.75 12.5263H20.9212C21.1251 12.5263 21.3246 12.5846 21.4963 12.6943C21.6679 12.804 21.8044 12.9604 21.8896 13.1451C21.9748 13.3298 22.0052 13.5349 21.977 13.7363C21.9489 13.9376 21.8634 14.1267 21.7308 14.2811L20.9339 15.2074C20.4419 15.7797 20.1714 16.5087 20.1714 17.2626C20.1714 18.0165 20.4419 18.7455 20.9339 19.3179L21.7308 20.2442C21.8638 20.3986 21.9495 20.5877 21.9778 20.7893C22.0061 20.9908 21.9759 21.1961 21.8906 21.381C21.8054 21.5659 21.6687 21.7225 21.4969 21.8322C21.3251 21.9419 21.1253 22.0002 20.9212 22H7.75C6.49022 22 5.28204 21.5009 4.39124 20.6126C3.50044 19.7243 3 18.5194 3 17.2632ZM7.75 14.6316C7.05012 14.6316 6.37891 14.9088 5.88402 15.4024C5.38914 15.8959 5.11111 16.5652 5.11111 17.2632C5.11111 17.9611 5.38914 18.6304 5.88402 19.124C6.37891 19.6175 7.05012 19.8947 7.75 19.8947H18.7679C18.3051 19.0945 18.0615 18.187 18.0615 17.2632C18.0615 16.3394 18.3051 15.4318 18.7679 14.6316H7.75Z" fill="#484848"/>
</svg>
