<svg width="24" height="25" viewBox="0 0 24 25" fill="none" xmlns="http://www.w3.org/2000/svg">
<path d="M16.5706 7.86943C16.5706 10.2481 14.559 12.2389 11.9992 12.2389C9.4393 12.2389 7.42773 10.2481 7.42773 7.86943C7.42773 5.49075 9.4393 3.5 11.9992 3.5C14.559 3.5 16.5706 5.49075 16.5706 7.86943Z" stroke="#484848" stroke-width="2" stroke-linecap="round" stroke-linejoin="round"/>
<mask id="path-2-inside-1_2001_10596" fill="white">
<path d="M3 21.5009C3 17.3706 6.42857 13.2402 12 13.2402C17.5714 13.2402 21 17.3706 21 21.5009"/>
</mask>
<path d="M1 21.5009C1 22.6055 1.89543 23.5009 3 23.5009C4.10457 23.5009 5 22.6055 5 21.5009H1ZM19 21.5009C19 22.6055 19.8954 23.5009 21 23.5009C22.1046 23.5009 23 22.6055 23 21.5009H19ZM5 21.5009C5 18.4808 7.52743 15.2402 12 15.2402V11.2402C5.32972 11.2402 1 16.2603 1 21.5009H5ZM12 15.2402C16.4726 15.2402 19 18.4808 19 21.5009H23C23 16.2603 18.6703 11.2402 12 11.2402V15.2402Z" fill="#484848" mask="url(#path-2-inside-1_2001_10596)"/>
</svg>
