<svg width="125" height="43" viewBox="0 0 125 43" fill="none" xmlns="http://www.w3.org/2000/svg">
<g opacity="0.7">
<path opacity="0.7" d="M39.8408 26.0418L42.3208 21.7669L39.7402 17.2918L39.6733 11.9817L35.1155 9.34342L32.5016 4.80138H27.24L22.6822 2.16309L18.1246 4.80138H12.863L10.2155 9.34342L5.65772 11.9817V17.2251L3.01025 21.7669L5.65772 26.3089V31.5523L10.2155 34.1571L12.863 38.6991H18.1246L22.6822 41.3374L27.2734 38.6991H32.5016L35.0485 34.2907L39.8744 31.5523L39.8408 26.0418Z" fill="url(#paint0_linear)"/>
</g>
<path d="M32.5016 38.6631H12.8568" stroke="#66AF97" stroke-width="0.5669" stroke-miterlimit="10"/>
<path d="M5.64343 31.5443L10.4135 21.8008L32.0627 22.9028" stroke="#2C9FA2" stroke-width="0.5669" stroke-miterlimit="10"/>
<path d="M32.5015 4.80176L42.2839 21.7673" stroke="#66AF97" stroke-width="0.5669" stroke-miterlimit="10"/>
<path d="M10.4134 22.2685C10.6911 22.2685 10.9161 22.0442 10.9161 21.7675C10.9161 21.4909 10.6911 21.2666 10.4134 21.2666C10.1358 21.2666 9.91077 21.4909 9.91077 21.7675C9.91077 22.0442 10.1358 22.2685 10.4134 22.2685Z" fill="#2C9FA2"/>
<path d="M32.0627 23.4032C32.3403 23.4032 32.5654 23.1789 32.5654 22.9023C32.5654 22.6256 32.3403 22.4014 32.0627 22.4014C31.7851 22.4014 31.5601 22.6256 31.5601 22.9023C31.5601 23.1789 31.7851 23.4032 32.0627 23.4032Z" fill="#656D6D"/>
<path d="M18.3895 31.5194C18.6671 31.5194 18.8922 31.2952 18.8922 31.0185C18.8922 30.7418 18.6671 30.5176 18.3895 30.5176C18.1119 30.5176 17.8868 30.7418 17.8868 31.0185C17.8868 31.2952 18.1119 31.5194 18.3895 31.5194Z" fill="#656D6D"/>
<path d="M32.4392 39.164C32.7168 39.164 32.9419 38.9397 32.9419 38.663C32.9419 38.3864 32.7168 38.1621 32.4392 38.1621C32.1616 38.1621 31.9365 38.3864 31.9365 38.663C31.9365 38.9397 32.1616 39.164 32.4392 39.164Z" fill="#656D6D"/>
<path d="M32.4985 5.30264C32.7761 5.30264 33.0012 5.07836 33.0012 4.80171C33.0012 4.52505 32.7761 4.30078 32.4985 4.30078C32.2209 4.30078 31.9958 4.52505 31.9958 4.80171C31.9958 5.07836 32.2209 5.30264 32.4985 5.30264Z" fill="#656D6D"/>
<path d="M3.04075 22.2685C3.31837 22.2685 3.54342 22.0442 3.54342 21.7675C3.54342 21.4909 3.31837 21.2666 3.04075 21.2666C2.76314 21.2666 2.53809 21.4909 2.53809 21.7675C2.53809 22.0442 2.76314 22.2685 3.04075 22.2685Z" fill="#656D6D"/>
<path d="M12.8934 4.80176L17.3841 16.4907" stroke="#2C9FA2" stroke-width="0.5669" stroke-miterlimit="10"/>
<path d="M12.8568 39.2157C13.1344 39.2157 13.3595 38.9914 13.3595 38.7148C13.3595 38.4381 13.1344 38.2139 12.8568 38.2139C12.5792 38.2139 12.3541 38.4381 12.3541 38.7148C12.3541 38.9914 12.5792 39.2157 12.8568 39.2157Z" fill="#2C9FA2"/>
<path d="M17.3841 16.9911C17.6618 16.9911 17.8868 16.7668 17.8868 16.4902C17.8868 16.2135 17.6618 15.9893 17.3841 15.9893C17.1065 15.9893 16.8815 16.2135 16.8815 16.4902C16.8815 16.7668 17.1065 16.9911 17.3841 16.9911Z" fill="#656D6D"/>
<path d="M51.4519 36.087C51.3547 36.3574 51.246 36.7083 51.1717 36.9552C51.0974 36.708 50.9884 36.3567 50.8912 36.0856L47.9602 28.2295H47.0896L50.7847 38.0255L50.8113 38.0969H51.5987L55.2862 28.2295H54.4168L51.4519 36.087Z" fill="#98C5A7"/>
<path d="M58.4094 30.9902H57.6213V38.0965H58.4094V30.9902Z" fill="#98C5A7"/>
<path d="M58.5098 28.2295H57.5879V29.4475H58.5098V28.2295Z" fill="#98C5A7"/>
<path d="M63.6834 34.1526C62.7882 33.8035 62.0148 33.502 62.0148 32.7307C62.0148 31.8798 62.7684 31.5763 63.4737 31.5763C64.1534 31.5763 64.7875 31.8051 65.1285 32.173L65.2203 32.2723L65.6856 31.6233L65.624 31.5575C65.1654 31.0703 64.3938 30.791 63.5068 30.791C62.3551 30.791 61.1934 31.401 61.1934 32.7639C61.1934 34.0187 62.3302 34.4618 63.3333 34.8527C64.2272 35.2012 64.999 35.502 64.999 36.2569C64.999 37.0772 64.2497 37.4443 63.5068 37.4443C62.7223 37.4443 61.9345 37.126 61.4508 36.614L61.366 36.5242L60.8564 37.1244L60.9212 37.1958C61.5095 37.8432 62.4759 38.23 63.5068 38.23C64.8473 38.23 65.8204 37.4004 65.8204 36.2571C65.8204 34.9857 64.6852 34.5431 63.6834 34.1526Z" fill="#98C5A7"/>
<path d="M69.2256 28.2295H68.3037V29.4475H69.2256V28.2295Z" fill="#98C5A7"/>
<path d="M69.1589 30.9902H68.3706V38.0965H69.1589V30.9902Z" fill="#98C5A7"/>
<path d="M75.5247 30.8242C73.4599 30.8242 71.8423 32.4361 71.8423 34.4938C71.8423 36.6075 73.4597 38.2632 75.5247 38.2632C77.5896 38.2632 79.2073 36.6075 79.2073 34.4938C79.2073 32.4704 77.5551 30.8242 75.5247 30.8242ZM78.3854 34.4938C78.3854 36.1671 77.129 37.4777 75.5247 37.4777C73.9473 37.4777 72.6641 36.1392 72.6641 34.4938C72.6641 32.8767 73.9206 31.6097 75.5247 31.6097C77.129 31.6097 78.3854 32.8765 78.3854 34.4938Z" fill="#98C5A7"/>
<path d="M85.5061 30.8242C84.0351 30.8242 83.1347 31.7017 82.7117 32.3525C82.7121 32.3345 82.7123 32.3166 82.7123 32.2982V30.9907H81.9241V38.097H82.7123V34.5606C82.7123 32.906 83.9396 31.61 85.5064 31.61C86.8324 31.61 87.0987 32.4589 87.0987 33.8287V38.097H87.8867V33.629C87.8865 32.2419 87.6038 30.8242 85.5061 30.8242Z" fill="#98C5A7"/>
<path d="M59.8681 18.9249C60.1686 19.5238 60.4691 20.1225 60.803 20.8211C57.5981 22.7839 54.2932 23.5157 50.8214 22.0187C47.5499 20.6214 46.1144 17.7939 45.9809 14.4004C45.9142 12.9699 46.081 11.4729 46.5485 10.1421C48.3512 4.91913 55.0278 2.85646 59.1673 6.1832C59.8016 6.68213 60.2689 7.38077 60.9033 8.07941C60.0688 8.51184 59.4344 8.87779 58.7 9.24373C57.9322 7.97967 56.8973 7.08132 55.4618 6.84859C54.2267 6.64888 52.9914 6.78209 51.8564 7.34752C50.5209 8.01291 49.5863 9.07749 49.0521 10.4413C48.1842 12.637 48.1842 14.8991 49.1522 17.0615C50.454 20.0223 53.4253 21.3531 56.6299 20.355C57.7318 19.9893 58.7331 19.4239 59.8681 18.9249Z" fill="#676767"/>
<path d="M74.757 20.788C74.6569 21.0542 74.5901 21.1872 74.5566 21.3537C73.9222 22.9504 73.3548 23.0836 72.0194 21.9526C71.8526 21.8196 71.7523 21.5866 71.6188 21.3869C70.15 22.4183 68.6478 22.8839 66.9451 22.751C64.8753 22.5847 63.3064 21.2207 63.1062 19.3245C62.8724 17.0956 63.874 15.4321 66.1106 14.9664C67.6796 14.6337 69.3488 14.7334 71.0512 14.6337C71.3851 13.3362 70.6173 12.2386 69.015 12.0721C67.5795 11.9391 66.2443 12.2718 64.9423 13.0369C64.6418 12.438 64.3413 11.8394 64.0074 11.2405C66.2107 10.0761 68.414 9.64371 70.7507 10.3423C72.4198 10.8413 73.3546 12.1056 73.388 13.8688C73.4213 15.5321 73.4213 17.2288 73.388 18.8923C73.3884 19.8232 73.622 20.5551 74.757 20.788ZM71.1184 16.8624C69.5828 16.4964 68.114 16.2302 66.6117 16.8291C65.6769 17.1951 65.1762 17.9935 65.243 18.8918C65.343 19.8234 65.9107 20.4221 66.9456 20.655C68.4144 20.9877 69.6829 20.4888 70.8179 19.6237C70.9514 19.524 71.085 19.2578 71.085 19.0581C71.1518 18.3262 71.1184 17.6275 71.1184 16.8624Z" fill="#676767"/>
<path d="M107.372 21.3535C105.503 22.5843 103.6 23.0502 101.564 22.5178C99.8943 22.1186 98.8596 21.0208 98.7259 19.3573C98.5591 17.0951 98.5924 14.833 98.5591 12.5376C98.5591 11.7725 98.5591 11.0406 98.5591 10.2422C99.3269 10.2422 100.028 10.2422 100.796 10.2422C100.796 12.0387 100.796 13.8019 100.796 15.5649C100.796 16.5297 100.762 17.5276 100.829 18.4924C100.896 19.79 101.497 20.4884 102.799 20.6216C103.5 20.6881 104.267 20.6548 104.935 20.4553C106.571 20.0229 106.938 19.4905 106.938 17.794C106.938 15.2989 106.938 12.804 106.938 10.2757C107.673 10.2757 108.374 10.2757 109.141 10.2757C109.141 10.6084 109.175 10.941 109.175 11.2737C109.175 13.7688 109.208 16.2637 109.175 18.7588C109.175 19.7237 109.342 20.5221 110.477 20.788C110.41 20.9543 110.376 21.0542 110.343 21.1872C109.742 22.9837 109.241 23.1499 107.773 21.8859C107.639 21.7527 107.539 21.5864 107.372 21.3535Z" fill="#676767"/>
<path d="M122.061 11.0069C121.66 11.639 121.36 12.138 121.026 12.7036C120.692 12.5706 120.358 12.4042 120.058 12.3709C119.023 12.2712 117.988 12.1047 116.953 12.138C116.319 12.1712 115.651 12.5039 115.618 13.3688C115.584 14.1672 116.185 14.4666 116.786 14.6663C117.788 14.999 118.822 15.1985 119.79 15.498C121.593 16.0968 122.461 17.1947 122.461 18.8579C122.494 20.4547 121.493 21.7855 119.79 22.3509C117.487 23.116 115.317 22.7501 113.147 21.4193C113.481 20.8204 113.782 20.255 114.115 19.6561C115.484 20.388 116.853 20.9536 118.422 20.5877C118.756 20.5212 119.156 20.4547 119.357 20.2217C119.691 19.8226 120.124 19.2902 120.124 18.8245C120.124 18.4253 119.657 17.8596 119.257 17.6269C118.622 17.2942 117.888 17.1945 117.187 16.9615C116.552 16.7618 115.885 16.6288 115.284 16.3626C114.149 15.8969 113.481 15.0651 113.348 13.7678C113.248 12.437 113.782 11.4059 114.883 10.7405C117.22 9.44337 119.59 9.90906 122.061 11.0069Z" fill="#676767"/>
<path d="M86.6413 19.8235C86.6747 19.8567 86.7414 19.9897 86.8081 20.1229C87.0085 20.5554 87.2421 20.9546 87.4425 21.3538C85.3059 23.0505 81.7341 23.2167 79.464 21.753C77.2941 20.3557 76.2926 17.3949 76.9936 14.6006C77.6613 12.0057 79.7309 10.2425 82.3014 10.043C84.6716 9.84329 86.6747 10.8746 87.5092 12.8708C86.9416 13.137 86.3742 13.4365 85.8066 13.7024C84.2376 11.9725 82.5684 11.6065 80.966 12.5381C79.297 13.5029 78.529 15.8648 79.2301 17.994C79.831 19.8902 81.5334 21.0213 83.4696 20.7218C84.5383 20.5221 85.5397 20.1229 86.6413 19.8235Z" fill="#676767"/>
<path d="M96.1554 20.5879C96.022 21.3531 95.9217 21.9852 95.8216 22.6506C95.1872 22.6839 94.5865 22.7503 93.9855 22.7171C92.016 22.6838 90.814 21.6193 90.7473 19.6233C90.6472 17.5274 90.7139 15.4649 90.6806 13.369C90.6806 13.0363 90.6806 12.7036 90.6806 12.2712C90.0129 12.2712 89.4788 12.2712 88.8445 12.2712C88.8445 11.5726 88.8445 10.9737 88.8445 10.2752C89.4121 10.242 89.9795 10.2088 90.6806 10.1755C90.28 8.44553 91.1145 7.51416 92.8838 7.31445C92.8838 8.24605 92.8838 9.17742 92.8838 10.1755C93.9521 10.1755 94.9201 10.1755 95.955 10.1755C95.955 10.8741 95.955 11.5063 95.955 12.2382C94.9868 12.2382 93.9855 12.2382 92.9839 12.2382C92.9839 14.7 92.9506 17.0619 93.0173 19.4238C93.0507 20.2887 93.685 20.7214 94.7199 20.6879C95.1205 20.7209 95.5878 20.6544 96.1554 20.5879Z" fill="#676767"/>
<path d="M12.8935 5.33584C13.1712 5.33584 13.3962 5.11157 13.3962 4.83491C13.3962 4.55826 13.1712 4.33398 12.8935 4.33398C12.6159 4.33398 12.3909 4.55826 12.3909 4.83491C12.3909 5.11157 12.6159 5.33584 12.8935 5.33584Z" fill="#656D6D"/>
<path d="M5.64343 11.9567V31.5438L22.6655 41.3374L39.6875 31.5438V11.9567L22.6655 2.16309L5.64343 11.9567Z" stroke="#5CA462" stroke-width="0.5669" stroke-miterlimit="10"/>
<path d="M17.3842 16.4907L32.0628 22.9028L32.4393 38.6636L18.3895 31.0182L17.3842 16.4907ZM17.3842 16.4907L32.4985 4.80176L32.0628 22.9028L42.3177 21.7673L32.4393 38.6636" stroke="#656D6D" stroke-width="0.5669" stroke-miterlimit="10"/>
<path d="M5.64343 31.5438L18.3894 31.0178L32.0627 22.9023" stroke="#656D6D" stroke-width="0.5669" stroke-miterlimit="10"/>
<path d="M5.64354 32.0536C5.92115 32.0536 6.14621 31.8293 6.14621 31.5527C6.14621 31.276 5.92115 31.0518 5.64354 31.0518C5.36592 31.0518 5.14087 31.276 5.14087 31.5527C5.14087 31.8293 5.36592 32.0536 5.64354 32.0536Z" fill="#656D6D"/>
<path d="M22.6789 2.66396C22.9566 2.66396 23.1816 2.43969 23.1816 2.16304C23.1816 1.88638 22.9566 1.66211 22.6789 1.66211C22.4013 1.66211 22.1763 1.88638 22.1763 2.16304C22.1763 2.43969 22.4013 2.66396 22.6789 2.66396Z" fill="#5CA462"/>
<path d="M28.678 11.2139L42.2171 21.834" stroke="#2C9FA2" stroke-width="0.5669" stroke-miterlimit="10"/>
<path d="M28.678 11.7147C28.9556 11.7147 29.1806 11.4905 29.1806 11.2138C29.1806 10.9372 28.9556 10.7129 28.678 10.7129C28.4003 10.7129 28.1753 10.9372 28.1753 11.2138C28.1753 11.4905 28.4003 11.7147 28.678 11.7147Z" fill="#656D6D"/>
<path d="M42.217 22.2685C42.4946 22.2685 42.7197 22.0442 42.7197 21.7675C42.7197 21.4909 42.4946 21.2666 42.217 21.2666C41.9394 21.2666 41.7144 21.4909 41.7144 21.7675C41.7144 22.0442 41.9394 22.2685 42.217 22.2685Z" fill="#656D6D"/>
<path d="M12.8935 4.83496L3.01025 21.767L17.3841 16.4904L28.678 11.2138" stroke="#656D6D" stroke-width="0.5669" stroke-miterlimit="10"/>
<defs>
<linearGradient id="paint0_linear" x1="36.0595" y1="32.9362" x2="9.46128" y2="10.5401" gradientUnits="userSpaceOnUse">
<stop stop-color="#1C8B95"/>
<stop offset="1" stop-color="#79AF97"/>
</linearGradient>
</defs>
</svg>
