<svg width="24" height="20" viewBox="0 0 24 20" fill="none" xmlns="http://www.w3.org/2000/svg">
<path d="M21.8569 19.4282C22.3963 19.4282 22.8638 19.2501 23.2612 18.8984L16.4616 12.0985C16.2985 12.2153 16.1403 12.3289 15.991 12.4369C15.4821 12.8119 15.0691 13.1044 14.752 13.314C14.4349 13.5241 14.013 13.7383 13.4864 13.957C12.9594 14.1759 12.4685 14.285 12.0131 14.285H11.9997H11.9864C11.5309 14.285 11.04 14.1759 10.5131 13.957C9.98612 13.7383 9.56424 13.5241 9.24747 13.314C8.93038 13.1044 8.51761 12.8119 8.0085 12.4369C7.86662 12.3329 7.70928 12.2188 7.53917 12.0967L0.738281 18.8984C1.13563 19.2501 1.60339 19.4282 2.14283 19.4282H21.8569Z" fill="white"/>
<path d="M1.35282 7.81669C0.844016 7.47748 0.392814 7.08897 0 6.65137V16.9968L5.99313 11.0037C4.79416 10.1666 3.24935 9.10551 1.35282 7.81669Z" fill="white"/>
<path d="M22.6612 7.81669C20.837 9.05139 19.2866 10.1143 18.0098 11.006L24.0005 16.997V6.65137C23.6164 7.08017 23.17 7.46841 22.6612 7.81669Z" fill="white"/>
<path d="M21.8567 0.571289H2.14272C1.45496 0.571289 0.926196 0.803535 0.555778 1.26755C0.185056 1.73178 0 2.31235 0 3.00861C0 3.57101 0.24558 4.18039 0.736521 4.83691C1.22746 5.49316 1.74986 6.00864 2.30346 6.38359C2.60695 6.59801 3.52217 7.23427 5.04911 8.29214C5.87339 8.86335 6.59021 9.36122 7.20621 9.79085C7.73127 10.1567 8.18408 10.4735 8.55794 10.7364C8.60086 10.7665 8.66836 10.8148 8.75794 10.8789C8.85446 10.9482 8.9766 11.0362 9.12727 11.145C9.41743 11.3548 9.65848 11.5245 9.85046 11.654C10.0422 11.7837 10.2745 11.9285 10.547 12.0893C10.8193 12.2498 11.0761 12.3706 11.3171 12.4509C11.5582 12.5311 11.7814 12.5714 11.9867 12.5714H12.0001H12.0134C12.2187 12.5714 12.4419 12.5311 12.683 12.4509C12.924 12.3706 13.1806 12.2501 13.4531 12.0893C13.7254 11.9285 13.9574 11.7834 14.1497 11.654C14.3417 11.5245 14.5827 11.3549 14.8729 11.145C15.0233 11.0362 15.1455 10.9482 15.242 10.8791C15.3316 10.8148 15.399 10.7668 15.4422 10.7364C15.7335 10.5338 16.1873 10.2183 16.7975 9.79455C17.9079 9.02309 19.5431 7.88761 21.7101 6.38359C22.3618 5.92837 22.9063 5.37905 23.3439 4.73638C23.7807 4.09372 23.9997 3.41959 23.9997 2.71423C23.9997 2.1249 23.7874 1.62062 23.3637 1.20062C22.9394 0.781138 22.4371 0.571289 21.8567 0.571289Z" fill="white"/>
</svg>
