<svg width="18" height="18" viewBox="0 0 18 18" fill="none" xmlns="http://www.w3.org/2000/svg">
<path d="M16.7243 2.53123C15.8738 1.70072 14.6987 1.28564 13.1985 1.28564C12.7834 1.28564 12.3597 1.35763 11.9279 1.50152C11.4959 1.64552 11.094 1.8398 10.7227 2.0842C10.3509 2.32854 10.0314 2.558 9.76331 2.77222C9.49557 2.98652 9.24103 3.21425 9 3.45525C8.75886 3.21425 8.50439 2.98652 8.23662 2.77222C7.96868 2.558 7.64901 2.32868 7.27728 2.0842C6.90562 1.83969 6.50381 1.64556 6.07191 1.50152C5.64005 1.35766 5.21643 1.28564 4.80128 1.28564C3.30123 1.28564 2.12608 1.70083 1.27566 2.53123C0.425244 3.36156 0 4.51327 0 5.98648C0 6.43516 0.0788076 6.89738 0.236106 7.37258C0.393405 7.84803 0.572657 8.25322 0.77351 8.58798C0.974329 8.9227 1.20206 9.24911 1.45653 9.56723C1.711 9.88531 1.89698 10.1045 2.01403 10.2251C2.13118 10.3456 2.22329 10.4327 2.29024 10.4864L8.55801 16.5333C8.67858 16.6538 8.82588 16.7142 8.99996 16.7142C9.17404 16.7142 9.32146 16.6538 9.44195 16.5333L15.6998 10.5062C17.2333 8.97301 18 7.4663 18 5.98634C18 4.51303 17.5748 3.36141 16.7243 2.53123ZM14.8258 9.5622L9 15.1771L3.16419 9.55207C1.91193 8.30012 1.2859 7.11135 1.2859 5.98634C1.2859 5.44401 1.35788 4.96515 1.50178 4.55007C1.64578 4.13493 1.82992 3.80502 2.05424 3.56062C2.27859 3.31614 2.55143 3.11708 2.87285 2.96294C3.19445 2.80895 3.50915 2.70513 3.81714 2.65158C4.12512 2.59811 4.45319 2.57133 4.80146 2.57133C5.14962 2.57133 5.52469 2.65661 5.92647 2.82742C6.32818 2.99816 6.69815 3.21245 7.03628 3.47023C7.37449 3.72819 7.66411 3.96922 7.90528 4.19347C8.14631 4.41793 8.34713 4.62371 8.50787 4.81123C8.62834 4.95861 8.79253 5.03228 9.00003 5.03228C9.20761 5.03228 9.37163 4.95861 9.49223 4.81123C9.65294 4.62371 9.8539 4.41782 10.0949 4.19347C10.336 3.96922 10.6257 3.72829 10.9637 3.47023C11.3019 3.21245 11.6719 2.99816 12.0738 2.82742C12.4754 2.65665 12.8506 2.57133 13.1988 2.57133C13.547 2.57133 13.875 2.59811 14.1831 2.65158C14.4912 2.7051 14.8059 2.80895 15.1274 2.96294C15.4489 3.11704 15.7217 3.31624 15.946 3.56062C16.1703 3.80502 16.3545 4.13493 16.4985 4.55007C16.6423 4.96515 16.7142 5.44401 16.7142 5.98634C16.7142 7.11135 16.0848 8.30342 14.8258 9.5622Z" fill="#8A8E99"/>
</svg>
