<svg width="11" height="17" viewBox="0 0 11 17" fill="none" xmlns="http://www.w3.org/2000/svg">
<path d="M10.2904 5.83044C10.244 5.73069 10.1439 5.66668 10.0337 5.66668H6.67622L9.98979 0.434928C10.045 0.34767 10.0484 0.23717 9.99859 0.146791C9.94872 0.0561133 9.85349 0 9.75036 0H5.21704C5.10966 0 5.01161 0.0606289 4.96347 0.156686L0.71347 8.65668C0.669542 8.74424 0.674357 8.8485 0.725921 8.93207C0.777785 9.01564 0.868728 9.06664 0.967043 9.06664H3.88055L0.7058 16.6067C0.651679 16.7356 0.699857 16.8852 0.819123 16.9583C0.865009 16.9864 0.916009 17 0.966744 17C1.04806 17 1.12824 16.9651 1.18379 16.8994L10.2505 6.13272C10.3216 6.04831 10.3369 5.93044 10.2904 5.83044Z" fill="#E0C0C3"/>
</svg>
