<svg width="18" height="18" viewBox="0 0 18 18" fill="none" xmlns="http://www.w3.org/2000/svg">
<path d="M7.37044 13.6115L14.7925 9.32596C14.909 9.25898 14.9807 9.13442 14.9807 9.00027C14.9807 8.86611 14.909 8.74156 14.7925 8.67439L7.37044 4.38827C7.25398 4.3211 7.1106 4.3211 6.99414 4.38827C6.87767 4.45544 6.80598 4.57981 6.80598 4.71415V6.70951H0.39901C0.19129 6.70951 0.0227051 6.87809 0.0227051 7.08581V10.9136C0.0227051 11.1213 0.19129 11.2899 0.39901 11.2899H6.80617V13.2851C6.80617 13.4198 6.87786 13.5438 6.99433 13.6109C7.05265 13.6448 7.11757 13.6614 7.18248 13.6614C7.24739 13.6614 7.3123 13.6448 7.37044 13.6115Z" fill="#8A8E99"/>
<path d="M15.1979 0H7.53085C7.32313 0 7.15454 0.168585 7.15454 0.376305V1.50522C7.15454 1.71294 7.32313 1.88153 7.53085 1.88153H15.1979C15.6931 1.88153 16.0956 2.28436 16.0956 2.7792V15.2208C16.0956 15.7158 15.6927 16.1185 15.1979 16.1185H7.53085C7.32313 16.1185 7.15454 16.2871 7.15454 16.4948V17.6237C7.15454 17.8314 7.32313 18 7.53085 18H15.1979C16.7306 18 17.9771 16.7531 17.9771 15.2208V2.77939C17.9771 1.24689 16.7304 0 15.1979 0Z" fill="#8A8E99"/>
</svg>
