<svg width="17" height="17" viewBox="0 0 17 17" fill="none" xmlns="http://www.w3.org/2000/svg">
<path d="M8.2119 14.7289C8.2119 15.5086 7.57982 16.1407 6.80009 16.1407C6.02037 16.1407 5.38829 15.5086 5.38829 14.7289C5.38829 13.9492 6.02037 13.3171 6.8001 13.3171C7.57983 13.3171 8.2119 13.9492 8.2119 14.7289ZM12.5166 13.3171C11.7369 13.3171 11.1048 13.9492 11.1048 14.7289C11.1048 15.5086 11.7369 16.1407 12.5166 16.1407C13.2963 16.1407 13.9284 15.5086 13.9284 14.7289C13.9284 13.9492 13.2963 13.3171 12.5166 13.3171ZM16.899 6.68947L15.1618 11.8528C15.1618 11.8528 15.018 12.6191 14.2853 12.6191C13.5526 12.6191 6.38757 12.6191 5.51319 12.6191C4.63882 12.6191 4.60208 11.6586 4.60208 11.6586C4.60208 11.6586 3.66998 4.74339 3.62379 4.32562C3.5776 3.90785 3.04332 3.5982 3.04332 3.5982L0.744541 2.52439C-0.514014 1.86624 0.0580544 0.613985 0.744541 0.901597C3.65948 2.27666 5.01355 2.9537 5.10068 3.49533C5.18885 4.03801 5.3421 5.34485 5.3421 5.34485V5.35325C5.35995 5.348 5.37254 5.34485 5.37254 5.34485C5.37254 5.34485 14.3115 5.34485 16.117 5.34485C17.4144 5.34485 16.899 6.69158 16.899 6.68947ZM14.3861 9.56452L14.3682 9.56557H5.86379L6.03908 10.9553H13.9725L14.3861 9.56452ZM15.2142 6.76191H5.51214L5.69899 8.24719C7.56005 8.24719 13.0099 8.24719 14.7755 8.24719L15.2142 6.76191Z" fill="white"/>
</svg>
