<svg width="16" height="16" viewBox="0 0 16 16" fill="none" xmlns="http://www.w3.org/2000/svg">
<path d="M15.6522 7.28186C15.9672 6.97493 16.0783 6.52447 15.9425 6.10573C15.8063 5.68698 15.4517 5.38806 15.0159 5.32463L11.1419 4.76171C10.9769 4.73768 10.8343 4.6342 10.7606 4.48458L9.0286 0.974448C8.83412 0.580055 8.43941 0.334961 7.99952 0.334961C7.55995 0.334961 7.16524 0.580055 6.97077 0.974448L5.23845 4.4849C5.16476 4.63452 5.02187 4.738 4.85687 4.76203L0.982781 5.32495C0.547379 5.38806 0.192393 5.6873 0.0562295 6.10605C-0.0796135 6.52479 0.0315599 6.97525 0.346498 7.28218L3.14954 10.0144C3.26904 10.131 3.32383 10.2989 3.29564 10.463L2.63436 14.321C2.57573 14.6606 2.6648 14.9909 2.88458 15.2514C3.22611 15.6573 3.82235 15.781 4.29908 15.5305L7.76372 13.7088C7.90853 13.6328 8.09083 13.6335 8.23532 13.7088L11.7003 15.5305C11.8688 15.6192 12.0485 15.6641 12.234 15.6641C12.5727 15.6641 12.8937 15.5135 13.1145 15.2514C13.3346 14.9909 13.4233 14.66 13.3647 14.321L12.7031 10.463C12.6749 10.2986 12.7297 10.131 12.8492 10.0144L15.6522 7.28186Z" fill="white"/>
</svg>
