<svg width="32" height="32" viewBox="0 0 32 32" fill="none" xmlns="http://www.w3.org/2000/svg">
<path d="M22.1532 2.66602H9.8455C7.94201 2.66805 6.11706 3.42511 4.77109 4.77109C3.42511 6.11706 2.66805 7.94201 2.66602 9.8455V22.1532C2.66805 24.0567 3.42511 25.8816 4.77109 27.2276C6.11706 28.5736 7.94201 29.3306 9.8455 29.3327H22.1532C24.0567 29.3306 25.8816 28.5736 27.2276 27.2276C28.5736 25.8816 29.3306 24.0567 29.3327 22.1532V9.8455C29.3306 7.94201 28.5736 6.11706 27.2276 4.77109C25.8816 3.42511 24.0567 2.66805 22.1532 2.66602ZM15.9993 22.1532C14.7822 22.1532 13.5924 21.7923 12.5805 21.1161C11.5685 20.4399 10.7797 19.4788 10.3139 18.3543C9.84817 17.2299 9.7263 15.9925 9.96375 14.7988C10.2012 13.6051 10.7873 12.5086 11.6479 11.6479C12.5086 10.7873 13.6051 10.2012 14.7988 9.96375C15.9925 9.7263 17.2299 9.84817 18.3543 10.3139C19.4788 10.7797 20.4399 11.5685 21.1161 12.5805C21.7923 13.5924 22.1532 14.7822 22.1532 15.9993C22.1515 17.6309 21.5026 19.1952 20.3489 20.3489C19.1952 21.5026 17.6309 22.1515 15.9993 22.1532ZM23.6917 9.8455C23.3874 9.8455 23.0899 9.75527 22.8369 9.58623C22.5839 9.41718 22.3867 9.1769 22.2703 8.89578C22.1539 8.61467 22.1234 8.30533 22.1828 8.0069C22.2421 7.70847 22.3886 7.43434 22.6038 7.21918C22.819 7.00403 23.0931 6.8575 23.3915 6.79814C23.6899 6.73878 23.9993 6.76925 24.2804 6.88569C24.5615 7.00213 24.8018 7.19932 24.9708 7.45232C25.1399 7.70532 25.2301 8.00276 25.2301 8.30704C25.2301 8.71507 25.068 9.10638 24.7795 9.3949C24.491 9.68341 24.0997 9.8455 23.6917 9.8455ZM20.1019 15.9993C20.1019 16.8108 19.8613 17.6039 19.4105 18.2786C18.9597 18.9533 18.319 19.4791 17.5693 19.7896C16.8197 20.1001 15.9948 20.1814 15.199 20.0231C14.4032 19.8648 13.6722 19.4741 13.0984 18.9003C12.5246 18.3265 12.1339 17.5955 11.9756 16.7997C11.8173 16.0039 11.8986 15.179 12.2091 14.4294C12.5196 13.6797 13.0454 13.039 13.7201 12.5882C14.3947 12.1374 15.1879 11.8968 15.9993 11.8968C17.0874 11.8968 18.1309 12.329 18.9003 13.0984C19.6697 13.8678 20.1019 14.9113 20.1019 15.9993Z" fill="#484848"/>
</svg>
