<svg width="32" height="32" viewBox="0 0 32 32" fill="none" xmlns="http://www.w3.org/2000/svg">
<path d="M12.0527 28.7193C13.3327 29.106 14.626 29.3327 15.9993 29.3327C19.5356 29.3327 22.927 27.9279 25.4274 25.4274C27.9279 22.927 29.3327 19.5356 29.3327 15.9993C29.3327 14.2484 28.9878 12.5146 28.3177 10.8969C27.6477 9.27923 26.6656 7.80937 25.4274 6.57126C24.1893 5.33314 22.7195 4.35102 21.1018 3.68096C19.4841 3.01089 17.7503 2.66602 15.9993 2.66602C14.2484 2.66602 12.5146 3.01089 10.8969 3.68096C9.27923 4.35102 7.80937 5.33314 6.57126 6.57126C4.07077 9.07174 2.66602 12.4631 2.66602 15.9993C2.66602 21.666 6.22601 26.5327 11.2527 28.4527C11.1327 27.4127 11.0127 25.6927 11.2527 24.506L12.786 17.9193C12.786 17.9193 12.3993 17.146 12.3993 15.9193C12.3993 14.0793 13.546 12.706 14.8527 12.706C15.9993 12.706 16.5327 13.546 16.5327 14.626C16.5327 15.7727 15.7727 17.4127 15.386 18.986C15.1593 20.2927 16.0793 21.4393 17.4127 21.4393C19.786 21.4393 21.626 18.906 21.626 15.3327C21.626 12.1327 19.3327 9.94602 16.0393 9.94602C12.2793 9.94602 10.066 12.746 10.066 15.6927C10.066 16.8393 10.4393 17.9993 11.0527 18.7593C11.1727 18.8393 11.1727 18.946 11.1327 19.146L10.746 20.5993C10.746 20.826 10.5993 20.906 10.3727 20.746C8.66602 19.9993 7.67935 17.5727 7.67935 15.6127C7.67935 11.3993 10.666 7.57268 16.426 7.57268C21.0127 7.57268 24.586 10.866 24.586 15.2393C24.586 19.826 21.746 23.506 17.6793 23.506C16.386 23.506 15.1193 22.8127 14.666 21.9993L13.7727 25.1593C13.466 26.306 12.626 27.8393 12.0527 28.7593V28.7193Z" fill="#484848"/>
</svg>
