<svg width="32" height="32" viewBox="0 0 32 32" fill="none" xmlns="http://www.w3.org/2000/svg">
<path d="M15.9993 2.66602C8.63935 2.66602 2.66602 8.63935 2.66602 15.9993C2.66602 23.3593 8.63935 29.3327 15.9993 29.3327C23.3593 29.3327 29.3327 23.3593 29.3327 15.9993C29.3327 8.63935 23.3593 2.66602 15.9993 2.66602ZM22.186 11.7327C21.986 13.8393 21.1193 18.9593 20.6793 21.3193C20.4927 22.3193 20.1193 22.6527 19.7727 22.6927C18.9993 22.7593 18.4127 22.186 17.666 21.6927C16.4927 20.9193 15.826 20.4393 14.6927 19.6927C13.3727 18.826 14.226 18.346 14.986 17.5727C15.186 17.3727 18.5993 14.266 18.666 13.986C18.6753 13.9436 18.674 13.8996 18.6624 13.8578C18.6508 13.8159 18.6292 13.7776 18.5993 13.746C18.5193 13.6793 18.4127 13.706 18.3193 13.7193C18.1993 13.746 16.3327 14.986 12.6927 17.4393C12.1593 17.7993 11.6793 17.986 11.2527 17.9727C10.7727 17.9593 9.86601 17.706 9.18602 17.4793C8.34601 17.2127 7.69268 17.066 7.74602 16.5993C7.77268 16.3593 8.10602 16.1193 8.73268 15.866C12.626 14.1727 15.2127 13.0527 16.506 12.5193C20.2127 10.9727 20.9727 10.706 21.4793 10.706C21.586 10.706 21.8393 10.7327 21.9993 10.866C22.1327 10.9727 22.1727 11.1193 22.186 11.226C22.1727 11.306 22.1993 11.546 22.186 11.7327Z" fill="#484848"/>
</svg>
