<svg width="32" height="32" viewBox="0 0 32 32" fill="none" xmlns="http://www.w3.org/2000/svg">
<path d="M20.0967 2.66602H11.9153C4.44335 2.66602 2.66602 4.44335 2.66602 11.902V20.0833C2.66602 27.554 4.43002 29.3327 11.902 29.3327H20.0833C27.554 29.3327 29.3327 27.5687 29.3327 20.0967V11.9153C29.3327 4.44335 27.5687 2.66602 20.0967 2.66602ZM24.194 21.6927H22.2487C21.5127 21.6927 21.2913 21.0967 19.9713 19.7767C18.8193 18.666 18.3327 18.5273 18.0407 18.5273C17.638 18.5273 17.5273 18.638 17.5273 19.194V20.9433C17.5273 21.4167 17.374 21.694 16.138 21.694C14.9385 21.6134 13.7752 21.249 12.7441 20.6307C11.713 20.0125 10.8436 19.1581 10.2073 18.138C8.69691 16.258 7.64594 14.0515 7.13802 11.694C7.13802 11.402 7.24868 11.138 7.80468 11.138H9.74868C10.2487 11.138 10.4287 11.3607 10.6247 11.874C11.5687 14.6527 13.1793 17.0687 13.8327 17.0687C14.0833 17.0687 14.1927 16.958 14.1927 16.3327V13.4713C14.11 12.166 13.4167 12.0553 13.4167 11.5833C13.4256 11.4589 13.4826 11.3427 13.5757 11.2596C13.6688 11.1764 13.7906 11.1328 13.9153 11.138H16.9713C17.3887 11.138 17.5273 11.346 17.5273 11.846V15.7073C17.5273 16.1247 17.7073 16.2633 17.8327 16.2633C18.0833 16.2633 18.2767 16.1247 18.7353 15.666C19.7205 14.4646 20.5254 13.1261 21.1247 11.6927C21.1859 11.5205 21.3018 11.3731 21.4547 11.2729C21.6076 11.1728 21.789 11.1254 21.9713 11.138H23.9167C24.4993 11.138 24.6233 11.43 24.4993 11.846C23.792 13.4306 22.9168 14.9347 21.8887 16.3327C21.6793 16.6527 21.5953 16.8193 21.8887 17.194C22.082 17.486 22.7633 18.0553 23.222 18.5967C23.8886 19.2615 24.4421 20.0308 24.8607 20.874C25.0273 21.4153 24.7487 21.6927 24.194 21.6927Z" fill="#484848"/>
</svg>
